<?xml version="1.0" encoding="UTF8" ?>
<svg xmlns="http://www.w3.org/2000/svg" version="1.0" baseProfile="full" viewBox="-9.000000 -9.000000 30.000000 24.000000" >
<line x1="1" y1="5" x2="2" y2="1" stroke="#000000" stroke-width="1" vector-effect="non-scaling-stroke" fill="none" />
<line x1="1" y1="5" x2="3" y2="4" stroke="#000000" stroke-width="1" vector-effect="non-scaling-stroke" fill="none" />
<line x1="1" y1="5" x2="11" y2="5" stroke="#000000" stroke-width="1" vector-effect="non-scaling-stroke" fill="none" />
<line x1="2" y1="1" x2="4" y2="2" stroke="#000000" stroke-width="1" vector-effect="non-scaling-stroke" fill="none" />
<line x1="3" y1="4" x2="5" y2="3" stroke="#000000" stroke-width="1" vector-effect="non-scaling-stroke" fill="none" />
<line x1="4" y1="2" x2="5" y2="3" stroke="#000000" stroke-width="1" vector-effect="non-scaling-stroke" fill="none" />
<line x1="4" y1="2" x2="6" y2="2" stroke="#000000" stroke-width="1" vector-effect="non-scaling-stroke" fill="none" />
<line x1="5" y1="3" x2="7" y2="3" stroke="#000000" stroke-width="1" vector-effect="non-scaling-stroke" fill="none" />
<line x1="6" y1="2" x2="7" y2="3" stroke="#000000" stroke-width="1" vector-effect="non-scaling-stroke" fill="none" />
<line x1="6" y1="2" x2="8" y2="1" stroke="#000000" stroke-width="1" vector-effect="non-scaling-stroke" fill="none" />
<line x1="7" y1="3" x2="9" y2="4" stroke="#000000" stroke-width="1" vector-effect="non-scaling-stroke" fill="none" />
<line x1="8" y1="1" x2="11" y2="5" stroke="#000000" stroke-width="1" vector-effect="non-scaling-stroke" fill="none" />
<line x1="9" y1="4" x2="11" y2="5" stroke="#000000" stroke-width="1" vector-effect="non-scaling-stroke" fill="none" />
<line x1="2" y1="1" x2="8" y2="1" stroke="#000000" stroke-width="1" vector-effect="non-scaling-stroke" fill="none" />
<line x1="3" y1="4" x2="9" y2="4" stroke="#000000" stroke-width="1" vector-effect="non-scaling-stroke" fill="none" />
<line x1="1" y1="5" x2="1.00001" y2="5.00001" stroke="#0000ff" stroke-width="5" stroke-linecap="round" vector-effect="non-scaling-stroke" fill="none" />
<line x1="2" y1="1" x2="2.00001" y2="1.00001" stroke="#0000ff" stroke-width="5" stroke-linecap="round" vector-effect="non-scaling-stroke" fill="none" />
<line x1="3" y1="4" x2="3.00001" y2="4.00001" stroke="#0000ff" stroke-width="5" stroke-linecap="round" vector-effect="non-scaling-stroke" fill="none" />
<line x1="4" y1="2" x2="4.00001" y2="2.00001" stroke="#0000ff" stroke-width="5" stroke-linecap="round" vector-effect="non-scaling-stroke" fill="none" />
<line x1="5" y1="3" x2="5.00001" y2="3.00001" stroke="#0000ff" stroke-width="5" stroke-linecap="round" vector-effect="non-scaling-stroke" fill="none" />
<line x1="6" y1="2" x2="6.00001" y2="2.00001" stroke="#0000ff" stroke-width="5" stroke-linecap="round" vector-effect="non-scaling-stroke" fill="none" />
<line x1="7" y1="3" x2="7.00001" y2="3.00001" stroke="#0000ff" stroke-width="5" stroke-linecap="round" vector-effect="non-scaling-stroke" fill="none" />
<line x1="8" y1="1" x2="8.00001" y2="1.00001" stroke="#0000ff" stroke-width="5" stroke-linecap="round" vector-effect="non-scaling-stroke" fill="none" />
<line x1="9" y1="4" x2="9.00001" y2="4.00001" stroke="#0000ff" stroke-width="5" stroke-linecap="round" vector-effect="non-scaling-stroke" fill="none" />
<line x1="11" y1="5" x2="11" y2="5.00001" stroke="#0000ff" stroke-width="5" stroke-linecap="round" vector-effect="non-scaling-stroke" fill="none" />
</svg>