<?xml version="1.0" encoding="utf-8" ?>
<svg baseProfile="full" height="1000" version="1.1" width="1000" xmlns="http://www.w3.org/2000/svg" xmlns:ev="http://www.w3.org/2001/xml-events" xmlns:xlink="http://www.w3.org/1999/xlink"><defs /><line stroke="red" stroke-width="1.10096" x1="766.76249" x2="761.87381" y1="13.77404" y2="10.0" /><circle cx="146.62007" cy="813.02986" fill="black" r="0.50044" /><circle cx="611.5812" cy="210.74474" fill="black" r="0.50044" /><circle cx="678.75902" cy="123.72628" fill="black" r="0.50044" /><circle cx="762.5426" cy="15.19763" fill="black" r="0.50044" /><circle cx="228.13923" cy="707.43442" fill="black" r="0.50044" /><circle cx="159.45179" cy="796.40836" fill="black" r="0.50044" /><circle cx="495.34091" cy="361.31602" fill="black" r="0.50044" /><circle cx="254.55747" cy="673.21367" fill="black" r="0.50044" /><circle cx="475.71593" cy="386.73715" fill="black" r="0.50044" /><circle cx="625.16772" cy="193.1455" fill="black" r="0.50044" /><circle cx="440.99481" cy="431.71298" fill="black" r="0.50044" /><circle cx="334.56702" cy="569.5737" fill="black" r="0.50044" /><circle cx="434.20155" cy="440.5126" fill="black" r="0.50044" /><circle cx="755.74934" cy="23.99725" fill="black" r="0.50044" /><circle cx="730.0859" cy="57.24026" fill="black" r="0.50044" /><circle cx="688.57151" cy="111.01571" fill="black" r="0.50044" /><circle cx="653.09558" cy="156.96929" fill="black" r="0.50044" /><circle cx="203.2306" cy="739.69969" fill="black" r="0.50044" /><circle cx="711.97053" cy="80.70591" fill="black" r="0.50044" /><circle cx="533.08127" cy="312.42924" fill="black" r="0.50044" /><circle cx="480.24477" cy="380.87073" fill="black" r="0.50044" /><circle cx="267.38919" cy="656.59217" fill="black" r="0.50044" /><circle cx="317.96126" cy="591.08388" fill="black" r="0.50044" /><circle cx="65.10091" cy="918.6253" fill="black" r="0.50044" /><circle cx="490.81207" cy="367.18244" fill="black" r="0.50044" /><circle cx="333.0574" cy="571.52917" fill="black" r="0.50044" /><circle cx="194.92772" cy="750.45478" fill="black" r="0.50044" /><circle cx="102.84126" cy="869.73852" fill="black" r="0.50044" /><circle cx="585.16295" cy="244.96549" fill="black" r="0.50044" /><circle cx="753.48492" cy="26.93045" fill="black" r="0.50044" /><circle cx="351.17277" cy="548.06352" fill="black" r="0.50044" /><circle cx="754.99453" cy="24.97498" fill="black" r="0.50044" /><circle cx="465.14863" cy="400.42545" fill="black" r="0.50044" /><circle cx="529.30723" cy="317.31792" fill="black" r="0.50044" /><circle cx="120.95663" cy="846.27287" fill="black" r="0.50044" /><circle cx="311.92281" cy="598.90577" fill="black" r="0.50044" /><circle cx="399.48042" cy="485.48844" fill="black" r="0.50044" /><circle cx="705.17727" cy="89.50553" fill="black" r="0.50044" /><circle cx="80.95186" cy="898.09286" fill="black" r="0.50044" /><circle cx="342.11509" cy="559.79635" fill="black" r="0.50044" /><circle cx="439.48519" cy="433.66846" fill="black" r="0.50044" /><circle cx="161.71621" cy="793.47515" fill="black" r="0.50044" /><circle cx="717.25418" cy="73.86176" fill="black" r="0.50044" /><circle cx="513.45628" cy="337.85037" fill="black" r="0.50044" /><circle cx="62.83649" cy="921.55851" fill="black" r="0.50044" /><circle cx="265.12477" cy="659.52537" fill="black" r="0.50044" /><circle cx="218.32674" cy="720.14498" fill="black" r="0.50044" /><circle cx="287.01418" cy="631.17104" fill="black" r="0.50044" /><circle cx="364.00449" cy="531.44201" fill="black" r="0.50044" /><circle cx="343.6247" cy="557.84087" fill="black" r="0.50044" /><circle cx="659.13404" cy="149.1474" fill="black" r="0.50044" /><circle cx="376.83621" cy="514.82051" fill="black" r="0.50044" /><circle cx="237.95172" cy="694.72386" fill="black" r="0.50044" /><circle cx="547.4226" cy="293.85227" fill="black" r="0.50044" /><circle cx="97.55761" cy="876.58267" fill="black" r="0.50044" /><circle cx="732.35032" cy="54.30705" fill="black" r="0.50044" /><circle cx="244.74498" cy="685.92423" fill="black" r="0.50044" /><circle cx="13.77404" cy="985.11132" fill="black" r="0.50044" /><circle cx="362.49488" cy="533.39748" fill="black" r="0.50044" /><circle cx="315.69684" cy="594.01709" fill="black" r="0.50044" /><circle cx="573.08604" cy="260.60926" fill="black" r="0.50044" /><circle cx="485.52842" cy="374.02659" fill="black" r="0.50044" /><circle cx="531.57165" cy="314.38471" fill="black" r="0.50044" /><circle cx="519.49474" cy="330.02848" fill="black" r="0.50044" /><circle cx="248.51902" cy="681.03556" fill="black" r="0.50044" /><circle cx="699.89362" cy="96.34968" fill="black" r="0.50044" /><circle cx="148.12968" cy="811.07439" fill="black" r="0.50044" /><circle cx="564.78316" cy="271.36435" fill="black" r="0.50044" /><circle cx="460.61979" cy="406.29186" fill="black" r="0.50044" /><circle cx="73.40379" cy="907.87021" fill="black" r="0.50044" /><circle cx="299.09109" cy="615.52727" fill="black" r="0.50044" /><circle cx="213.04309" cy="726.98913" fill="black" r="0.50044" /><circle cx="22.07691" cy="974.35623" fill="black" r="0.50044" /><circle cx="77.93263" cy="902.0038" fill="black" r="0.50044" /><circle cx="381.36505" cy="508.9541" fill="black" r="0.50044" /><circle cx="240.21614" cy="691.79065" fill="black" r="0.50044" /><circle cx="686.30709" cy="113.94892" fill="black" r="0.50044" /><circle cx="405.51888" cy="477.66656" fill="black" r="0.50044" /><circle cx="31.8894" cy="961.64567" fill="black" r="0.50044" /><circle cx="569.312" cy="265.49794" fill="black" r="0.50044" /><circle cx="630.45137" cy="186.30135" fill="black" r="0.50044" /><circle cx="45.47593" cy="944.04643" fill="black" r="0.50044" /><circle cx="162.47102" cy="792.49741" fill="black" r="0.50044" /><circle cx="279.46611" cy="640.9484" fill="black" r="0.50044" /><circle cx="417.59579" cy="462.02279" fill="black" r="0.50044" /><circle cx="152.65853" cy="805.20798" fill="black" r="0.50044" /><circle cx="173.03832" cy="778.80911" fill="black" r="0.50044" /><circle cx="496.85053" cy="359.36055" fill="black" r="0.50044" /><circle cx="223.61039" cy="713.30083" fill="black" r="0.50044" /><circle cx="109.63453" cy="860.9389" fill="black" r="0.50044" /><circle cx="668.19172" cy="137.41458" fill="black" r="0.50044" /><circle cx="216.81712" cy="722.10045" fill="black" r="0.50044" /><circle cx="108.87972" cy="861.91664" fill="black" r="0.50044" /><circle cx="121.71144" cy="845.29513" fill="black" r="0.50044" /><circle cx="233.42288" cy="700.59027" fill="black" r="0.50044" /><circle cx="200.21137" cy="743.61063" fill="black" r="0.50044" /><circle cx="326.26414" cy="580.32879" fill="black" r="0.50044" /><circle cx="232.66807" cy="701.568" fill="black" r="0.50044" /><circle cx="438.73039" cy="434.64619" fill="black" r="0.50044" /><circle cx="89.25474" cy="887.33776" fill="black" r="0.50044" /><circle cx="667.43692" cy="138.39231" fill="black" r="0.50044" /><circle cx="536.8553" cy="307.54057" fill="black" r="0.50044" /><circle cx="550.44183" cy="289.94133" fill="black" r="0.50044" /><circle cx="533.83607" cy="311.45151" fill="black" r="0.50044" /><circle cx="761.78779" cy="16.17536" fill="black" r="0.50044" /><circle cx="183.60561" cy="765.12082" fill="black" r="0.50044" /><circle cx="56.04323" cy="930.35813" fill="black" r="0.50044" /><circle cx="87.74512" cy="889.29324" fill="black" r="0.50044" /><circle cx="361.74007" cy="534.37522" fill="black" r="0.50044" /><circle cx="590.4466" cy="238.12134" fill="black" r="0.50044" /><circle cx="412.31214" cy="468.86694" fill="black" r="0.50044" /><circle cx="602.52351" cy="222.47757" fill="black" r="0.50044" /><circle cx="133.78835" cy="829.65137" fill="black" r="0.50044" /><circle cx="370.04295" cy="523.62013" fill="black" r="0.50044" /><circle cx="193.41811" cy="752.41025" fill="black" r="0.50044" /><circle cx="403.25446" cy="480.59976" fill="black" r="0.50044" /><circle cx="591.95621" cy="236.16587" fill="black" r="0.50044" /><circle cx="559.49951" cy="278.2085" fill="black" r="0.50044" /><circle cx="350.41797" cy="549.04125" fill="black" r="0.50044" /><circle cx="477.98035" cy="383.80394" fill="black" r="0.50044" /><circle cx="654.6052" cy="155.01382" fill="black" r="0.50044" /><circle cx="348.90835" cy="550.99673" fill="black" r="0.50044" /><circle cx="476.47074" cy="385.75941" fill="black" r="0.50044" /><circle cx="260.59593" cy="665.39179" fill="black" r="0.50044" /><circle cx="410.80253" cy="470.82241" fill="black" r="0.50044" /><circle cx="166.99986" cy="786.631" fill="black" r="0.50044" /><circle cx="577.61488" cy="254.74284" fill="black" r="0.50044" /><circle cx="416.84098" cy="463.00052" fill="black" r="0.50044" /><circle cx="432.69193" cy="442.46808" fill="black" r="0.50044" /><circle cx="444.01404" cy="427.80204" fill="black" r="0.50044" /><circle cx="500.62456" cy="354.47187" fill="black" r="0.50044" /><circle cx="99.82204" cy="873.64947" fill="black" r="0.50044" /><circle cx="462.88421" cy="403.35865" fill="black" r="0.50044" /><circle cx="259.84112" cy="666.36952" fill="black" r="0.50044" /><circle cx="48.49516" cy="940.13549" fill="black" r="0.50044" /><circle cx="271.91804" cy="650.72575" fill="black" r="0.50044" /><circle cx="384.38428" cy="505.04315" fill="black" r="0.50044" /><circle cx="712.72534" cy="79.72818" fill="black" r="0.50044" /><circle cx="277.20169" cy="643.88161" fill="black" r="0.50044" /><circle cx="551.19663" cy="288.96359" fill="black" r="0.50044" /><circle cx="188.88926" cy="758.27667" fill="black" r="0.50044" /><circle cx="126.24028" cy="839.42872" fill="black" r="0.50044" /><circle cx="38.68267" cy="952.84605" fill="black" r="0.50044" /><circle cx="578.36969" cy="253.76511" fill="black" r="0.50044" /><circle cx="637.99944" cy="176.524" fill="black" r="0.50044" /><circle cx="189.64407" cy="757.29893" fill="black" r="0.50044" /><circle cx="295.31705" cy="620.41595" fill="black" r="0.50044" /><circle cx="355.70162" cy="542.1971" fill="black" r="0.50044" /><circle cx="301.35551" cy="612.59407" fill="black" r="0.50044" /><circle cx="285.50456" cy="633.12651" fill="black" r="0.50044" /><circle cx="472.6967" cy="390.64809" fill="black" r="0.50044" /><circle cx="310.41319" cy="600.86124" fill="black" r="0.50044" /><circle cx="497.60534" cy="358.38282" fill="black" r="0.50044" /><circle cx="219.83635" cy="718.18951" fill="black" r="0.50044" /><circle cx="354.94681" cy="543.17484" fill="black" r="0.50044" /><circle cx="306.63916" cy="605.74992" fill="black" r="0.50044" /><circle cx="639.50906" cy="174.56853" fill="black" r="0.50044" /><circle cx="662.15327" cy="145.23646" fill="black" r="0.50044" /><circle cx="469.67748" cy="394.55903" fill="black" r="0.50044" /><circle cx="721.78302" cy="67.99535" fill="black" r="0.50044" /><circle cx="415.33137" cy="464.95599" fill="black" r="0.50044" /><circle cx="597.99467" cy="228.34398" fill="black" r="0.50044" /><circle cx="431.93712" cy="443.44581" fill="black" r="0.50044" /><circle cx="264.36997" cy="660.50311" fill="black" r="0.50044" /><circle cx="168.50947" cy="784.67553" fill="black" r="0.50044" /><circle cx="418.3506" cy="461.04505" fill="black" r="0.50044" /><circle cx="88.49993" cy="888.3155" fill="black" r="0.50044" /><circle cx="713.48014" cy="78.75044" fill="black" r="0.50044" /><circle cx="19.81249" cy="977.28944" fill="black" r="0.50044" /><circle cx="530.81684" cy="315.36245" fill="black" r="0.50044" /><circle cx="715.74456" cy="75.81723" fill="black" r="0.50044" /><circle cx="66.61053" cy="916.66983" fill="black" r="0.50044" /><circle cx="324.75453" cy="582.28426" fill="black" r="0.50044" /><circle cx="521.00435" cy="328.07301" fill="black" r="0.50044" /><circle cx="247.76421" cy="682.01329" fill="black" r="0.50044" /><circle cx="330.03818" cy="575.44011" fill="black" r="0.50044" /><circle cx="65.85572" cy="917.64757" fill="black" r="0.50044" /><circle cx="221.34597" cy="716.23404" fill="black" r="0.50044" /><circle cx="451.56211" cy="418.02469" fill="black" r="0.50044" /><circle cx="739.89839" cy="44.5297" fill="black" r="0.50044" /><circle cx="649.32155" cy="161.85796" fill="black" r="0.50044" /><circle cx="391.17755" cy="496.24353" fill="black" r="0.50044" /><circle cx="582.89853" cy="247.8987" fill="black" r="0.50044" /><circle cx="102.08646" cy="870.71626" fill="black" r="0.50044" /><circle cx="707.44169" cy="86.57233" fill="black" r="0.50044" /><circle cx="106.6153" cy="864.84985" fill="black" r="0.50044" /><circle cx="552.70625" cy="287.00812" fill="black" r="0.50044" /><circle cx="574.59565" cy="258.65379" fill="black" r="0.50044" /><circle cx="211.53347" cy="728.9446" fill="black" r="0.50044" /><circle cx="525.5332" cy="322.2066" fill="black" r="0.50044" /><circle cx="239.46133" cy="692.76838" fill="black" r="0.50044" /><circle cx="123.22105" cy="843.33966" fill="black" r="0.50044" /><circle cx="596.48506" cy="230.29946" fill="black" r="0.50044" /><circle cx="353.43719" cy="545.13031" fill="black" r="0.50044" /><circle cx="637.24463" cy="177.50173" fill="black" r="0.50044" /><circle cx="50.75958" cy="937.20228" fill="black" r="0.50044" /><circle cx="138.31719" cy="823.78495" fill="black" r="0.50044" /><circle cx="570.06681" cy="264.5202" fill="black" r="0.50044" /><circle cx="757.25895" cy="22.04178" fill="black" r="0.50044" /><circle cx="280.22091" cy="639.97066" fill="black" r="0.50044" /><circle cx="307.39397" cy="604.77218" fill="black" r="0.50044" /><circle cx="262.86035" cy="662.45858" fill="black" r="0.50044" /><circle cx="148.88449" cy="810.09665" fill="black" r="0.50044" /><circle cx="358.72084" cy="538.28616" fill="black" r="0.50044" /><circle cx="318.71607" cy="590.10615" fill="black" r="0.50044" /><circle cx="549.68702" cy="290.91906" fill="black" r="0.50044" /><circle cx="447.03326" cy="423.8911" fill="black" r="0.50044" /><circle cx="655.36" cy="154.03608" fill="black" r="0.50044" /><circle cx="661.39846" cy="146.2142" fill="black" r="0.50044" /><circle cx="572.33123" cy="261.58699" fill="black" r="0.50044" /><circle cx="685.55228" cy="114.92666" fill="black" r="0.50044" /><circle cx="342.8699" cy="558.81861" fill="black" r="0.50044" /><circle cx="379.10063" cy="511.8873" fill="black" r="0.50044" /><circle cx="576.10527" cy="256.69832" fill="black" r="0.50044" /><circle cx="668.94653" cy="136.43684" fill="black" r="0.50044" /><circle cx="86.99032" cy="890.27097" fill="black" r="0.50044" /><circle cx="323.24491" cy="584.23973" fill="black" r="0.50044" /><circle cx="297.58147" cy="617.48274" fill="black" r="0.50044" /><circle cx="333.81221" cy="570.55144" fill="black" r="0.50044" /><circle cx="539.87453" cy="303.62962" fill="black" r="0.50044" /><circle cx="249.27383" cy="680.05782" fill="black" r="0.50044" /><circle cx="691.59074" cy="107.10477" fill="black" r="0.50044" /><circle cx="512.70148" cy="338.8281" fill="black" r="0.50044" /><circle cx="474.96112" cy="387.71488" fill="black" r="0.50044" /><circle cx="508.92744" cy="343.71678" fill="black" r="0.50044" /><circle cx="721.02821" cy="68.97308" fill="black" r="0.50044" /><circle cx="149.6393" cy="809.11892" fill="black" r="0.50044" /><circle cx="187.37965" cy="760.23214" fill="black" r="0.50044" /><circle cx="692.34555" cy="106.12704" fill="black" r="0.50044" /><circle cx="319.47088" cy="589.12841" fill="black" r="0.50044" /><circle cx="49.24997" cy="939.15775" fill="black" r="0.50044" /><circle cx="253.80267" cy="674.19141" fill="black" r="0.50044" /><circle cx="202.47579" cy="740.67743" fill="black" r="0.50044" /><circle cx="728.57628" cy="59.19573" fill="black" r="0.50044" /><circle cx="336.07663" cy="567.61823" fill="black" r="0.50044" /><circle cx="553.46105" cy="286.03038" fill="black" r="0.50044" /><circle cx="557.9899" cy="280.16397" fill="black" r="0.50044" /><circle cx="111.14414" cy="858.98343" fill="black" r="0.50044" /><circle cx="377.59102" cy="513.84277" fill="black" r="0.50044" /><circle cx="758.01376" cy="21.06404" fill="black" r="0.50044" /><circle cx="501.37937" cy="353.49414" fill="black" r="0.50044" /><circle cx="133.03354" cy="830.6291" fill="black" r="0.50044" /><circle cx="626.67734" cy="191.19003" fill="black" r="0.50044" /><circle cx="463.63902" cy="402.38092" fill="black" r="0.50044" /><circle cx="756.50414" cy="23.01951" fill="black" r="0.50044" /><circle cx="234.93249" cy="698.6348" fill="black" r="0.50044" /><circle cx="360.98526" cy="535.35296" fill="black" r="0.50044" /><circle cx="170.01909" cy="782.72006" fill="black" r="0.50044" /><circle cx="554.97067" cy="284.07491" fill="black" r="0.50044" /><circle cx="35.66344" cy="956.75699" fill="black" r="0.50044" /><circle cx="663.66288" cy="143.28099" fill="black" r="0.50044" /><circle cx="302.86512" cy="610.6386" fill="black" r="0.50044" /><circle cx="416.08618" cy="463.97826" fill="black" r="0.50044" /><circle cx="142.84604" cy="817.91854" fill="black" r="0.50044" /><circle cx="622.14849" cy="197.05645" fill="black" r="0.50044" /><circle cx="194.17291" cy="751.43252" fill="black" r="0.50044" /><circle cx="25.09614" cy="970.44529" fill="black" r="0.50044" /><circle cx="546.66779" cy="294.83" fill="black" r="0.50044" /><circle cx="191.15368" cy="755.34346" fill="black" r="0.50044" /><circle cx="657.62442" cy="151.10287" fill="black" r="0.50044" /><circle cx="718.00899" cy="72.88403" fill="black" r="0.50044" /><circle cx="502.88898" cy="351.53867" fill="black" r="0.50044" /><circle cx="696.11958" cy="101.23836" fill="black" r="0.50044" /><circle cx="393.44197" cy="493.31033" fill="black" r="0.50044" /><circle cx="364.7593" cy="530.46428" fill="black" r="0.50044" /><circle cx="114.16337" cy="855.07249" fill="black" r="0.50044" /><circle cx="184.36042" cy="764.14308" fill="black" r="0.50044" /><circle cx="656.11481" cy="153.05834" fill="black" r="0.50044" /><circle cx="428.16309" cy="448.33449" fill="black" r="0.50044" /><circle cx="169.26428" cy="783.69779" fill="black" r="0.50044" /><circle cx="37.92786" cy="953.82378" fill="black" r="0.50044" /><circle cx="185.11523" cy="763.16535" fill="black" r="0.50044" /><circle cx="499.11495" cy="356.42734" fill="black" r="0.50044" /><circle cx="308.14877" cy="603.79445" fill="black" r="0.50044" /><circle cx="583.65334" cy="246.92096" fill="black" r="0.50044" /><circle cx="733.10513" cy="53.32932" fill="black" r="0.50044" /><circle cx="214.5527" cy="725.03366" fill="black" r="0.50044" /><circle cx="761.03299" cy="17.1531" fill="black" r="0.50044" /><circle cx="136.80758" cy="825.74042" fill="black" r="0.50044" /><circle cx="419.10541" cy="460.06732" fill="black" r="0.50044" /><circle cx="201.72098" cy="741.65516" fill="black" r="0.50044" /><circle cx="490.05727" cy="368.16017" fill="black" r="0.50044" /><circle cx="449.29769" cy="420.95789" fill="black" r="0.50044" /><circle cx="674.98499" cy="128.61495" fill="black" r="0.50044" /><circle cx="563.27355" cy="273.31982" fill="black" r="0.50044" /><circle cx="482.50919" cy="377.93753" fill="black" r="0.50044" /><circle cx="284.74976" cy="634.10425" fill="black" r="0.50044" /><circle cx="14.52884" cy="984.13359" fill="black" r="0.50044" /><circle cx="39.43747" cy="951.86831" fill="black" r="0.50044" /><circle cx="10.75481" cy="989.02226" fill="black" r="0.50044" /><circle cx="488.54765" cy="370.11564" fill="black" r="0.50044" /><circle cx="142.09123" cy="818.89627" fill="black" r="0.50044" /><circle cx="556.48028" cy="282.11944" fill="black" r="0.50044" /><circle cx="720.27341" cy="69.95082" fill="black" r="0.50044" /><circle cx="154.92295" cy="802.27477" fill="black" r="0.50044" /><circle cx="600.25909" cy="225.41078" fill="black" r="0.50044" /><circle cx="711.21572" cy="81.68365" fill="black" r="0.50044" /><circle cx="230.40365" cy="704.50121" fill="black" r="0.50044" /><circle cx="535.34569" cy="309.49604" fill="black" r="0.50044" /><circle cx="68.12014" cy="914.71436" fill="black" r="0.50044" /><circle cx="203.9854" cy="738.72196" fill="black" r="0.50044" /><circle cx="760.27818" cy="18.13083" fill="black" r="0.50044" /><circle cx="498.36014" cy="357.40508" fill="black" r="0.50044" /><circle cx="261.35074" cy="664.41405" fill="black" r="0.50044" /><circle cx="70.38456" cy="911.78115" fill="black" r="0.50044" /><circle cx="486.28323" cy="373.04885" fill="black" r="0.50044" /><circle cx="595.73025" cy="231.27719" fill="black" r="0.50044" /><circle cx="338.34105" cy="564.68502" fill="black" r="0.50044" /><circle cx="703.66765" cy="91.461" fill="black" r="0.50044" /><circle cx="273.42765" cy="648.77028" fill="black" r="0.50044" /><circle cx="309.65839" cy="601.83898" fill="black" r="0.50044" /><circle cx="588.93698" cy="240.07681" fill="black" r="0.50044" /><circle cx="127.7499" cy="837.47325" fill="black" r="0.50044" /><circle cx="370.79776" cy="522.64239" fill="black" r="0.50044" /><circle cx="603.27832" cy="221.49983" fill="black" r="0.50044" /><circle cx="24.34133" cy="971.42302" fill="black" r="0.50044" /><circle cx="115.67298" cy="853.11702" fill="black" r="0.50044" /><circle cx="601.7687" cy="223.45531" fill="black" r="0.50044" /><circle cx="172.28351" cy="779.78685" fill="black" r="0.50044" /><circle cx="210.77867" cy="729.92234" fill="black" r="0.50044" /><circle cx="566.29277" cy="269.40888" fill="black" r="0.50044" /><circle cx="745.18204" cy="37.68555" fill="black" r="0.50044" /><circle cx="518.73993" cy="331.00622" fill="black" r="0.50044" /><circle cx="163.98063" cy="790.54194" fill="black" r="0.50044" /><circle cx="413.82176" cy="466.91147" fill="black" r="0.50044" /><circle cx="256.8219" cy="670.28047" fill="black" r="0.50044" /><circle cx="323.99972" cy="583.262" fill="black" r="0.50044" /><circle cx="477.22555" cy="384.78168" fill="black" r="0.50044" /><circle cx="623.65811" cy="195.10097" fill="black" r="0.50044" /><circle cx="382.87467" cy="506.99862" fill="black" r="0.50044" /><circle cx="727.82148" cy="60.17346" fill="black" r="0.50044" /><circle cx="730.8407" cy="56.26252" fill="black" r="0.50044" /><circle cx="404.76407" cy="478.64429" fill="black" r="0.50044" /><circle cx="388.15832" cy="500.15447" fill="black" r="0.50044" /><circle cx="542.89376" cy="299.71868" fill="black" r="0.50044" /><circle cx="505.15341" cy="348.60546" fill="black" r="0.50044" /><circle cx="170.7739" cy="781.74232" fill="black" r="0.50044" /><circle cx="714.98976" cy="76.79497" fill="black" r="0.50044" /><circle cx="252.29305" cy="676.14688" fill="black" r="0.50044" /><circle cx="699.13881" cy="97.32742" fill="black" r="0.50044" /><circle cx="374.57179" cy="517.75372" fill="black" r="0.50044" /><circle cx="631.20618" cy="185.32362" fill="black" r="0.50044" /><circle cx="344.37951" cy="556.86314" fill="black" r="0.50044" /><circle cx="299.8459" cy="614.54954" fill="black" r="0.50044" /><circle cx="76.42302" cy="903.95927" fill="black" r="0.50044" /><circle cx="83.21628" cy="895.15965" fill="black" r="0.50044" /><circle cx="606.29755" cy="217.58889" fill="black" r="0.50044" /><circle cx="178.32197" cy="771.96497" fill="black" r="0.50044" /><circle cx="666.68211" cy="139.37005" fill="black" r="0.50044" /><circle cx="425.89867" cy="451.2677" fill="black" r="0.50044" /><circle cx="316.45165" cy="593.03935" fill="black" r="0.50044" /><circle cx="378.34583" cy="512.86504" fill="black" r="0.50044" /><circle cx="617.61965" cy="202.92286" fill="black" r="0.50044" /><circle cx="628.18695" cy="189.23456" fill="black" r="0.50044" /><circle cx="145.11046" cy="814.98533" fill="black" r="0.50044" /><circle cx="222.85558" cy="714.27857" fill="black" r="0.50044" /><circle cx="457.60056" cy="410.2028" fill="black" r="0.50044" /><circle cx="104.35088" cy="867.78305" fill="black" r="0.50044" /><circle cx="669.70134" cy="135.4591" fill="black" r="0.50044" /><circle cx="234.17769" cy="699.61253" fill="black" r="0.50044" /><circle cx="151.14891" cy="807.16345" fill="black" r="0.50044" /><circle cx="676.4946" cy="126.65948" fill="black" r="0.50044" /><circle cx="748.20127" cy="33.7746" fill="black" r="0.50044" /><circle cx="396.46119" cy="489.39938" fill="black" r="0.50044" /><circle cx="243.99018" cy="686.90197" fill="black" r="0.50044" /><circle cx="615.35523" cy="205.85607" fill="black" r="0.50044" /><circle cx="123.97586" cy="842.36193" fill="black" r="0.50044" /><circle cx="308.90358" cy="602.81671" fill="black" r="0.50044" /><circle cx="179.07677" cy="770.98723" fill="black" r="0.50044" /><circle cx="215.30751" cy="724.05592" fill="black" r="0.50044" /><circle cx="561.00913" cy="276.25303" fill="black" r="0.50044" /><circle cx="608.56197" cy="214.65569" fill="black" r="0.50044" /><circle cx="271.16323" cy="651.70349" fill="black" r="0.50044" /><circle cx="599.50428" cy="226.38851" fill="black" r="0.50044" /><circle cx="631.96099" cy="184.34588" fill="black" r="0.50044" /><circle cx="407.7833" cy="474.73335" fill="black" r="0.50044" /><circle cx="198.70176" cy="745.56611" fill="black" r="0.50044" /><circle cx="300.6007" cy="613.5718" fill="black" r="0.50044" /><circle cx="280.97572" cy="638.99293" fill="black" r="0.50044" /><circle cx="644.0379" cy="168.70211" fill="black" r="0.50044" /><circle cx="507.41783" cy="345.67225" fill="black" r="0.50044" /><circle cx="296.07186" cy="619.43822" fill="black" r="0.50044" /><circle cx="147.37488" cy="812.05212" fill="black" r="0.50044" /><circle cx="656.86962" cy="152.08061" fill="black" r="0.50044" /><circle cx="238.70653" cy="693.74612" fill="black" r="0.50044" /><circle cx="360.23046" cy="536.33069" fill="black" r="0.50044" /><circle cx="117.1826" cy="851.16155" fill="black" r="0.50044" /><circle cx="376.08141" cy="515.79824" fill="black" r="0.50044" /><circle cx="366.26891" cy="528.50881" fill="black" r="0.50044" /><circle cx="514.9659" cy="335.8949" fill="black" r="0.50044" /><circle cx="467.41305" cy="397.49224" fill="black" r="0.50044" /><circle cx="536.10049" cy="308.5183" fill="black" r="0.50044" /><circle cx="478.73516" cy="382.82621" fill="black" r="0.50044" /><circle cx="589.69179" cy="239.09908" fill="black" r="0.50044" /><circle cx="618.37446" cy="201.94512" fill="black" r="0.50044" /><circle cx="346.64393" cy="553.92993" fill="black" r="0.50044" /><circle cx="327.01895" cy="579.35106" fill="black" r="0.50044" /><circle cx="84.7259" cy="893.20418" fill="black" r="0.50044" /><circle cx="312.67762" cy="597.92803" fill="black" r="0.50044" /><circle cx="340.60548" cy="561.75182" fill="black" r="0.50044" /><circle cx="736.12435" cy="49.41837" fill="black" r="0.50044" /><circle cx="545.91298" cy="295.80774" fill="black" r="0.50044" /><circle cx="177.56716" cy="772.9427" fill="black" r="0.50044" /><circle cx="372.30737" cy="520.68692" fill="black" r="0.50044" /><circle cx="437.22077" cy="436.60166" fill="black" r="0.50044" /><circle cx="607.05235" cy="216.61116" fill="black" r="0.50044" /><circle cx="322.49011" cy="585.21747" fill="black" r="0.50044" /><circle cx="401.74484" cy="482.55523" fill="black" r="0.50044" /><circle cx="59.81726" cy="925.46945" fill="black" r="0.50044" /><circle cx="613.84562" cy="207.81154" fill="black" r="0.50044" /><circle cx="357.21123" cy="540.24163" fill="black" r="0.50044" /><circle cx="31.1346" cy="962.6234" fill="black" r="0.50044" /><circle cx="286.25937" cy="632.14878" fill="black" r="0.50044" /><circle cx="483.264" cy="376.95979" fill="black" r="0.50044" /><circle cx="484.77362" cy="375.00432" fill="black" r="0.50044" /><circle cx="182.096" cy="767.07629" fill="black" r="0.50044" /><circle cx="414.57656" cy="465.93373" fill="black" r="0.50044" /><circle cx="471.9419" cy="391.62583" fill="black" r="0.50044" /><circle cx="544.40337" cy="297.76321" fill="black" r="0.50044" /><circle cx="349.66316" cy="550.01899" fill="black" r="0.50044" /><circle cx="554.21586" cy="285.05265" fill="black" r="0.50044" /><circle cx="119.44702" cy="848.22834" fill="black" r="0.50044" /><circle cx="74.9134" cy="905.91474" fill="black" r="0.50044" /><circle cx="85.4807" cy="892.22644" fill="black" r="0.50044" /><circle cx="468.16786" cy="396.5145" fill="black" r="0.50044" /><circle cx="151.90372" cy="806.18571" fill="black" r="0.50044" /><circle cx="601.0139" cy="224.43304" fill="black" r="0.50044" /><circle cx="337.58625" cy="565.66276" fill="black" r="0.50044" /><circle cx="74.1586" cy="906.89248" fill="black" r="0.50044" /><circle cx="108.12491" cy="862.89437" fill="black" r="0.50044" /><circle cx="140.58161" cy="820.85174" fill="black" r="0.50044" /><circle cx="229.64884" cy="705.47895" fill="black" r="0.50044" /><circle cx="122.46625" cy="844.3174" fill="black" r="0.50044" /><circle cx="180.58639" cy="769.03176" fill="black" r="0.50044" /><circle cx="274.93726" cy="646.81481" fill="black" r="0.50044" /><circle cx="274.18246" cy="647.79255" fill="black" r="0.50044" /><circle cx="216.06232" cy="723.07819" fill="black" r="0.50044" /><circle cx="265.87958" cy="658.54764" fill="black" r="0.50044" /><circle cx="236.44211" cy="696.67933" fill="black" r="0.50044" /><circle cx="90.00954" cy="886.36003" fill="black" r="0.50044" /><circle cx="394.19677" cy="492.33259" fill="black" r="0.50044" /><circle cx="733.85993" cy="52.35158" fill="black" r="0.50044" /><circle cx="302.11032" cy="611.61633" fill="black" r="0.50044" /><circle cx="445.52365" cy="425.84657" fill="black" r="0.50044" /><circle cx="579.8793" cy="251.80964" fill="black" r="0.50044" /><circle cx="764.05221" cy="13.24216" fill="black" r="0.50044" /><circle cx="113.40856" cy="856.05023" fill="black" r="0.50044" /><circle cx="303.61993" cy="609.66086" fill="black" r="0.50044" /><circle cx="468.92267" cy="395.53677" fill="black" r="0.50044" /><circle cx="57.55284" cy="928.40266" fill="black" r="0.50044" /><circle cx="648.56674" cy="162.8357" fill="black" r="0.50044" /><circle cx="474.20632" cy="388.69262" fill="black" r="0.50044" /><circle cx="311.168" cy="599.8835" fill="black" r="0.50044" /><circle cx="46.23074" cy="943.06869" fill="black" r="0.50044" /><circle cx="93.02877" cy="882.44909" fill="black" r="0.50044" /><circle cx="521.75916" cy="327.09528" fill="black" r="0.50044" /><circle cx="237.19691" cy="695.70159" fill="black" r="0.50044" /><circle cx="156.43256" cy="800.3193" fill="black" r="0.50044" /><circle cx="50.00477" cy="938.18001" fill="black" r="0.50044" /><circle cx="217.57193" cy="721.12272" fill="black" r="0.50044" /><circle cx="560.25432" cy="277.23076" fill="black" r="0.50044" /><circle cx="408.53811" cy="473.75561" fill="black" r="0.50044" /><circle cx="491.56688" cy="366.2047" fill="black" r="0.50044" /><circle cx="278.7113" cy="641.92613" fill="black" r="0.50044" /><circle cx="231.15846" cy="703.52348" fill="black" r="0.50044" /><circle cx="388.91312" cy="499.17674" fill="black" r="0.50044" /><circle cx="205.49502" cy="736.76649" fill="black" r="0.50044" /><circle cx="640.26386" cy="173.59079" fill="black" r="0.50044" /><circle cx="225.12" cy="711.34536" fill="black" r="0.50044" /><circle cx="43.96632" cy="946.0019" fill="black" r="0.50044" /><circle cx="422.87944" cy="455.17864" fill="black" r="0.50044" /><circle cx="157.94218" cy="798.36383" fill="black" r="0.50044" /><circle cx="407.02849" cy="475.71109" fill="black" r="0.50044" /><circle cx="459.86498" cy="407.26959" fill="black" r="0.50044" /><circle cx="492.32169" cy="365.22697" fill="black" r="0.50044" /><circle cx="442.50442" cy="429.75751" fill="black" r="0.50044" /><circle cx="332.3026" cy="572.50691" fill="black" r="0.50044" /><circle cx="345.13432" cy="555.8854" fill="black" r="0.50044" /><circle cx="181.34119" cy="768.05402" fill="black" r="0.50044" /><circle cx="537.61011" cy="306.56283" fill="black" r="0.50044" /><circle cx="722.53783" cy="67.01761" fill="black" r="0.50044" /><circle cx="658.37923" cy="150.12514" fill="black" r="0.50044" /><circle cx="538.36491" cy="305.58509" fill="black" r="0.50044" /><circle cx="429.6727" cy="446.37902" fill="black" r="0.50044" /><circle cx="532.32646" cy="313.40698" fill="black" r="0.50044" /><circle cx="292.29783" cy="624.32689" fill="black" r="0.50044" /><circle cx="71.13937" cy="910.80342" fill="black" r="0.50044" /><circle cx="32.64421" cy="960.66793" fill="black" r="0.50044" /><circle cx="60.57207" cy="924.49172" fill="black" r="0.50044" /><circle cx="291.54302" cy="625.30463" fill="black" r="0.50044" /><circle cx="43.21151" cy="946.97963" fill="black" r="0.50044" /><circle cx="679.51383" cy="122.74854" fill="black" r="0.50044" /><circle cx="543.64856" cy="298.74095" fill="black" r="0.50044" /><circle cx="379.85544" cy="510.90957" fill="black" r="0.50044" /><circle cx="489.30246" cy="369.13791" fill="black" r="0.50044" /><circle cx="612.336" cy="209.76701" fill="black" r="0.50044" /><circle cx="673.47537" cy="130.57043" fill="black" r="0.50044" /><circle cx="391.93235" cy="495.2658" fill="black" r="0.50044" /><circle cx="517.23032" cy="332.96169" fill="black" r="0.50044" /><circle cx="11.50961" cy="988.04453" fill="black" r="0.50044" /><circle cx="331.54779" cy="573.48464" fill="black" r="0.50044" /><circle cx="598.74948" cy="227.36625" fill="black" r="0.50044" /><circle cx="587.42737" cy="242.03228" fill="black" r="0.50044" /><circle cx="63.5913" cy="920.58077" fill="black" r="0.50044" /><circle cx="15.28365" cy="983.15585" fill="black" r="0.50044" /><circle cx="514.21109" cy="336.87263" fill="black" r="0.50044" /><circle cx="67.36533" cy="915.6921" fill="black" r="0.50044" /><circle cx="738.38877" cy="46.48517" fill="black" r="0.50044" /><circle cx="387.40351" cy="501.13221" fill="black" r="0.50044" /><circle cx="10.0" cy="990.0" fill="black" r="0.50044" /><circle cx="293.80744" cy="622.37142" fill="black" r="0.50044" /><circle cx="327.77376" cy="578.37332" fill="black" r="0.50044" /><circle cx="727.06667" cy="61.1512" fill="black" r="0.50044" /><circle cx="367.77853" cy="526.55334" fill="black" r="0.50044" /><circle cx="582.14372" cy="248.87643" fill="black" r="0.50044" /><circle cx="749.71088" cy="31.81913" fill="black" r="0.50044" /><circle cx="81.70667" cy="897.11512" fill="black" r="0.50044" /><circle cx="345.88912" cy="554.90767" fill="black" r="0.50044" /><circle cx="742.91762" cy="40.61875" fill="black" r="0.50044" /><circle cx="314.18723" cy="595.97256" fill="black" r="0.50044" /><circle cx="82.46147" cy="896.13738" fill="black" r="0.50044" /><circle cx="741.408" cy="42.57422" fill="black" r="0.50044" /><circle cx="687.8167" cy="111.99345" fill="black" r="0.50044" /><circle cx="567.80239" cy="267.45341" fill="black" r="0.50044" /><circle cx="197.19214" cy="747.52158" fill="black" r="0.50044" /><circle cx="204.74021" cy="737.74422" fill="black" r="0.50044" /><circle cx="664.41769" cy="142.30325" fill="black" r="0.50044" /><circle cx="356.45642" cy="541.21937" fill="black" r="0.50044" /><circle cx="263.61516" cy="661.48085" fill="black" r="0.50044" /><circle cx="505.90821" cy="347.62772" fill="black" r="0.50044" /><circle cx="40.19228" cy="950.89058" fill="black" r="0.50044" /><circle cx="702.91284" cy="92.43874" fill="black" r="0.50044" /><circle cx="708.9513" cy="84.61685" fill="black" r="0.50044" /><circle cx="624.41291" cy="194.12324" fill="black" r="0.50044" /><circle cx="105.86049" cy="865.82758" fill="black" r="0.50044" /><circle cx="423.63425" cy="454.2009" fill="black" r="0.50044" /><circle cx="268.89881" cy="654.6367" fill="black" r="0.50044" /><circle cx="461.3746" cy="405.31412" fill="black" r="0.50044" /><circle cx="320.22569" cy="588.15068" fill="black" r="0.50044" /><circle cx="594.22063" cy="233.23266" fill="black" r="0.50044" /><circle cx="46.98554" cy="942.09096" fill="black" r="0.50044" /><circle cx="573.84084" cy="259.63152" fill="black" r="0.50044" /><circle cx="659.88884" cy="148.16967" fill="black" r="0.50044" /><circle cx="386.6487" cy="502.10995" fill="black" r="0.50044" /><circle cx="523.26877" cy="325.13981" fill="black" r="0.50044" /><circle cx="465.90344" cy="399.44771" fill="black" r="0.50044" /><circle cx="242.48056" cy="688.85744" fill="black" r="0.50044" /><circle cx="751.22049" cy="29.86366" fill="black" r="0.50044" /><circle cx="735.36955" cy="50.39611" fill="black" r="0.50044" /><circle cx="431.18232" cy="444.42355" fill="black" r="0.50044" /><circle cx="18.30288" cy="979.24491" fill="black" r="0.50044" /><circle cx="619.88407" cy="199.98965" fill="black" r="0.50044" /><circle cx="145.86526" cy="814.0076" fill="black" r="0.50044" /><circle cx="55.28842" cy="931.33587" fill="black" r="0.50044" /><circle cx="509.68225" cy="342.73905" fill="black" r="0.50044" /><circle cx="409.29291" cy="472.77788" fill="black" r="0.50044" /><circle cx="210.02386" cy="730.90007" fill="black" r="0.50044" /><circle cx="437.97558" cy="435.62393" fill="black" r="0.50044" /><circle cx="724.04744" cy="65.06214" fill="black" r="0.50044" /><circle cx="290.78821" cy="626.28236" fill="black" r="0.50044" /><circle cx="662.90807" cy="144.25872" fill="black" r="0.50044" /><circle cx="683.28786" cy="117.85986" fill="black" r="0.50044" /><circle cx="47.74035" cy="941.11322" fill="black" r="0.50044" /><circle cx="36.41825" cy="955.77925" fill="black" r="0.50044" /><circle cx="250.78344" cy="678.10235" fill="black" r="0.50044" /><circle cx="723.29263" cy="66.03988" fill="black" r="0.50044" /><circle cx="597.23986" cy="229.32172" fill="black" r="0.50044" /><circle cx="540.62934" cy="302.65189" fill="black" r="0.50044" /><circle cx="93.78358" cy="881.47135" fill="black" r="0.50044" /><circle cx="22.83172" cy="973.3785" fill="black" r="0.50044" /><circle cx="650.83116" cy="159.90249" fill="black" r="0.50044" /><circle cx="427.40828" cy="449.31222" fill="black" r="0.50044" /><circle cx="382.11986" cy="507.97636" fill="black" r="0.50044" /><circle cx="158.69698" cy="797.38609" fill="black" r="0.50044" /><circle cx="605.54274" cy="218.56663" fill="black" r="0.50044" /><circle cx="681.02344" cy="120.79307" fill="black" r="0.50044" /><circle cx="585.91776" cy="243.98775" fill="black" r="0.50044" /><circle cx="101.33165" cy="871.69399" fill="black" r="0.50044" /><circle cx="402.49965" cy="481.5775" fill="black" r="0.50044" /><circle cx="100.57684" cy="872.67173" fill="black" r="0.50044" /><circle cx="748.95607" cy="32.79687" fill="black" r="0.50044" /><circle cx="567.04758" cy="268.43114" fill="black" r="0.50044" /><circle cx="29.62498" cy="964.57887" fill="black" r="0.50044" /><circle cx="171.5287" cy="780.76459" fill="black" r="0.50044" /><circle cx="144.35565" cy="815.96307" fill="black" r="0.50044" /><circle cx="684.79748" cy="115.90439" fill="black" r="0.50044" /><circle cx="139.072" cy="822.80722" fill="black" r="0.50044" /><circle cx="330.79298" cy="574.46238" fill="black" r="0.50044" /><circle cx="226.62961" cy="709.38989" fill="black" r="0.50044" /><circle cx="281.73053" cy="638.01519" fill="black" r="0.50044" /><circle cx="644.7927" cy="167.72438" fill="black" r="0.50044" /><circle cx="256.06709" cy="671.2582" fill="black" r="0.50044" /><circle cx="690.08113" cy="109.06024" fill="black" r="0.50044" /><circle cx="694.60997" cy="103.19383" fill="black" r="0.50044" /><circle cx="182.85081" cy="766.09855" fill="black" r="0.50044" /><circle cx="16.03846" cy="982.17812" fill="black" r="0.50044" /><circle cx="493.8313" cy="363.27149" fill="black" r="0.50044" /><circle cx="96.80281" cy="877.56041" fill="black" r="0.50044" /><circle cx="125.48547" cy="840.40646" fill="black" r="0.50044" /><circle cx="670.45614" cy="134.48137" fill="black" r="0.50044" /><circle cx="351.92758" cy="547.08578" fill="black" r="0.50044" /><circle cx="135.29797" cy="827.69589" fill="black" r="0.50044" /><circle cx="231.91326" cy="702.54574" fill="black" r="0.50044" /><circle cx="385.13909" cy="504.06542" fill="black" r="0.50044" /><circle cx="410.04772" cy="471.80014" fill="black" r="0.50044" /><circle cx="371.55256" cy="521.66466" fill="black" r="0.50044" /><circle cx="51.51439" cy="936.22454" fill="black" r="0.50044" /><circle cx="219.08154" cy="719.16724" fill="black" r="0.50044" /><circle cx="131.52393" cy="832.58457" fill="black" r="0.50044" /><circle cx="398.72562" cy="486.46618" fill="black" r="0.50044" /><circle cx="17.54807" cy="980.22264" fill="black" r="0.50044" /><circle cx="112.65375" cy="857.02796" fill="black" r="0.50044" /><circle cx="716.49937" cy="74.8395" fill="black" r="0.50044" /><circle cx="199.45656" cy="744.58837" fill="black" r="0.50044" /><circle cx="642.52828" cy="170.65758" fill="black" r="0.50044" /><circle cx="524.02358" cy="324.16207" fill="black" r="0.50044" /><circle cx="59.06246" cy="926.44719" fill="black" r="0.50044" /><circle cx="373.06218" cy="519.70919" fill="black" r="0.50044" /><circle cx="143.60084" cy="816.9408" fill="black" r="0.50044" /><circle cx="34.15382" cy="958.71246" fill="black" r="0.50044" /><circle cx="758.76856" cy="20.08631" fill="black" r="0.50044" /><circle cx="54.53361" cy="932.3136" fill="black" r="0.50044" /><circle cx="56.79804" cy="929.38039" fill="black" r="0.50044" /><circle cx="562.51874" cy="274.29756" fill="black" r="0.50044" /><circle cx="208.51425" cy="732.85554" fill="black" r="0.50044" /><circle cx="235.6873" cy="697.65706" fill="black" r="0.50044" /><circle cx="98.31242" cy="875.60494" fill="black" r="0.50044" /><circle cx="339.09586" cy="563.70729" fill="black" r="0.50044" /><circle cx="747.44646" cy="34.75234" fill="black" r="0.50044" /><circle cx="435.71116" cy="438.55713" fill="black" r="0.50044" /><circle cx="493.07649" cy="364.24923" fill="black" r="0.50044" /><circle cx="95.29319" cy="879.51588" fill="black" r="0.50044" /><circle cx="105.10568" cy="866.80532" fill="black" r="0.50044" /><circle cx="419.86021" cy="459.08958" fill="black" r="0.50044" /><circle cx="335.32183" cy="568.59597" fill="black" r="0.50044" /><circle cx="33.39902" cy="959.6902" fill="black" r="0.50044" /><circle cx="196.43733" cy="748.49931" fill="black" r="0.50044" /><circle cx="444.76884" cy="426.82431" fill="black" r="0.50044" /><circle cx="241.72576" cy="689.83518" fill="black" r="0.50044" /><circle cx="320.98049" cy="587.17294" fill="black" r="0.50044" /><circle cx="725.55706" cy="63.10667" fill="black" r="0.50044" /><circle cx="524.77839" cy="323.18434" fill="black" r="0.50044" /><circle cx="650.07635" cy="160.88023" fill="black" r="0.50044" /><circle cx="26.60575" cy="968.48982" fill="black" r="0.50044" /><circle cx="744.42723" cy="38.66328" fill="black" r="0.50044" /><circle cx="632.71579" cy="183.36815" fill="black" r="0.50044" /><circle cx="705.93207" cy="88.5278" fill="black" r="0.50044" /><circle cx="441.74962" cy="430.73525" fill="black" r="0.50044" /><circle cx="568.5572" cy="266.47567" fill="black" r="0.50044" /><circle cx="604.78793" cy="219.54436" fill="black" r="0.50044" /><circle cx="224.36519" cy="712.3231" fill="black" r="0.50044" /><circle cx="671.96576" cy="132.5259" fill="black" r="0.50044" /><circle cx="508.17263" cy="344.69452" fill="black" r="0.50044" /><circle cx="759.52337" cy="19.10857" fill="black" r="0.50044" /><circle cx="471.18709" cy="392.60356" fill="black" r="0.50044" /><circle cx="124.73067" cy="841.38419" fill="black" r="0.50044" /><circle cx="160.9614" cy="794.45288" fill="black" r="0.50044" /><circle cx="447.78807" cy="422.91336" fill="black" r="0.50044" /><circle cx="697.6292" cy="99.28289" fill="black" r="0.50044" /><circle cx="110.38933" cy="859.96117" fill="black" r="0.50044" /><circle cx="561.76393" cy="275.27529" fill="black" r="0.50044" /><circle cx="610.07158" cy="212.70021" fill="black" r="0.50044" /><circle cx="448.54288" cy="421.93563" fill="black" r="0.50044" /><circle cx="357.96604" cy="539.2639" fill="black" r="0.50044" /><circle cx="222.10077" cy="715.2563" fill="black" r="0.50044" /><circle cx="527.04281" cy="320.25113" fill="black" r="0.50044" /><circle cx="665.9273" cy="140.34778" fill="black" r="0.50044" /><circle cx="459.11018" cy="408.24733" fill="black" r="0.50044" /><circle cx="607.80716" cy="215.63342" fill="black" r="0.50044" /><circle cx="253.04786" cy="675.16914" fill="black" r="0.50044" /><circle cx="698.384" cy="98.30515" fill="black" r="0.50044" /><circle cx="610.82639" cy="211.72248" fill="black" r="0.50044" /><circle cx="19.05768" cy="978.26717" fill="black" r="0.50044" /><circle cx="516.47551" cy="333.93943" fill="black" r="0.50044" /><circle cx="44.72112" cy="945.02416" fill="black" r="0.50044" /><circle cx="726.31186" cy="62.12894" fill="black" r="0.50044" /><circle cx="487.03804" cy="372.07111" fill="black" r="0.50044" /><circle cx="293.05263" cy="623.34916" fill="black" r="0.50044" /><circle cx="534.59088" cy="310.47377" fill="black" r="0.50044" /><circle cx="479.48997" cy="381.84847" fill="black" r="0.50044" /><circle cx="336.83144" cy="566.64049" fill="black" r="0.50044" /><circle cx="411.55733" cy="469.84467" fill="black" r="0.50044" /><circle cx="693.85516" cy="104.17157" fill="black" r="0.50044" /><circle cx="92.27397" cy="883.42682" fill="black" r="0.50044" /><circle cx="551.95144" cy="287.98585" fill="black" r="0.50044" /><circle cx="72.64898" cy="908.84795" fill="black" r="0.50044" /><circle cx="604.03313" cy="220.5221" fill="black" r="0.50044" /><circle cx="28.11537" cy="966.53435" fill="black" r="0.50044" /><circle cx="368.53333" cy="525.5756" fill="black" r="0.50044" /><circle cx="625.92253" cy="192.16777" fill="black" r="0.50044" /><circle cx="456.84576" cy="411.18054" fill="black" r="0.50044" /><circle cx="706.68688" cy="87.55006" fill="black" r="0.50044" /><circle cx="176.05754" cy="774.89817" fill="black" r="0.50044" /><circle cx="71.89418" cy="909.82568" fill="black" r="0.50044" /><circle cx="288.52379" cy="629.21557" fill="black" r="0.50044" /><circle cx="209.26905" cy="731.87781" fill="black" r="0.50044" /><circle cx="207.75944" cy="733.83328" fill="black" r="0.50044" /><circle cx="41.70189" cy="948.93511" fill="black" r="0.50044" /><circle cx="220.59116" cy="717.21177" fill="black" r="0.50044" /><circle cx="392.68716" cy="494.28806" fill="black" r="0.50044" /><circle cx="746.69165" cy="35.73007" fill="black" r="0.50044" /><circle cx="634.22541" cy="181.41268" fill="black" r="0.50044" /><circle cx="579.12449" cy="252.78737" fill="black" r="0.50044" /><circle cx="78.68744" cy="901.02606" fill="black" r="0.50044" /><circle cx="494.58611" cy="362.29376" fill="black" r="0.50044" /><circle cx="763.29741" cy="14.21989" fill="black" r="0.50044" /><circle cx="283.24014" cy="636.05972" fill="black" r="0.50044" /><circle cx="134.54316" cy="828.67363" fill="black" r="0.50044" /><circle cx="636.48983" cy="178.47947" fill="black" r="0.50044" /><circle cx="719.5186" cy="70.92856" fill="black" r="0.50044" /><circle cx="164.73544" cy="789.56421" fill="black" r="0.50044" /><circle cx="240.97095" cy="690.81291" fill="black" r="0.50044" /><circle cx="678.00421" cy="124.70401" fill="black" r="0.50044" /><circle cx="700.64842" cy="95.37195" fill="black" r="0.50044" /><circle cx="641.01867" cy="172.61306" fill="black" r="0.50044" /><circle cx="34.90863" cy="957.73473" fill="black" r="0.50044" /><circle cx="641.77348" cy="171.63532" fill="black" r="0.50044" /><circle cx="174.54793" cy="776.85364" fill="black" r="0.50044" /><circle cx="576.86007" cy="255.72058" fill="black" r="0.50044" /><circle cx="400.99004" cy="483.53297" fill="black" r="0.50044" /><circle cx="75.66821" cy="904.937" fill="black" r="0.50044" /><circle cx="734.61474" cy="51.37384" fill="black" r="0.50044" /><circle cx="53.77881" cy="933.29134" fill="black" r="0.50044" /><circle cx="305.88435" cy="606.72765" fill="black" r="0.50044" /><circle cx="30.37979" cy="963.60114" fill="black" r="0.50044" /><circle cx="428.9179" cy="447.35675" fill="black" r="0.50044" /><circle cx="304.37474" cy="608.68312" fill="black" r="0.50044" /><circle cx="40.94709" cy="949.91284" fill="black" r="0.50044" /><circle cx="714.23495" cy="77.7727" fill="black" r="0.50044" /><circle cx="157.18737" cy="799.34156" fill="black" r="0.50044" /><circle cx="646.30232" cy="165.76891" fill="black" r="0.50044" /><circle cx="592.71102" cy="235.18813" fill="black" r="0.50044" /><circle cx="90.76435" cy="885.38229" fill="black" r="0.50044" /><circle cx="629.69656" cy="187.27909" fill="black" r="0.50044" /><circle cx="270.40842" cy="652.68123" fill="black" r="0.50044" /><circle cx="313.43242" cy="596.9503" fill="black" r="0.50044" /><circle cx="117.9374" cy="850.18381" fill="black" r="0.50044" /><circle cx="745.93685" cy="36.70781" fill="black" r="0.50044" /><circle cx="126.99509" cy="838.45099" fill="black" r="0.50044" /><circle cx="527.79762" cy="319.27339" fill="black" r="0.50044" /><circle cx="165.49025" cy="788.58647" fill="black" r="0.50044" /><circle cx="91.51916" cy="884.40456" fill="black" r="0.50044" /><circle cx="259.08632" cy="667.34726" fill="black" r="0.50044" /><circle cx="395.70639" cy="490.37712" fill="black" r="0.50044" /><circle cx="188.13446" cy="759.2544" fill="black" r="0.50044" /><circle cx="359.47565" cy="537.30843" fill="black" r="0.50044" /><circle cx="593.46583" cy="234.2104" fill="black" r="0.50044" /><circle cx="424.38905" cy="453.22317" fill="black" r="0.50044" /><circle cx="737.63397" cy="47.4629" fill="black" r="0.50044" /><circle cx="269.65362" cy="653.65896" fill="black" r="0.50044" /><circle cx="682.53306" cy="118.8376" fill="black" r="0.50044" /><circle cx="321.7353" cy="586.19521" fill="black" r="0.50044" /><circle cx="702.15804" cy="93.41647" fill="black" r="0.50044" /><circle cx="752.73011" cy="27.90819" fill="black" r="0.50044" /><circle cx="27.36056" cy="967.51208" fill="black" r="0.50044" /><circle cx="79.44225" cy="900.04833" fill="black" r="0.50044" /><circle cx="458.35537" cy="409.22507" fill="black" r="0.50044" /><circle cx="754.23972" cy="25.95272" fill="black" r="0.50044" /><circle cx="305.12955" cy="607.70539" fill="black" r="0.50044" /><circle cx="294.56225" cy="621.39369" fill="black" r="0.50044" /><circle cx="690.83593" cy="108.08251" fill="black" r="0.50044" /><circle cx="397.97081" cy="487.44391" fill="black" r="0.50044" /><circle cx="339.85067" cy="562.72955" fill="black" r="0.50044" /><circle cx="348.15355" cy="551.97446" fill="black" r="0.50044" /><circle cx="329.28337" cy="576.41785" fill="black" r="0.50044" /><circle cx="251.53825" cy="677.12461" fill="black" r="0.50044" /><circle cx="62.08168" cy="922.53625" fill="black" r="0.50044" /><circle cx="422.12463" cy="456.15637" fill="black" r="0.50044" /><circle cx="464.39383" cy="401.40318" fill="black" r="0.50044" /><circle cx="742.16281" cy="41.59649" fill="black" r="0.50044" /><circle cx="373.81698" cy="518.73145" fill="black" r="0.50044" /><circle cx="185.87004" cy="762.18761" fill="black" r="0.50044" /><circle cx="328.52856" cy="577.39559" fill="black" r="0.50044" /><circle cx="687.0619" cy="112.97119" fill="black" r="0.50044" /><circle cx="25.85095" cy="969.46755" fill="black" r="0.50044" /><circle cx="681.77825" cy="119.81533" fill="black" r="0.50044" /><circle cx="627.43214" cy="190.2123" fill="black" r="0.50044" /><circle cx="616.86484" cy="203.90059" fill="black" r="0.50044" /><circle cx="389.66793" cy="498.199" fill="black" r="0.50044" /><circle cx="136.05277" cy="826.71816" fill="black" r="0.50044" /><circle cx="672.72056" cy="131.54816" fill="black" r="0.50044" /><circle cx="160.2066" cy="795.43062" fill="black" r="0.50044" /><circle cx="503.64379" cy="350.56093" fill="black" r="0.50044" /><circle cx="704.42246" cy="90.48327" fill="black" r="0.50044" /><circle cx="581.38891" cy="249.85417" fill="black" r="0.50044" /><circle cx="453.07172" cy="416.06922" fill="black" r="0.50044" /><circle cx="466.65825" cy="398.46997" fill="black" r="0.50044" /><circle cx="250.02863" cy="679.08009" fill="black" r="0.50044" /><circle cx="213.7979" cy="726.01139" fill="black" r="0.50044" /><circle cx="268.144" cy="655.61443" fill="black" r="0.50044" /><circle cx="354.192" cy="544.15258" fill="black" r="0.50044" /><circle cx="622.9033" cy="196.07871" fill="black" r="0.50044" /><circle cx="440.24" cy="432.69072" fill="black" r="0.50044" /><circle cx="103.59607" cy="868.76079" fill="black" r="0.50044" /><circle cx="433.44674" cy="441.49034" fill="black" r="0.50044" /><circle cx="620.63888" cy="199.01192" fill="black" r="0.50044" /><circle cx="137.56239" cy="824.76269" fill="black" r="0.50044" /><circle cx="37.17305" cy="954.80152" fill="black" r="0.50044" /><circle cx="272.67284" cy="649.74802" fill="black" r="0.50044" /><circle cx="86.23551" cy="891.24871" fill="black" r="0.50044" /><circle cx="541.38414" cy="301.67415" fill="black" r="0.50044" /><circle cx="436.46597" cy="437.5794" fill="black" r="0.50044" /><circle cx="400.23523" cy="484.51071" fill="black" r="0.50044" /><circle cx="647.05713" cy="164.79117" fill="black" r="0.50044" /><circle cx="167.75467" cy="785.65326" fill="black" r="0.50044" /><circle cx="298.33628" cy="616.50501" fill="black" r="0.50044" /><circle cx="558.7447" cy="279.18623" fill="black" r="0.50044" /><circle cx="665.17249" cy="141.32552" fill="black" r="0.50044" /><circle cx="564.02835" cy="272.34209" fill="black" r="0.50044" /><circle cx="150.39411" cy="808.14118" fill="black" r="0.50044" /><circle cx="736.87916" cy="48.44064" fill="black" r="0.50044" /><circle cx="671.21095" cy="133.50363" fill="black" r="0.50044" /><circle cx="397.216" cy="488.42165" fill="black" r="0.50044" /><circle cx="504.3986" cy="349.5832" fill="black" r="0.50044" /><circle cx="594.97544" cy="232.25493" fill="black" r="0.50044" /><circle cx="363.24969" cy="532.41975" fill="black" r="0.50044" /><circle cx="575.35046" cy="257.67605" fill="black" r="0.50044" /><circle cx="660.64365" cy="147.19193" fill="black" r="0.50044" /><circle cx="645.54751" cy="166.74664" fill="black" r="0.50044" /><circle cx="99.06723" cy="874.6272" fill="black" r="0.50044" /><circle cx="369.28814" cy="524.59786" fill="black" r="0.50044" /><circle cx="619.12927" cy="200.96739" fill="black" r="0.50044" /><circle cx="130.01432" cy="834.54004" fill="black" r="0.50044" /><circle cx="116.42779" cy="852.13928" fill="black" r="0.50044" /><circle cx="528.55242" cy="318.29566" fill="black" r="0.50044" /><circle cx="455.33614" cy="413.13601" fill="black" r="0.50044" /><circle cx="470.43228" cy="393.5813" fill="black" r="0.50044" /><circle cx="542.13895" cy="300.69642" fill="black" r="0.50044" /><circle cx="283.99495" cy="635.08198" fill="black" r="0.50044" /><circle cx="141.33642" cy="819.87401" fill="black" r="0.50044" /><circle cx="128.5047" cy="836.49551" fill="black" r="0.50044" /><circle cx="347.39874" cy="552.9522" fill="black" r="0.50044" /><circle cx="77.17782" cy="902.98153" fill="black" r="0.50044" /><circle cx="132.27874" cy="831.60684" fill="black" r="0.50044" /><circle cx="634.98021" cy="180.43494" fill="black" r="0.50044" /><circle cx="212.28828" cy="727.96686" fill="black" r="0.50044" /><circle cx="275.69207" cy="645.83708" fill="black" r="0.50044" /><circle cx="96.048" cy="878.53814" fill="black" r="0.50044" /><circle cx="708.19649" cy="85.59459" fill="black" r="0.50044" /><circle cx="709.70611" cy="83.63912" fill="black" r="0.50044" /><circle cx="487.79284" cy="371.09338" fill="black" r="0.50044" /><circle cx="276.44688" cy="644.85934" fill="black" r="0.50044" /><circle cx="502.13418" cy="352.5164" fill="black" r="0.50044" /><circle cx="13.01923" cy="986.08906" fill="black" r="0.50044" /><circle cx="255.31228" cy="672.23594" fill="black" r="0.50044" /><circle cx="586.67256" cy="243.01002" fill="black" r="0.50044" /><circle cx="425.14386" cy="452.24543" fill="black" r="0.50044" /><circle cx="613.09081" cy="208.78927" fill="black" r="0.50044" /><circle cx="653.85039" cy="155.99155" fill="black" r="0.50044" /><circle cx="675.73979" cy="127.63722" fill="black" r="0.50044" /><circle cx="120.20183" cy="847.25061" fill="black" r="0.50044" /><circle cx="317.20646" cy="592.06162" fill="black" r="0.50044" /><circle cx="394.95158" cy="491.35485" fill="black" r="0.50044" /><circle cx="289.2786" cy="628.23784" fill="black" r="0.50044" /><circle cx="430.42751" cy="445.40128" fill="black" r="0.50044" /><circle cx="155.67775" cy="801.29703" fill="black" r="0.50044" /><circle cx="616.11004" cy="204.87833" fill="black" r="0.50044" /><circle cx="225.87481" cy="710.36762" fill="black" r="0.50044" /><circle cx="314.94204" cy="594.99483" fill="black" r="0.50044" /><circle cx="365.51411" cy="529.48654" fill="black" r="0.50044" /><circle cx="701.40323" cy="94.39421" fill="black" r="0.50044" /><circle cx="496.09572" cy="360.33829" fill="black" r="0.50044" /><circle cx="729.33109" cy="58.21799" fill="black" r="0.50044" /><circle cx="207.00463" cy="734.81101" fill="black" r="0.50044" /><circle cx="743.67242" cy="39.64102" fill="black" r="0.50044" /><circle cx="718.76379" cy="71.90629" fill="black" r="0.50044" /><circle cx="28.87018" cy="965.55661" fill="black" r="0.50044" /><circle cx="266.63439" cy="657.5699" fill="black" r="0.50044" /><circle cx="191.90849" cy="754.36573" fill="black" r="0.50044" /><circle cx="245.49979" cy="684.9465" fill="black" r="0.50044" /><circle cx="696.87439" cy="100.26062" fill="black" r="0.50044" /><circle cx="499.86976" cy="355.44961" fill="black" r="0.50044" /><circle cx="257.5767" cy="669.30273" fill="black" r="0.50044" /><circle cx="638.75425" cy="175.54626" fill="black" r="0.50044" /><circle cx="545.15818" cy="296.78547" fill="black" r="0.50044" /><circle cx="740.6532" cy="43.55196" fill="black" r="0.50044" /><circle cx="243.23537" cy="687.87971" fill="black" r="0.50044" /><circle cx="383.62948" cy="506.02089" fill="black" r="0.50044" /><circle cx="633.4706" cy="182.39041" fill="black" r="0.50044" /><circle cx="12.26442" cy="987.06679" fill="black" r="0.50044" /><circle cx="635.73502" cy="179.45721" fill="black" r="0.50044" /><circle cx="197.94695" cy="746.54384" fill="black" r="0.50044" /><circle cx="227.38442" cy="708.41215" fill="black" r="0.50044" /><circle cx="154.16814" cy="803.2525" fill="black" r="0.50044" /><circle cx="580.63411" cy="250.8319" fill="black" r="0.50044" /><circle cx="555.72548" cy="283.09718" fill="black" r="0.50044" /><circle cx="69.62975" cy="912.75889" fill="black" r="0.50044" /><circle cx="570.82162" cy="263.54246" fill="black" r="0.50044" /><circle cx="175.30274" cy="775.87591" fill="black" r="0.50044" /><circle cx="751.9753" cy="28.88593" fill="black" r="0.50044" /><circle cx="153.41333" cy="804.23024" fill="black" r="0.50044" /><circle cx="247.0094" cy="682.99103" fill="black" r="0.50044" /><circle cx="390.42274" cy="497.22127" fill="black" r="0.50044" /><circle cx="434.95635" cy="439.53487" fill="black" r="0.50044" /><circle cx="517.98512" cy="331.98396" fill="black" r="0.50044" /><circle cx="557.23509" cy="281.14171" fill="black" r="0.50044" /><circle cx="539.11972" cy="304.60736" fill="black" r="0.50044" /><circle cx="129.25951" cy="835.51778" fill="black" r="0.50044" /><circle cx="677.24941" cy="125.68175" fill="black" r="0.50044" /><circle cx="23.58653" cy="972.40076" fill="black" r="0.50044" /><circle cx="614.60042" cy="206.8338" fill="black" r="0.50044" /><circle cx="484.01881" cy="375.98206" fill="black" r="0.50044" /><circle cx="277.95649" cy="642.90387" fill="black" r="0.50044" /><circle cx="200.96618" cy="742.6329" fill="black" r="0.50044" /><circle cx="684.04267" cy="116.88213" fill="black" r="0.50044" /><circle cx="111.89895" cy="858.0057" fill="black" r="0.50044" /><circle cx="341.36028" cy="560.77408" fill="black" r="0.50044" /><circle cx="52.26919" cy="935.24681" fill="black" r="0.50044" /><circle cx="16.79326" cy="981.20038" fill="black" r="0.50044" /><circle cx="195.68253" cy="749.47705" fill="black" r="0.50044" /><circle cx="651.58597" cy="158.92476" fill="black" r="0.50044" /><circle cx="375.3266" cy="516.77598" fill="black" r="0.50044" /><circle cx="287.76898" cy="630.19331" fill="black" r="0.50044" /><circle cx="296.82667" cy="618.46048" fill="black" r="0.50044" /><circle cx="107.37011" cy="863.87211" fill="black" r="0.50044" /><circle cx="522.51397" cy="326.11754" fill="black" r="0.50044" /><circle cx="404.00926" cy="479.62203" fill="black" r="0.50044" /><circle cx="325.50933" cy="581.30653" fill="black" r="0.50044" /><circle cx="20.5673" cy="976.3117" fill="black" r="0.50044" /><circle cx="443.25923" cy="428.77978" fill="black" r="0.50044" /><circle cx="290.0334" cy="627.2601" fill="black" r="0.50044" /><circle cx="228.89404" cy="706.45668" fill="black" r="0.50044" /><circle cx="689.32632" cy="110.03798" fill="black" r="0.50044" /><circle cx="520.24955" cy="329.05075" fill="black" r="0.50044" /><circle cx="166.24505" cy="787.60874" fill="black" r="0.50044" /><circle cx="548.17741" cy="292.87453" fill="black" r="0.50044" /><circle cx="406.27369" cy="476.68882" fill="black" r="0.50044" /><circle cx="385.8939" cy="503.08768" fill="black" r="0.50044" /><circle cx="652.34077" cy="157.94702" fill="black" r="0.50044" /><circle cx="190.39888" cy="756.3212" fill="black" r="0.50044" /><circle cx="647.81193" cy="163.81344" fill="black" r="0.50044" /><circle cx="511.19186" cy="340.78358" fill="black" r="0.50044" /><circle cx="710.46092" cy="82.66138" fill="black" r="0.50044" /><circle cx="511.94667" cy="339.80584" fill="black" r="0.50044" /><circle cx="530.06204" cy="316.34019" fill="black" r="0.50044" /><circle cx="94.53839" cy="880.49362" fill="black" r="0.50044" /><circle cx="246.2546" cy="683.96876" fill="black" r="0.50044" /><circle cx="481.75439" cy="378.91526" fill="black" r="0.50044" /><circle cx="680.26863" cy="121.77081" fill="black" r="0.50044" /><circle cx="176.81235" cy="773.92044" fill="black" r="0.50044" /><circle cx="262.10554" cy="663.43632" fill="black" r="0.50044" /><circle cx="282.48533" cy="637.03746" fill="black" r="0.50044" /><circle cx="80.19705" cy="899.07059" fill="black" r="0.50044" /><circle cx="130.76912" cy="833.56231" fill="black" r="0.50044" /><circle cx="186.62484" cy="761.20987" fill="black" r="0.50044" /><circle cx="352.68239" cy="546.10805" fill="black" r="0.50044" /><circle cx="526.288" cy="321.22886" fill="black" r="0.50044" /><circle cx="53.024" cy="934.26907" fill="black" r="0.50044" /><circle cx="163.22583" cy="791.51968" fill="black" r="0.50044" /><circle cx="454.58134" cy="414.11374" fill="black" r="0.50044" /><circle cx="42.4567" cy="947.95737" fill="black" r="0.50044" /><circle cx="64.34611" cy="919.60304" fill="black" r="0.50044" /><circle cx="515.7207" cy="334.91716" fill="black" r="0.50044" /><circle cx="571.57642" cy="262.56473" fill="black" r="0.50044" /><circle cx="473.45151" cy="389.67035" fill="black" r="0.50044" /><circle cx="724.80225" cy="64.08441" fill="black" r="0.50044" /><circle cx="674.23018" cy="129.59269" fill="black" r="0.50044" /><circle cx="61.32688" cy="923.51398" fill="black" r="0.50044" /><circle cx="446.27846" cy="424.86884" fill="black" r="0.50044" /><circle cx="628.94176" cy="188.25683" fill="black" r="0.50044" /><circle cx="750.46569" cy="30.8414" fill="black" r="0.50044" /><circle cx="173.79312" cy="777.83138" fill="black" r="0.50044" /><circle cx="609.31677" cy="213.67795" fill="black" r="0.50044" /><circle cx="739.14358" cy="45.50743" fill="black" r="0.50044" /><circle cx="588.18218" cy="241.05455" fill="black" r="0.50044" /><circle cx="450.05249" cy="419.98016" fill="black" r="0.50044" /><circle cx="380.61025" cy="509.93183" fill="black" r="0.50044" /><circle cx="420.61502" cy="458.11185" fill="black" r="0.50044" /><circle cx="68.87495" cy="913.73662" fill="black" r="0.50044" /><circle cx="453.82653" cy="415.09148" fill="black" r="0.50044" /><circle cx="114.91818" cy="854.09475" fill="black" r="0.50044" /><circle cx="565.53797" cy="270.38661" fill="black" r="0.50044" /><circle cx="450.8073" cy="419.00242" fill="black" r="0.50044" /><circle cx="258.33151" cy="668.32499" fill="black" r="0.50044" /><circle cx="179.83158" cy="770.00949" fill="black" r="0.50044" /><circle cx="118.69221" cy="849.20608" fill="black" r="0.50044" /><circle cx="421.36983" cy="457.13411" fill="black" r="0.50044" /><circle cx="731.59551" cy="55.28479" fill="black" r="0.50044" /><circle cx="83.97109" cy="894.18191" fill="black" r="0.50044" /><circle cx="413.06695" cy="467.8892" fill="black" r="0.50044" /><circle cx="21.32211" cy="975.33397" fill="black" r="0.50044" /><circle cx="621.39369" cy="198.03418" fill="black" r="0.50044" /><circle cx="462.12941" cy="404.33639" fill="black" r="0.50044" /><circle cx="480.99958" cy="379.893" fill="black" r="0.50044" /><circle cx="584.40814" cy="245.94322" fill="black" r="0.50044" /><circle cx="206.24983" cy="735.78875" fill="black" r="0.50044" /><circle cx="548.93221" cy="291.8968" fill="black" r="0.50044" /><circle cx="192.6633" cy="753.38799" fill="black" r="0.50044" /><circle cx="510.43705" cy="341.76131" fill="black" r="0.50044" /><circle cx="452.31691" cy="417.04695" fill="black" r="0.50044" /><circle cx="426.65348" cy="450.28996" fill="black" r="0.50044" /><circle cx="643.28309" cy="169.67985" fill="black" r="0.50044" /><circle cx="591.20141" cy="237.1436" fill="black" r="0.50044" /><circle cx="695.36477" cy="102.21609" fill="black" r="0.50044" /><circle cx="58.30765" cy="927.42492" fill="black" r="0.50044" /><circle cx="367.02372" cy="527.53107" fill="black" r="0.50044" /><circle cx="693.10035" cy="105.1493" fill="black" r="0.50044" /><circle cx="456.09095" cy="412.15827" fill="black" r="0.50044" /><circle cx="506.66302" cy="346.64999" fill="black" r="0.50044" /><circle cx="139.82681" cy="821.82948" fill="black" r="0.50044" /></svg>