<?xml version="1.0" encoding="utf-8" ?>
<svg baseProfile="full" height="1000" version="1.1" width="1000" xmlns="http://www.w3.org/2000/svg" xmlns:ev="http://www.w3.org/2001/xml-events" xmlns:xlink="http://www.w3.org/1999/xlink"><defs /><line stroke="red" stroke-width="1.10028" x1="10.0" x2="10.31898" y1="95.10154" y2="98.69304" /><circle cx="806.15159" cy="26.03608" fill="black" r="0.50013" /><circle cx="487.87225" cy="54.96246" fill="black" r="0.50013" /><circle cx="155.46642" cy="84.15628" fill="black" r="0.50013" /><circle cx="163.65791" cy="83.75782" fill="black" r="0.50013" /><circle cx="844.38107" cy="22.96978" fill="black" r="0.50013" /><circle cx="36.26498" cy="94.41417" fill="black" r="0.50013" /><circle cx="263.89336" cy="74.85533" fill="black" r="0.50013" /><circle cx="324.26683" cy="69.16413" fill="black" r="0.50013" /><circle cx="779.08111" cy="28.76944" fill="black" r="0.50013" /><circle cx="976.64251" cy="11.55195" fill="black" r="0.50013" /><circle cx="690.62865" cy="36.95449" fill="black" r="0.50013" /><circle cx="299.75035" cy="71.01251" fill="black" r="0.50013" /><circle cx="239.07937" cy="77.0592" fill="black" r="0.50013" /><circle cx="727.79163" cy="32.99568" fill="black" r="0.50013" /><circle cx="76.12696" cy="91.20287" fill="black" r="0.50013" /><circle cx="172.44441" cy="82.64836" fill="black" r="0.50013" /><circle cx="429.42878" cy="60.15317" fill="black" r="0.50013" /><circle cx="787.9256" cy="28.31299" fill="black" r="0.50013" /><circle cx="623.96468" cy="42.21716" fill="black" r="0.50013" /><circle cx="495.70825" cy="54.2665" fill="black" r="0.50013" /><circle cx="894.98855" cy="18.47503" fill="black" r="0.50013" /><circle cx="181.9129" cy="81.80741" fill="black" r="0.50013" /><circle cx="960.31751" cy="13.00187" fill="black" r="0.50013" /><circle cx="243.91887" cy="75.97123" fill="black" r="0.50013" /><circle cx="383.0658" cy="64.27093" fill="black" r="0.50013" /><circle cx="755.54412" cy="30.53083" fill="black" r="0.50013" /><circle cx="603.09769" cy="44.39955" fill="black" r="0.50013" /><circle cx="247.51037" cy="75.65224" fill="black" r="0.50013" /><circle cx="444.71627" cy="58.13725" fill="black" r="0.50013" /><circle cx="713.42564" cy="34.27161" fill="black" r="0.50013" /><circle cx="306.66484" cy="71.05654" fill="black" r="0.50013" /><circle cx="188.7984" cy="81.52494" fill="black" r="0.50013" /><circle cx="57.54546" cy="93.18228" fill="black" r="0.50013" /><circle cx="986.706" cy="10.0" fill="black" r="0.50013" /><circle cx="55.91297" cy="93.32727" fill="black" r="0.50013" /><circle cx="968.74851" cy="11.59491" fill="black" r="0.50013" /><circle cx="305.03234" cy="71.20154" fill="black" r="0.50013" /><circle cx="739.24813" cy="32.30724" fill="black" r="0.50013" /><circle cx="114.00094" cy="87.83906" fill="black" r="0.50013" /><circle cx="393.4558" cy="62.68999" fill="black" r="0.50013" /><circle cx="568.51771" cy="47.79987" fill="black" r="0.50013" /><circle cx="118.54294" cy="87.10659" fill="black" r="0.50013" /><circle cx="368.64181" cy="64.89386" fill="black" r="0.50013" /><circle cx="558.33822" cy="48.04582" fill="black" r="0.50013" /><circle cx="815.97559" cy="25.49263" fill="black" r="0.50013" /><circle cx="29.76398" cy="95.32064" fill="black" r="0.50013" /><circle cx="765.36811" cy="29.98737" fill="black" r="0.50013" /><circle cx="83.96295" cy="90.50691" fill="black" r="0.50013" /><circle cx="720.31113" cy="33.98915" fill="black" r="0.50013" /><circle cx="359.85532" cy="66.00331" fill="black" r="0.50013" /><circle cx="965.83901" cy="12.18239" fill="black" r="0.50013" /><circle cx="809.44559" cy="26.0726" fill="black" r="0.50013" /><circle cx="387.9633" cy="63.83596" fill="black" r="0.50013" /><circle cx="48.07697" cy="94.02323" fill="black" r="0.50013" /><circle cx="811.73109" cy="25.86961" fill="black" r="0.50013" /><circle cx="147.63042" cy="84.85224" fill="black" r="0.50013" /><circle cx="353.62282" cy="66.22778" fill="black" r="0.50013" /><circle cx="961.92101" cy="12.53037" fill="black" r="0.50013" /><circle cx="468.93526" cy="56.64437" fill="black" r="0.50013" /><circle cx="915.88454" cy="16.61914" fill="black" r="0.50013" /><circle cx="405.26779" cy="62.29904" fill="black" r="0.50013" /><circle cx="580.21371" cy="46.10293" fill="black" r="0.50013" /><circle cx="110.73594" cy="88.12905" fill="black" r="0.50013" /><circle cx="695.85265" cy="36.49052" fill="black" r="0.50013" /><circle cx="848.65457" cy="22.9193" fill="black" r="0.50013" /><circle cx="537.44223" cy="49.90172" fill="black" r="0.50013" /><circle cx="937.76003" cy="14.67625" fill="black" r="0.50013" /><circle cx="453.23427" cy="57.70979" fill="black" r="0.50013" /><circle cx="387.6078" cy="63.53846" fill="black" r="0.50013" /><circle cx="46.08897" cy="93.87072" fill="black" r="0.50013" /><circle cx="795.0796" cy="27.34853" fill="black" r="0.50013" /><circle cx="783.6811" cy="28.68997" fill="black" r="0.50013" /><circle cx="205.12339" cy="80.07503" fill="black" r="0.50013" /><circle cx="161.96742" cy="83.24981" fill="black" r="0.50013" /><circle cx="129.04893" cy="86.83164" fill="black" r="0.50013" /><circle cx="697.10065" cy="35.72153" fill="black" r="0.50013" /><circle cx="281.79286" cy="72.60742" fill="black" r="0.50013" /><circle cx="38.57948" cy="94.53768" fill="black" r="0.50013" /><circle cx="555.45772" cy="48.95981" fill="black" r="0.50013" /><circle cx="616.48419" cy="43.21062" fill="black" r="0.50013" /><circle cx="777.74611" cy="28.55894" fill="black" r="0.50013" /><circle cx="846.31107" cy="22.46929" fill="black" r="0.50013" /><circle cx="563.26471" cy="47.93735" fill="black" r="0.50013" /><circle cx="548.57222" cy="49.24227" fill="black" r="0.50013" /><circle cx="28.45798" cy="95.43663" fill="black" r="0.50013" /><circle cx="623.31169" cy="42.27515" fill="black" r="0.50013" /><circle cx="486.21075" cy="54.78096" fill="black" r="0.50013" /><circle cx="862.63607" cy="21.01937" fill="black" r="0.50013" /><circle cx="88.83145" cy="89.74544" fill="black" r="0.50013" /><circle cx="880.59356" cy="19.42446" fill="black" r="0.50013" /><circle cx="977.622" cy="11.46495" fill="black" r="0.50013" /><circle cx="573.71271" cy="47.0094" fill="black" r="0.50013" /><circle cx="465.31476" cy="56.63685" fill="black" r="0.50013" /><circle cx="552.46122" cy="48.56779" fill="black" r="0.50013" /><circle cx="102.54445" cy="88.52751" fill="black" r="0.50013" /><circle cx="178.3504" cy="82.45289" fill="black" r="0.50013" /><circle cx="540.05423" cy="49.66973" fill="black" r="0.50013" /><circle cx="267.42686" cy="73.88334" fill="black" r="0.50013" /><circle cx="890.41755" cy="18.88101" fill="black" r="0.50013" /><circle cx="319.34034" cy="69.27261" fill="black" r="0.50013" /><circle cx="159.02892" cy="83.51079" fill="black" r="0.50013" /><circle cx="857.11457" cy="21.83884" fill="black" r="0.50013" /><circle cx="622.65869" cy="42.33315" fill="black" r="0.50013" /><circle cx="856.10607" cy="21.59934" fill="black" r="0.50013" /><circle cx="638.65718" cy="40.91223" fill="black" r="0.50013" /><circle cx="85.59545" cy="90.36192" fill="black" r="0.50013" /><circle cx="982.4905" cy="10.70348" fill="black" r="0.50013" /><circle cx="701.99815" cy="35.28655" fill="black" r="0.50013" /><circle cx="240.00088" cy="76.31921" fill="black" r="0.50013" /><circle cx="295.20835" cy="71.74499" fill="black" r="0.50013" /><circle cx="734.70613" cy="33.03972" fill="black" r="0.50013" /><circle cx="893.32705" cy="18.29353" fill="black" r="0.50013" /><circle cx="481.31325" cy="55.21593" fill="black" r="0.50013" /><circle cx="401.34979" cy="62.64702" fill="black" r="0.50013" /><circle cx="760.11512" cy="30.12485" fill="black" r="0.50013" /><circle cx="369.29481" cy="64.83586" fill="black" r="0.50013" /><circle cx="437.20678" cy="58.80421" fill="black" r="0.50013" /><circle cx="504.52374" cy="53.48355" fill="black" r="0.50013" /><circle cx="766.31861" cy="29.57388" fill="black" r="0.50013" /><circle cx="917.16154" cy="16.17665" fill="black" r="0.50013" /><circle cx="830.66808" cy="24.18771" fill="black" r="0.50013" /><circle cx="608.61919" cy="43.58008" fill="black" r="0.50013" /><circle cx="417.02178" cy="61.2551" fill="black" r="0.50013" /><circle cx="923.09653" cy="16.30768" fill="black" r="0.50013" /><circle cx="227.32538" cy="78.10314" fill="black" r="0.50013" /><circle cx="678.54815" cy="38.02743" fill="black" r="0.50013" /><circle cx="389.8933" cy="63.33547" fill="black" r="0.50013" /><circle cx="78.76795" cy="91.29739" fill="black" r="0.50013" /><circle cx="122.16343" cy="87.11411" fill="black" r="0.50013" /><circle cx="101.59394" cy="88.941" fill="black" r="0.50013" /><circle cx="508.11524" cy="53.16457" fill="black" r="0.50013" /><circle cx="478.34576" cy="55.15042" fill="black" r="0.50013" /><circle cx="749.01412" cy="31.11079" fill="black" r="0.50013" /><circle cx="670.68316" cy="38.39689" fill="black" r="0.50013" /><circle cx="698.08015" cy="35.63453" fill="black" r="0.50013" /><circle cx="574.33671" cy="46.6249" fill="black" r="0.50013" /><circle cx="980.887" cy="11.17497" fill="black" r="0.50013" /><circle cx="315.12484" cy="69.97609" fill="black" r="0.50013" /><circle cx="539.07473" cy="49.75673" fill="black" r="0.50013" /><circle cx="596.5967" cy="45.30602" fill="black" r="0.50013" /><circle cx="174.07691" cy="82.50337" fill="black" r="0.50013" /><circle cx="93.07595" cy="89.36846" fill="black" r="0.50013" /><circle cx="780.03161" cy="28.35595" fill="black" r="0.50013" /><circle cx="463.02926" cy="56.83984" fill="black" r="0.50013" /><circle cx="116.61294" cy="87.60708" fill="black" r="0.50013" /><circle cx="589.4137" cy="45.94398" fill="black" r="0.50013" /><circle cx="418.98078" cy="61.08111" fill="black" r="0.50013" /><circle cx="422.51429" cy="60.10913" fill="black" r="0.50013" /><circle cx="435.90078" cy="58.9202" fill="black" r="0.50013" /><circle cx="193.3694" cy="81.11897" fill="black" r="0.50013" /><circle cx="65.32346" cy="91.83332" fill="black" r="0.50013" /><circle cx="594.9642" cy="45.45101" fill="black" r="0.50013" /><circle cx="130.35493" cy="86.71565" fill="black" r="0.50013" /><circle cx="769.28611" cy="29.63939" fill="black" r="0.50013" /><circle cx="385.3223" cy="63.74144" fill="black" r="0.50013" /><circle cx="771.24511" cy="29.4654" fill="black" r="0.50013" /><circle cx="660.85917" cy="38.94034" fill="black" r="0.50013" /><circle cx="15.10049" cy="96.95206" fill="black" r="0.50013" /><circle cx="357.21432" cy="65.9088" fill="black" r="0.50013" /><circle cx="842.06658" cy="22.84626" fill="black" r="0.50013" /><circle cx="352.34582" cy="66.67028" fill="black" r="0.50013" /><circle cx="585.4667" cy="45.96546" fill="black" r="0.50013" /><circle cx="983.7965" cy="10.58748" fill="black" r="0.50013" /><circle cx="256.35487" cy="75.19579" fill="black" r="0.50013" /><circle cx="514.91374" cy="51.9026" fill="black" r="0.50013" /><circle cx="647.17517" cy="40.48477" fill="black" r="0.50013" /><circle cx="705.91614" cy="34.93857" fill="black" r="0.50013" /><circle cx="231.51188" cy="77.07316" fill="black" r="0.50013" /><circle cx="157.06992" cy="83.68478" fill="black" r="0.50013" /><circle cx="338.63283" cy="67.88821" fill="black" r="0.50013" /><circle cx="877.35756" cy="20.04094" fill="black" r="0.50013" /><circle cx="190.4019" cy="81.05345" fill="black" r="0.50013" /><circle cx="533.55323" cy="50.5762" fill="black" r="0.50013" /><circle cx="582.8547" cy="46.19745" fill="black" r="0.50013" /><circle cx="317.70784" cy="69.4176" fill="black" r="0.50013" /><circle cx="731.76763" cy="33.3007" fill="black" r="0.50013" /><circle cx="40.21198" cy="94.39269" fill="black" r="0.50013" /><circle cx="949.84052" cy="13.60331" fill="black" r="0.50013" /><circle cx="709.18114" cy="34.64859" fill="black" r="0.50013" /><circle cx="109.13244" cy="88.60054" fill="black" r="0.50013" /><circle cx="795.7326" cy="27.29053" fill="black" r="0.50013" /><circle cx="554.15172" cy="49.0758" fill="black" r="0.50013" /><circle cx="834.55708" cy="23.51323" fill="black" r="0.50013" /><circle cx="686.02865" cy="37.03397" fill="black" r="0.50013" /><circle cx="820.51759" cy="24.76016" fill="black" r="0.50013" /><circle cx="353.35432" cy="66.90978" fill="black" r="0.50013" /><circle cx="172.11791" cy="82.67736" fill="black" r="0.50013" /><circle cx="817.60809" cy="25.34764" fill="black" r="0.50013" /><circle cx="518.83174" cy="51.55462" fill="black" r="0.50013" /><circle cx="922.05904" cy="15.74167" fill="black" r="0.50013" /><circle cx="259.59087" cy="74.5793" fill="black" r="0.50013" /><circle cx="522.42324" cy="51.23564" fill="black" r="0.50013" /><circle cx="161.04591" cy="83.9898" fill="black" r="0.50013" /><circle cx="208.71489" cy="79.75605" fill="black" r="0.50013" /><circle cx="967.11601" cy="11.7399" fill="black" r="0.50013" /><circle cx="380.7803" cy="64.47392" fill="black" r="0.50013" /><circle cx="282.50385" cy="73.20242" fill="black" r="0.50013" /><circle cx="278.25935" cy="73.5794" fill="black" r="0.50013" /><circle cx="506.80924" cy="53.28056" fill="black" r="0.50013" /><circle cx="382.0573" cy="64.03143" fill="black" r="0.50013" /><circle cx="129.97043" cy="86.09165" fill="black" r="0.50013" /><circle cx="113.31894" cy="87.57056" fill="black" r="0.50013" /><circle cx="141.75342" cy="85.37421" fill="black" r="0.50013" /><circle cx="52.64797" cy="93.61725" fill="black" r="0.50013" /><circle cx="802.5601" cy="26.35506" fill="black" r="0.50013" /><circle cx="545.63372" cy="49.50326" fill="black" r="0.50013" /><circle cx="196.9319" cy="80.47349" fill="black" r="0.50013" /><circle cx="605.35419" cy="43.87006" fill="black" r="0.50013" /><circle cx="120.17544" cy="86.9616" fill="black" r="0.50013" /><circle cx="934.19753" cy="15.32173" fill="black" r="0.50013" /><circle cx="402.9243" cy="61.84903" fill="black" r="0.50013" /><circle cx="16.67499" cy="96.15407" fill="black" r="0.50013" /><circle cx="869.19506" cy="20.7659" fill="black" r="0.50013" /><circle cx="200.1969" cy="80.1835" fill="black" r="0.50013" /><circle cx="585.7932" cy="45.93646" fill="black" r="0.50013" /><circle cx="940.66953" cy="14.08877" fill="black" r="0.50013" /><circle cx="564.57071" cy="47.82135" fill="black" r="0.50013" /><circle cx="458.42927" cy="56.91932" fill="black" r="0.50013" /><circle cx="885.87555" cy="19.61349" fill="black" r="0.50013" /><circle cx="718.05463" cy="34.51863" fill="black" r="0.50013" /><circle cx="629.87068" cy="42.02169" fill="black" r="0.50013" /><circle cx="286.06635" cy="72.55694" fill="black" r="0.50013" /><circle cx="837.49558" cy="23.25224" fill="black" r="0.50013" /><circle cx="379.4743" cy="64.58991" fill="black" r="0.50013" /><circle cx="875.10106" cy="20.57043" fill="black" r="0.50013" /><circle cx="314.17434" cy="70.38958" fill="black" r="0.50013" /><circle cx="216.22439" cy="79.08908" fill="black" r="0.50013" /><circle cx="120.55993" cy="87.5856" fill="black" r="0.50013" /><circle cx="744.44312" cy="31.51677" fill="black" r="0.50013" /><circle cx="329.19333" cy="69.05566" fill="black" r="0.50013" /><circle cx="347.12182" cy="67.13425" fill="black" r="0.50013" /><circle cx="554.77572" cy="48.6913" fill="black" r="0.50013" /><circle cx="417.97229" cy="60.84161" fill="black" r="0.50013" /><circle cx="212.90139" cy="78.72607" fill="black" r="0.50013" /><circle cx="195.3284" cy="80.94498" fill="black" r="0.50013" /><circle cx="471.48926" cy="55.75938" fill="black" r="0.50013" /><circle cx="928.61803" cy="15.4882" fill="black" r="0.50013" /><circle cx="711.85114" cy="35.0696" fill="black" r="0.50013" /><circle cx="535.86773" cy="50.69971" fill="black" r="0.50013" /><circle cx="520.46424" cy="51.40963" fill="black" r="0.50013" /><circle cx="627.58518" cy="42.22467" fill="black" r="0.50013" /><circle cx="238.39738" cy="76.7907" fill="black" r="0.50013" /><circle cx="136.52943" cy="85.83818" fill="black" r="0.50013" /><circle cx="925.32403" cy="15.45169" fill="black" r="0.50013" /><circle cx="793.0916" cy="27.19602" fill="black" r="0.50013" /><circle cx="763.70661" cy="29.80587" fill="black" r="0.50013" /><circle cx="862.99156" cy="21.31687" fill="black" r="0.50013" /><circle cx="58.52496" cy="93.09528" fill="black" r="0.50013" /><circle cx="133.23543" cy="85.80166" fill="black" r="0.50013" /><circle cx="358.57831" cy="66.44581" fill="black" r="0.50013" /><circle cx="84.28945" cy="90.47791" fill="black" r="0.50013" /><circle cx="767.35611" cy="30.13988" fill="black" r="0.50013" /><circle cx="807.78409" cy="25.89109" fill="black" r="0.50013" /><circle cx="320.67533" cy="69.48311" fill="black" r="0.50013" /><circle cx="526.04373" cy="51.24316" fill="black" r="0.50013" /><circle cx="299.42385" cy="71.04151" fill="black" r="0.50013" /><circle cx="332.42933" cy="68.43917" fill="black" r="0.50013" /><circle cx="938.71053" cy="14.26276" fill="black" r="0.50013" /><circle cx="579.58971" cy="46.48743" fill="black" r="0.50013" /><circle cx="827.07658" cy="24.50669" fill="black" r="0.50013" /><circle cx="985.4" cy="10.11599" fill="black" r="0.50013" /><circle cx="331.15233" cy="68.88167" fill="black" r="0.50013" /><circle cx="501.91174" cy="53.71554" fill="black" r="0.50013" /><circle cx="542.72422" cy="50.09074" fill="black" r="0.50013" /><circle cx="229.87938" cy="77.21815" fill="black" r="0.50013" /><circle cx="138.48843" cy="85.66419" fill="black" r="0.50013" /><circle cx="612.23969" cy="43.5876" fill="black" r="0.50013" /><circle cx="800.2746" cy="26.55805" fill="black" r="0.50013" /><circle cx="449.31627" cy="58.05777" fill="black" r="0.50013" /><circle cx="153.53642" cy="84.65677" fill="black" r="0.50013" /><circle cx="663.17366" cy="39.06386" fill="black" r="0.50013" /><circle cx="688.34315" cy="37.15748" fill="black" r="0.50013" /><circle cx="419.90229" cy="60.34112" fill="black" r="0.50013" /><circle cx="476.44476" cy="55.97741" fill="black" r="0.50013" /><circle cx="841.08708" cy="22.93326" fill="black" r="0.50013" /><circle cx="273.98586" cy="73.62988" fill="black" r="0.50013" /><circle cx="18.00999" cy="96.36458" fill="black" r="0.50013" /><circle cx="498.58875" cy="53.35252" fill="black" r="0.50013" /><circle cx="953.78752" cy="13.58183" fill="black" r="0.50013" /><circle cx="123.79593" cy="86.96911" fill="black" r="0.50013" /><circle cx="829.65958" cy="23.9482" fill="black" r="0.50013" /><circle cx="786.9461" cy="28.39998" fill="black" r="0.50013" /><circle cx="89.18695" cy="90.04294" fill="black" r="0.50013" /><circle cx="60.48396" cy="92.92129" fill="black" r="0.50013" /><circle cx="814.01659" cy="25.66662" fill="black" r="0.50013" /><circle cx="805.55659" cy="26.74708" fill="black" r="0.50013" /><circle cx="915.52904" cy="16.32164" fill="black" r="0.50013" /><circle cx="893.00055" cy="18.32252" fill="black" r="0.50013" /><circle cx="627.88268" cy="41.86918" fill="black" r="0.50013" /><circle cx="658.60267" cy="39.46983" fill="black" r="0.50013" /><circle cx="883.56105" cy="19.48998" fill="black" r="0.50013" /><circle cx="35.99648" cy="95.09617" fill="black" r="0.50013" /><circle cx="931.58553" cy="15.55372" fill="black" r="0.50013" /><circle cx="337.02932" cy="68.3597" fill="black" r="0.50013" /><circle cx="59.50446" cy="93.00829" fill="black" r="0.50013" /><circle cx="431.03228" cy="59.68168" fill="black" r="0.50013" /><circle cx="501.20075" cy="53.12053" fill="black" r="0.50013" /><circle cx="776.14261" cy="29.03043" fill="black" r="0.50013" /><circle cx="930.87453" cy="14.95872" fill="black" r="0.50013" /><circle cx="618.44319" cy="43.03663" fill="black" r="0.50013" /><circle cx="546.96872" cy="49.71376" fill="black" r="0.50013" /><circle cx="653.70517" cy="39.90481" fill="black" r="0.50013" /><circle cx="365.73231" cy="65.48134" fill="black" r="0.50013" /><circle cx="423.49378" cy="60.02214" fill="black" r="0.50013" /><circle cx="467.30276" cy="56.78936" fill="black" r="0.50013" /><circle cx="753.31662" cy="31.38681" fill="black" r="0.50013" /><circle cx="954.11402" cy="13.55283" fill="black" r="0.50013" /><circle cx="562.61171" cy="47.99534" fill="black" r="0.50013" /><circle cx="803.2131" cy="26.29707" fill="black" r="0.50013" /><circle cx="235.48788" cy="77.37818" fill="black" r="0.50013" /><circle cx="569.17071" cy="47.74188" fill="black" r="0.50013" /><circle cx="815.29359" cy="25.22413" fill="black" r="0.50013" /><circle cx="128.01143" cy="86.26564" fill="black" r="0.50013" /><circle cx="245.25387" cy="76.18173" fill="black" r="0.50013" /><circle cx="268.40636" cy="73.79635" fill="black" r="0.50013" /><circle cx="911.99554" cy="17.29362" fill="black" r="0.50013" /><circle cx="26.14348" cy="95.31312" fill="black" r="0.50013" /><circle cx="955.39102" cy="13.11034" fill="black" r="0.50013" /><circle cx="673.26616" cy="37.83841" fill="black" r="0.50013" /><circle cx="126.43693" cy="87.06363" fill="black" r="0.50013" /><circle cx="450.91977" cy="57.58628" fill="black" r="0.50013" /><circle cx="570.47671" cy="47.62588" fill="black" r="0.50013" /><circle cx="443.11277" cy="58.60874" fill="black" r="0.50013" /><circle cx="599.1507" cy="44.42103" fill="black" r="0.50013" /><circle cx="472.17126" cy="56.02788" fill="black" r="0.50013" /><circle cx="528.35823" cy="51.36667" fill="black" r="0.50013" /><circle cx="781.7221" cy="28.86396" fill="black" r="0.50013" /><circle cx="560.32621" cy="48.19833" fill="black" r="0.50013" /><circle cx="449.67177" cy="58.35527" fill="black" r="0.50013" /><circle cx="797.9891" cy="26.76104" fill="black" r="0.50013" /><circle cx="175.02741" cy="82.08988" fill="black" r="0.50013" /><circle cx="446.02227" cy="58.02125" fill="black" r="0.50013" /><circle cx="19.93999" cy="95.86409" fill="black" r="0.50013" /><circle cx="90.84845" cy="90.22445" fill="black" r="0.50013" /><circle cx="261.90536" cy="74.70282" fill="black" r="0.50013" /><circle cx="895.61255" cy="18.09054" fill="black" r="0.50013" /><circle cx="774.86561" cy="29.47292" fill="black" r="0.50013" /><circle cx="945.62502" cy="14.30679" fill="black" r="0.50013" /><circle cx="493.06725" cy="54.17199" fill="black" r="0.50013" /><circle cx="377.45731" cy="64.1109" fill="black" r="0.50013" /><circle cx="504.16824" cy="53.18605" fill="black" r="0.50013" /><circle cx="651.74617" cy="40.0788" fill="black" r="0.50013" /><circle cx="400.37029" cy="62.73402" fill="black" r="0.50013" /><circle cx="529.60623" cy="50.59768" fill="black" r="0.50013" /><circle cx="532.57373" cy="50.66319" fill="black" r="0.50013" /><circle cx="757.50312" cy="30.35684" fill="black" r="0.50013" /><circle cx="77.10646" cy="91.11588" fill="black" r="0.50013" /><circle cx="69.24146" cy="91.48534" fill="black" r="0.50013" /><circle cx="740.55412" cy="32.19125" fill="black" r="0.50013" /><circle cx="745.45162" cy="31.75627" fill="black" r="0.50013" /><circle cx="14.41849" cy="96.68356" fill="black" r="0.50013" /><circle cx="669.40616" cy="38.83939" fill="black" r="0.50013" /><circle cx="52.94547" cy="93.26175" fill="black" r="0.50013" /><circle cx="550.85772" cy="49.03928" fill="black" r="0.50013" /><circle cx="275.58936" cy="73.15839" fill="black" r="0.50013" /><circle cx="186.8394" cy="81.69893" fill="black" r="0.50013" /><circle cx="315.77784" cy="69.91809" fill="black" r="0.50013" /><circle cx="493.74925" cy="54.44049" fill="black" r="0.50013" /><circle cx="169.50591" cy="82.90935" fill="black" r="0.50013" /><circle cx="974.98101" cy="11.37044" fill="black" r="0.50013" /><circle cx="946.27802" cy="14.24879" fill="black" r="0.50013" /><circle cx="725.20863" cy="33.55417" fill="black" r="0.50013" /><circle cx="283.15685" cy="73.14442" fill="black" r="0.50013" /><circle cx="328.80883" cy="68.43166" fill="black" r="0.50013" /><circle cx="223.05188" cy="78.15362" fill="black" r="0.50013" /><circle cx="135.87643" cy="85.89618" fill="black" r="0.50013" /><circle cx="75.11846" cy="90.96337" fill="black" r="0.50013" /><circle cx="23.58948" cy="96.1981" fill="black" r="0.50013" /><circle cx="55.23097" cy="93.05877" fill="black" r="0.50013" /><circle cx="510.66924" cy="52.27958" fill="black" r="0.50013" /><circle cx="124.41993" cy="86.58462" fill="black" r="0.50013" /><circle cx="791.1616" cy="27.69651" fill="black" r="0.50013" /><circle cx="708.91264" cy="35.33059" fill="black" r="0.50013" /><circle cx="311.85984" cy="70.26607" fill="black" r="0.50013" /><circle cx="793.8026" cy="27.79102" fill="black" r="0.50013" /><circle cx="81.02445" cy="90.7679" fill="black" r="0.50013" /><circle cx="250.47787" cy="75.71776" fill="black" r="0.50013" /><circle cx="197.94039" cy="80.71299" fill="black" r="0.50013" /><circle cx="285.11585" cy="72.97043" fill="black" r="0.50013" /><circle cx="901.51854" cy="17.89507" fill="black" r="0.50013" /><circle cx="470.83626" cy="55.81738" fill="black" r="0.50013" /><circle cx="859.07357" cy="21.66485" fill="black" r="0.50013" /><circle cx="547.94822" cy="49.62677" fill="black" r="0.50013" /><circle cx="297.79135" cy="71.1865" fill="black" r="0.50013" /><circle cx="72.86196" cy="91.49286" fill="black" r="0.50013" /><circle cx="605.02769" cy="43.89906" fill="black" r="0.50013" /><circle cx="636.42968" cy="41.76822" fill="black" r="0.50013" /><circle cx="990.0" cy="10.03652" fill="black" r="0.50013" /><circle cx="702.38264" cy="35.91055" fill="black" r="0.50013" /><circle cx="855.45307" cy="21.65733" fill="black" r="0.50013" /><circle cx="330.47033" cy="68.61316" fill="black" r="0.50013" /><circle cx="733.37113" cy="32.82921" fill="black" r="0.50013" /><circle cx="519.54273" cy="52.14963" fill="black" r="0.50013" /><circle cx="571.42721" cy="47.21239" fill="black" r="0.50013" /><circle cx="179.92491" cy="81.6549" fill="black" r="0.50013" /><circle cx="825.79958" cy="24.94918" fill="black" r="0.50013" /><circle cx="926.03503" cy="16.04669" fill="black" r="0.50013" /><circle cx="974.32801" cy="11.42844" fill="black" r="0.50013" /><circle cx="44.48547" cy="94.34221" fill="black" r="0.50013" /><circle cx="151.54842" cy="84.50426" fill="black" r="0.50013" /><circle cx="203.13539" cy="79.92252" fill="black" r="0.50013" /><circle cx="710.21864" cy="35.21459" fill="black" r="0.50013" /><circle cx="99.60595" cy="88.78849" fill="black" r="0.50013" /><circle cx="909.65204" cy="16.84361" fill="black" r="0.50013" /><circle cx="426.49028" cy="60.41415" fill="black" r="0.50013" /><circle cx="394.8198" cy="63.22699" fill="black" r="0.50013" /><circle cx="896.97654" cy="18.62754" fill="black" r="0.50013" /><circle cx="338.98832" cy="68.18571" fill="black" r="0.50013" /><circle cx="593.2737" cy="44.943" fill="black" r="0.50013" /><circle cx="82.98345" cy="90.59391" fill="black" r="0.50013" /><circle cx="459.46676" cy="57.48532" fill="black" r="0.50013" /><circle cx="989.0205" cy="10.12351" fill="black" r="0.50013" /><circle cx="370.60081" cy="64.71987" fill="black" r="0.50013" /><circle cx="829.00658" cy="24.0062" fill="black" r="0.50013" /><circle cx="601.46519" cy="44.54454" fill="black" r="0.50013" /><circle cx="822.47659" cy="24.58617" fill="black" r="0.50013" /><circle cx="372.58881" cy="64.87238" fill="black" r="0.50013" /><circle cx="178.0239" cy="82.48189" fill="black" r="0.50013" /><circle cx="842.45107" cy="23.47027" fill="black" r="0.50013" /><circle cx="248.48987" cy="75.56525" fill="black" r="0.50013" /><circle cx="241.98887" cy="76.47172" fill="black" r="0.50013" /><circle cx="561.60322" cy="47.75584" fill="black" r="0.50013" /><circle cx="909.97854" cy="16.81461" fill="black" r="0.50013" /><circle cx="381.7598" cy="64.38693" fill="black" r="0.50013" /><circle cx="773.88611" cy="29.55992" fill="black" r="0.50013" /><circle cx="152.52792" cy="84.41726" fill="black" r="0.50013" /><circle cx="712.17764" cy="35.0406" fill="black" r="0.50013" /><circle cx="703.63064" cy="35.14156" fill="black" r="0.50013" /><circle cx="95.09295" cy="89.84747" fill="black" r="0.50013" /><circle cx="53.95397" cy="93.50126" fill="black" r="0.50013" /><circle cx="78.05696" cy="90.70238" fill="black" r="0.50013" /><circle cx="552.13472" cy="48.59679" fill="black" r="0.50013" /><circle cx="674.92766" cy="38.01992" fill="black" r="0.50013" /><circle cx="728.82913" cy="33.56169" fill="black" r="0.50013" /><circle cx="818.88509" cy="24.90515" fill="black" r="0.50013" /><circle cx="137.18243" cy="85.78018" fill="black" r="0.50013" /><circle cx="959.28002" cy="12.43586" fill="black" r="0.50013" /><circle cx="911.01604" cy="17.38061" fill="black" r="0.50013" /><circle cx="292.26985" cy="72.00597" fill="black" r="0.50013" /><circle cx="149.29192" cy="85.03374" fill="black" r="0.50013" /><circle cx="515.56674" cy="51.84461" fill="black" r="0.50013" /><circle cx="818.61658" cy="25.58715" fill="black" r="0.50013" /><circle cx="614.82269" cy="43.02911" fill="black" r="0.50013" /><circle cx="643.28617" cy="41.15925" fill="black" r="0.50013" /><circle cx="626.25018" cy="42.01417" fill="black" r="0.50013" /><circle cx="865.95906" cy="21.38239" fill="black" r="0.50013" /><circle cx="839.81008" cy="23.37575" fill="black" r="0.50013" /><circle cx="971.06301" cy="11.71842" fill="black" r="0.50013" /><circle cx="886.85505" cy="19.52649" fill="black" r="0.50013" /><circle cx="770.29461" cy="29.8789" fill="black" r="0.50013" /><circle cx="210.97139" cy="79.22656" fill="black" r="0.50013" /><circle cx="199.1884" cy="79.944" fill="black" r="0.50013" /><circle cx="47.75047" cy="94.05223" fill="black" r="0.50013" /><circle cx="440.17427" cy="58.86972" fill="black" r="0.50013" /><circle cx="425.18428" cy="60.53015" fill="black" r="0.50013" /><circle cx="310.90934" cy="70.67957" fill="black" r="0.50013" /><circle cx="849.63407" cy="22.8323" fill="black" r="0.50013" /><circle cx="858.44956" cy="22.04935" fill="black" r="0.50013" /><circle cx="360.50831" cy="65.94532" fill="black" r="0.50013" /><circle cx="479.38325" cy="55.71642" fill="black" r="0.50013" /><circle cx="420.55529" cy="60.28312" fill="black" r="0.50013" /><circle cx="913.92554" cy="16.79313" fill="black" r="0.50013" /><circle cx="395.7993" cy="63.14" fill="black" r="0.50013" /><circle cx="641.65367" cy="41.30425" fill="black" r="0.50013" /><circle cx="905.08104" cy="17.24959" fill="black" r="0.50013" /><circle cx="288.38085" cy="72.68045" fill="black" r="0.50013" /><circle cx="845.38957" cy="23.20928" fill="black" r="0.50013" /><circle cx="257.95837" cy="74.7243" fill="black" r="0.50013" /><circle cx="362.79381" cy="65.74233" fill="black" r="0.50013" /><circle cx="832.92458" cy="23.65822" fill="black" r="0.50013" /><circle cx="752.01062" cy="31.50281" fill="black" r="0.50013" /><circle cx="785.6401" cy="28.51598" fill="black" r="0.50013" /><circle cx="629.24668" cy="42.40618" fill="black" r="0.50013" /><circle cx="457.50776" cy="57.65931" fill="black" r="0.50013" /><circle cx="19.28699" cy="95.92208" fill="black" r="0.50013" /><circle cx="575.31621" cy="46.53791" fill="black" r="0.50013" /><circle cx="969.75701" cy="11.83441" fill="black" r="0.50013" /><circle cx="207.37989" cy="79.54554" fill="black" r="0.50013" /><circle cx="257.33437" cy="75.10879" fill="black" r="0.50013" /><circle cx="980.17601" cy="10.57997" fill="black" r="0.50013" /><circle cx="680.47815" cy="37.52694" fill="black" r="0.50013" /><circle cx="421.56378" cy="60.52263" fill="black" r="0.50013" /><circle cx="525.41973" cy="51.62766" fill="black" r="0.50013" /><circle cx="252.11037" cy="75.57277" fill="black" r="0.50013" /><circle cx="167.87341" cy="83.05434" fill="black" r="0.50013" /><circle cx="303.07334" cy="71.37553" fill="black" r="0.50013" /><circle cx="752.66362" cy="31.44481" fill="black" r="0.50013" /><circle cx="950.79102" cy="13.18982" fill="black" r="0.50013" /><circle cx="146.35342" cy="85.29473" fill="black" r="0.50013" /><circle cx="812.02859" cy="25.51411" fill="black" r="0.50013" /><circle cx="962.87152" cy="12.11688" fill="black" r="0.50013" /><circle cx="105.51194" cy="88.59302" fill="black" r="0.50013" /><circle cx="175.70941" cy="82.35838" fill="black" r="0.50013" /><circle cx="706.30064" cy="35.56257" fill="black" r="0.50013" /><circle cx="636.75618" cy="41.73922" fill="black" r="0.50013" /><circle cx="69.92346" cy="91.75384" fill="black" r="0.50013" /><circle cx="798.37359" cy="27.38504" fill="black" r="0.50013" /><circle cx="615.17819" cy="43.32661" fill="black" r="0.50013" /><circle cx="964.53301" cy="12.29839" fill="black" r="0.50013" /><circle cx="335.33883" cy="67.85169" fill="black" r="0.50013" /><circle cx="439.52128" cy="58.92772" fill="black" r="0.50013" /><circle cx="633.46218" cy="41.7027" fill="black" r="0.50013" /><circle cx="483.24326" cy="54.71544" fill="black" r="0.50013" /><circle cx="86.87245" cy="89.91943" fill="black" r="0.50013" /><circle cx="797.0386" cy="27.17454" fill="black" r="0.50013" /><circle cx="139.49692" cy="85.90369" fill="black" r="0.50013" /><circle cx="861.00357" cy="21.16436" fill="black" r="0.50013" /><circle cx="677.18416" cy="37.49043" fill="black" r="0.50013" /><circle cx="489.83125" cy="54.78847" fill="black" r="0.50013" /><circle cx="453.85827" cy="57.32529" fill="black" r="0.50013" /><circle cx="336.37633" cy="68.41769" fill="black" r="0.50013" /><circle cx="147.95692" cy="84.82324" fill="black" r="0.50013" /><circle cx="881.89956" cy="19.30847" fill="black" r="0.50013" /><circle cx="301.76734" cy="71.49152" fill="black" r="0.50013" /><circle cx="887.77655" cy="18.7865" fill="black" r="0.50013" /><circle cx="852.21707" cy="22.27382" fill="black" r="0.50013" /><circle cx="73.48596" cy="91.10836" fill="black" r="0.50013" /><circle cx="529.96173" cy="50.89518" fill="black" r="0.50013" /><circle cx="572.43571" cy="47.45189" fill="black" r="0.50013" /><circle cx="326.25483" cy="69.31664" fill="black" r="0.50013" /><circle cx="836.21858" cy="23.69473" fill="black" r="0.50013" /><circle cx="474.45676" cy="55.8249" fill="black" r="0.50013" /><circle cx="509.36324" cy="52.39557" fill="black" r="0.50013" /><circle cx="833.63558" cy="24.25322" fill="black" r="0.50013" /><circle cx="957.05251" cy="13.29185" fill="black" r="0.50013" /><circle cx="213.61239" cy="79.32107" fill="black" r="0.50013" /><circle cx="212.27739" cy="79.11056" fill="black" r="0.50013" /><circle cx="644.56317" cy="40.71676" fill="black" r="0.50013" /><circle cx="219.75789" cy="78.1171" fill="black" r="0.50013" /><circle cx="900.83655" cy="17.62656" fill="black" r="0.50013" /><circle cx="512.30174" cy="52.13459" fill="black" r="0.50013" /><circle cx="183.2189" cy="81.69142" fill="black" r="0.50013" /><circle cx="491.73225" cy="53.96148" fill="black" r="0.50013" /><circle cx="142.76192" cy="85.61371" fill="black" r="0.50013" /><circle cx="517.58373" cy="52.32362" fill="black" r="0.50013" /><circle cx="717.72813" cy="34.54763" fill="black" r="0.50013" /><circle cx="496.68775" cy="54.17951" fill="black" r="0.50013" /><circle cx="267.15836" cy="74.56534" fill="black" r="0.50013" /><circle cx="271.99786" cy="73.47737" fill="black" r="0.50013" /><circle cx="576.68021" cy="47.07492" fill="black" r="0.50013" /><circle cx="632.45368" cy="41.4632" fill="black" r="0.50013" /><circle cx="451.60177" cy="57.85478" fill="black" r="0.50013" /><circle cx="71.20046" cy="91.31135" fill="black" r="0.50013" /><circle cx="92.09645" cy="89.45545" fill="black" r="0.50013" /><circle cx="403.96179" cy="62.41504" fill="black" r="0.50013" /><circle cx="549.58072" cy="49.48178" fill="black" r="0.50013" /><circle cx="446.70427" cy="58.28976" fill="black" r="0.50013" /><circle cx="33.02898" cy="95.03065" fill="black" r="0.50013" /><circle cx="801.2541" cy="26.47106" fill="black" r="0.50013" /><circle cx="878.96106" cy="19.56945" fill="black" r="0.50013" /><circle cx="981.8665" cy="11.08797" fill="black" r="0.50013" /><circle cx="590.9882" cy="45.14599" fill="black" r="0.50013" /><circle cx="195.9814" cy="80.88698" fill="black" r="0.50013" /><circle cx="386.5993" cy="63.29895" fill="black" r="0.50013" /><circle cx="582.5572" cy="46.55295" fill="black" r="0.50013" /><circle cx="661.18567" cy="38.91135" fill="black" r="0.50013" /><circle cx="482.61925" cy="55.09994" fill="black" r="0.50013" /><circle cx="651.06417" cy="39.81029" fill="black" r="0.50013" /><circle cx="264.87286" cy="74.76833" fill="black" r="0.50013" /><circle cx="987.417" cy="10.595" fill="black" r="0.50013" /><circle cx="707.87514" cy="34.76458" fill="black" r="0.50013" /><circle cx="447.71277" cy="58.52926" fill="black" r="0.50013" /><circle cx="758.51162" cy="30.59634" fill="black" r="0.50013" /><circle cx="676.23366" cy="37.90392" fill="black" r="0.50013" /><circle cx="31.69398" cy="94.82015" fill="black" r="0.50013" /><circle cx="631.17668" cy="41.90569" fill="black" r="0.50013" /><circle cx="503.21774" cy="53.59954" fill="black" r="0.50013" /><circle cx="888.42955" cy="18.7285" fill="black" r="0.50013" /><circle cx="293.24935" cy="71.91898" fill="black" r="0.50013" /><circle cx="685.40465" cy="37.41847" fill="black" r="0.50013" /><circle cx="897.62954" cy="18.56955" fill="black" r="0.50013" /><circle cx="160.06641" cy="84.0768" fill="black" r="0.50013" /><circle cx="473.17976" cy="56.26739" fill="black" r="0.50013" /><circle cx="251.15987" cy="75.98626" fill="black" r="0.50013" /><circle cx="746.40212" cy="31.34278" fill="black" r="0.50013" /><circle cx="505.50324" cy="53.39655" fill="black" r="0.50013" /><circle cx="609.27219" cy="43.52208" fill="black" r="0.50013" /><circle cx="511.70674" cy="52.84559" fill="black" r="0.50013" /><circle cx="427.44078" cy="60.00066" fill="black" r="0.50013" /><circle cx="111.68644" cy="87.71555" fill="black" r="0.50013" /><circle cx="947.88152" cy="13.7773" fill="black" r="0.50013" /><circle cx="255.40437" cy="75.60928" fill="black" r="0.50013" /><circle cx="538.45073" cy="50.14122" fill="black" r="0.50013" /><circle cx="541.41822" cy="50.20674" fill="black" r="0.50013" /><circle cx="415.38929" cy="61.4001" fill="black" r="0.50013" /><circle cx="221.74588" cy="78.26961" fill="black" r="0.50013" /><circle cx="762.13211" cy="30.60386" fill="black" r="0.50013" /><circle cx="898.28254" cy="18.51155" fill="black" r="0.50013" /><circle cx="844.05457" cy="22.99877" fill="black" r="0.50013" /><circle cx="306.33834" cy="71.08554" fill="black" r="0.50013" /><circle cx="343.17483" cy="67.15573" fill="black" r="0.50013" /><circle cx="867.53356" cy="20.58439" fill="black" r="0.50013" /><circle cx="736.99162" cy="32.83673" fill="black" r="0.50013" /><circle cx="699.11764" cy="36.20054" fill="black" r="0.50013" /><circle cx="189.0959" cy="81.16945" fill="black" r="0.50013" /><circle cx="402.00279" cy="62.58903" fill="black" r="0.50013" /><circle cx="976.25801" cy="10.92795" fill="black" r="0.50013" /><circle cx="260.62836" cy="75.14531" fill="black" r="0.50013" /><circle cx="704.63914" cy="35.38107" fill="black" r="0.50013" /><circle cx="739.60362" cy="32.60474" fill="black" r="0.50013" /><circle cx="498.32024" cy="54.03452" fill="black" r="0.50013" /><circle cx="715.11614" cy="34.77962" fill="black" r="0.50013" /><circle cx="43.44798" cy="93.77621" fill="black" r="0.50013" /><circle cx="634.41268" cy="41.28921" fill="black" r="0.50013" /><circle cx="50.65997" cy="93.46474" fill="black" r="0.50013" /><circle cx="872.43106" cy="20.14942" fill="black" r="0.50013" /><circle cx="637.73567" cy="41.65223" fill="black" r="0.50013" /><circle cx="143.05942" cy="85.25821" fill="black" r="0.50013" /><circle cx="792.1701" cy="27.93601" fill="black" r="0.50013" /><circle cx="906.06054" cy="17.16259" fill="black" r="0.50013" /><circle cx="608.02419" cy="44.29107" fill="black" r="0.50013" /><circle cx="49.05647" cy="93.93623" fill="black" r="0.50013" /><circle cx="21.95698" cy="96.3431" fill="black" r="0.50013" /><circle cx="680.77566" cy="37.17145" fill="black" r="0.50013" /><circle cx="308.62384" cy="70.88255" fill="black" r="0.50013" /><circle cx="951.82852" cy="13.75582" fill="black" r="0.50013" /><circle cx="664.77716" cy="38.59236" fill="black" r="0.50013" /><circle cx="134.86793" cy="85.65667" fill="black" r="0.50013" /><circle cx="694.54665" cy="36.60651" fill="black" r="0.50013" /><circle cx="654.98217" cy="39.46231" fill="black" r="0.50013" /><circle cx="288.97585" cy="71.96945" fill="black" r="0.50013" /><circle cx="648.77867" cy="40.01328" fill="black" r="0.50013" /><circle cx="321.68383" cy="69.72262" fill="black" r="0.50013" /><circle cx="192.6584" cy="80.52396" fill="black" r="0.50013" /><circle cx="688.61165" cy="36.47549" fill="black" r="0.50013" /><circle cx="106.81794" cy="88.47703" fill="black" r="0.50013" /><circle cx="361.51681" cy="66.18482" fill="black" r="0.50013" /><circle cx="851.26657" cy="22.68731" fill="black" r="0.50013" /><circle cx="824.46458" cy="24.73868" fill="black" r="0.50013" /><circle cx="433.94178" cy="59.09419" fill="black" r="0.50013" /><circle cx="681.81315" cy="37.73745" fill="black" r="0.50013" /><circle cx="611.55769" cy="43.31909" fill="black" r="0.50013" /><circle cx="930.25053" cy="15.34321" fill="black" r="0.50013" /><circle cx="784.9871" cy="28.57397" fill="black" r="0.50013" /><circle cx="722.29913" cy="34.14166" fill="black" r="0.50013" /><circle cx="316.75734" cy="69.8311" fill="black" r="0.50013" /><circle cx="201.4739" cy="79.74101" fill="black" r="0.50013" /><circle cx="194.6174" cy="80.34997" fill="black" r="0.50013" /><circle cx="110.11194" cy="88.51354" fill="black" r="0.50013" /><circle cx="272.70886" cy="74.07237" fill="black" r="0.50013" /><circle cx="234.12388" cy="76.84118" fill="black" r="0.50013" /><circle cx="236.14088" cy="77.32019" fill="black" r="0.50013" /><circle cx="678.81666" cy="37.34544" fill="black" r="0.50013" /><circle cx="170.84091" cy="83.11985" fill="black" r="0.50013" /><circle cx="79.42095" cy="91.23939" fill="black" r="0.50013" /><circle cx="218.12539" cy="78.26209" fill="black" r="0.50013" /><circle cx="513.31024" cy="52.37409" fill="black" r="0.50013" /><circle cx="122.46094" cy="86.75861" fill="black" r="0.50013" /><circle cx="904.48604" cy="17.96058" fill="black" r="0.50013" /><circle cx="442.43078" cy="58.34023" fill="black" r="0.50013" /><circle cx="668.10016" cy="38.95538" fill="black" r="0.50013" /><circle cx="484.22275" cy="54.62845" fill="black" r="0.50013" /><circle cx="936.78053" cy="14.76325" fill="black" r="0.50013" /><circle cx="657.62317" cy="39.55683" fill="black" r="0.50013" /><circle cx="180.6069" cy="81.9234" fill="black" r="0.50013" /><circle cx="907.69304" cy="17.0176" fill="black" r="0.50013" /><circle cx="659.87967" cy="39.02734" fill="black" r="0.50013" /><circle cx="41.16248" cy="93.97919" fill="black" r="0.50013" /><circle cx="870.47206" cy="20.32341" fill="black" r="0.50013" /><circle cx="721.29063" cy="33.90215" fill="black" r="0.50013" /><circle cx="621.41068" cy="43.10214" fill="black" r="0.50013" /><circle cx="60.75247" cy="92.23929" fill="black" r="0.50013" /><circle cx="810.72259" cy="25.63011" fill="black" r="0.50013" /><circle cx="223.70488" cy="78.09562" fill="black" r="0.50013" /><circle cx="28.10248" cy="95.13913" fill="black" r="0.50013" /><circle cx="617.81918" cy="43.42112" fill="black" r="0.50013" /><circle cx="908.01954" cy="16.9886" fill="black" r="0.50013" /><circle cx="220.79538" cy="78.68311" fill="black" r="0.50013" /><circle cx="61.76096" cy="92.4788" fill="black" r="0.50013" /><circle cx="294.25785" cy="72.15848" fill="black" r="0.50013" /><circle cx="494.72875" cy="54.3535" fill="black" r="0.50013" /><circle cx="25.16398" cy="95.40011" fill="black" r="0.50013" /><circle cx="920.48453" cy="16.53966" fill="black" r="0.50013" /><circle cx="164.93491" cy="83.31532" fill="black" r="0.50013" /><circle cx="397.4028" cy="62.6685" fill="black" r="0.50013" /><circle cx="772.25361" cy="29.70491" fill="black" r="0.50013" /><circle cx="424.82878" cy="60.23264" fill="black" r="0.50013" /><circle cx="202.48239" cy="79.98051" fill="black" r="0.50013" /><circle cx="671.30716" cy="38.0124" fill="black" r="0.50013" /><circle cx="415.00479" cy="60.77609" fill="black" r="0.50013" /><circle cx="354.60232" cy="66.14079" fill="black" r="0.50013" /><circle cx="351.33732" cy="66.43077" fill="black" r="0.50013" /><circle cx="246.58887" cy="76.39224" fill="black" r="0.50013" /><circle cx="521.44374" cy="51.32264" fill="black" r="0.50013" /><circle cx="469.20376" cy="55.96237" fill="black" r="0.50013" /><circle cx="371.25381" cy="64.66187" fill="black" r="0.50013" /><circle cx="943.96352" cy="14.12528" fill="black" r="0.50013" /><circle cx="942.36002" cy="14.59677" fill="black" r="0.50013" /><circle cx="847.97257" cy="22.65079" fill="black" r="0.50013" /><circle cx="477.75075" cy="55.86141" fill="black" r="0.50013" /><circle cx="374.51881" cy="64.37189" fill="black" r="0.50013" /><circle cx="67.01396" cy="92.34133" fill="black" r="0.50013" /><circle cx="376.18031" cy="64.5534" fill="black" r="0.50013" /><circle cx="813.33459" cy="25.39812" fill="black" r="0.50013" /><circle cx="184.8224" cy="81.21992" fill="black" r="0.50013" /><circle cx="399.39079" cy="62.82101" fill="black" r="0.50013" /><circle cx="258.99586" cy="75.2903" fill="black" r="0.50013" /><circle cx="559.67322" cy="48.25633" fill="black" r="0.50013" /><circle cx="410.16529" cy="61.86407" fill="black" r="0.50013" /><circle cx="597.5472" cy="44.89252" fill="black" r="0.50013" /><circle cx="534.17723" cy="50.1917" fill="black" r="0.50013" /><circle cx="397.75829" cy="62.96601" fill="black" r="0.50013" /><circle cx="652.39917" cy="40.0208" fill="black" r="0.50013" /><circle cx="972.07151" cy="11.95793" fill="black" r="0.50013" /><circle cx="877.71305" cy="20.33845" fill="black" r="0.50013" /><circle cx="412.12429" cy="61.69008" fill="black" r="0.50013" /><circle cx="489.47575" cy="54.49097" fill="black" r="0.50013" /><circle cx="545.27822" cy="49.20576" fill="black" r="0.50013" /><circle cx="391.5258" cy="63.19048" fill="black" r="0.50013" /><circle cx="301.41184" cy="71.19402" fill="black" r="0.50013" /><circle cx="714.78964" cy="34.80862" fill="black" r="0.50013" /><circle cx="168.55541" cy="83.32284" fill="black" r="0.50013" /><circle cx="410.46279" cy="61.50857" fill="black" r="0.50013" /><circle cx="228.30488" cy="78.01615" fill="black" r="0.50013" /><circle cx="639.63668" cy="40.82524" fill="black" r="0.50013" /><circle cx="428.39128" cy="59.58716" fill="black" r="0.50013" /><circle cx="364.72381" cy="65.24184" fill="black" r="0.50013" /><circle cx="674.60116" cy="38.04891" fill="black" r="0.50013" /><circle cx="743.79012" cy="31.57477" fill="black" r="0.50013" /><circle cx="956.07302" cy="13.37884" fill="black" r="0.50013" /><circle cx="828.02708" cy="24.09319" fill="black" r="0.50013" /><circle cx="641.29817" cy="41.00674" fill="black" r="0.50013" /><circle cx="432.01178" cy="59.59468" fill="black" r="0.50013" /><circle cx="378.46581" cy="64.35041" fill="black" r="0.50013" /><circle cx="412.45079" cy="61.66108" fill="black" r="0.50013" /><circle cx="750.67562" cy="31.2923" fill="black" r="0.50013" /><circle cx="344.80732" cy="67.01074" fill="black" r="0.50013" /><circle cx="936.09853" cy="14.49474" fill="black" r="0.50013" /><circle cx="864.65306" cy="21.49838" fill="black" r="0.50013" /><circle cx="567.80671" cy="47.20487" fill="black" r="0.50013" /><circle cx="11.50899" cy="97.27104" fill="black" r="0.50013" /><circle cx="176.65991" cy="81.94488" fill="black" r="0.50013" /><circle cx="662.16517" cy="38.82435" fill="black" r="0.50013" /><circle cx="768.00911" cy="30.08189" fill="black" r="0.50013" /><circle cx="924.01803" cy="15.56768" fill="black" r="0.50013" /><circle cx="738.26863" cy="32.39424" fill="black" r="0.50013" /><circle cx="37.89748" cy="94.26918" fill="black" r="0.50013" /><circle cx="466.32326" cy="56.87635" fill="black" r="0.50013" /><circle cx="557.03222" cy="48.16182" fill="black" r="0.50013" /><circle cx="613.87219" cy="43.4426" fill="black" r="0.50013" /><circle cx="312.51284" cy="70.20807" fill="black" r="0.50013" /><circle cx="683.77215" cy="37.56346" fill="black" r="0.50013" /><circle cx="480.33375" cy="55.30293" fill="black" r="0.50013" /><circle cx="26.79648" cy="95.25512" fill="black" r="0.50013" /><circle cx="408.47479" cy="61.35606" fill="black" r="0.50013" /><circle cx="287.72785" cy="72.73845" fill="black" r="0.50013" /><circle cx="958.00302" cy="12.87835" fill="black" r="0.50013" /><circle cx="94.41095" cy="89.57897" fill="black" r="0.50013" /><circle cx="366.71181" cy="65.39435" fill="black" r="0.50013" /><circle cx="484.87575" cy="54.57045" fill="black" r="0.50013" /><circle cx="206.37139" cy="79.30603" fill="black" r="0.50013" /><circle cx="455.81727" cy="57.1513" fill="black" r="0.50013" /><circle cx="277.93285" cy="73.6084" fill="black" r="0.50013" /><circle cx="972.69551" cy="11.57343" fill="black" r="0.50013" /><circle cx="131.60293" cy="85.94665" fill="black" r="0.50013" /><circle cx="34.36398" cy="95.24116" fill="black" r="0.50013" /><circle cx="749.39862" cy="31.73479" fill="black" r="0.50013" /><circle cx="961.59451" cy="12.55937" fill="black" r="0.50013" /><circle cx="42.19997" cy="94.5452" fill="black" r="0.50013" /><circle cx="853.16757" cy="21.86032" fill="black" r="0.50013" /><circle cx="932.56503" cy="15.46672" fill="black" r="0.50013" /><circle cx="727.46513" cy="33.02468" fill="black" r="0.50013" /><circle cx="291.58785" cy="71.73747" fill="black" r="0.50013" /><circle cx="349.37832" cy="66.60476" fill="black" r="0.50013" /><circle cx="108.09494" cy="88.03453" fill="black" r="0.50013" /><circle cx="735.62763" cy="32.29972" fill="black" r="0.50013" /><circle cx="620.40218" cy="42.86264" fill="black" r="0.50013" /><circle cx="719.03413" cy="34.43164" fill="black" r="0.50013" /><circle cx="225.30838" cy="77.62413" fill="black" r="0.50013" /><circle cx="224.98188" cy="77.65313" fill="black" r="0.50013" /><circle cx="941.64903" cy="14.00177" fill="black" r="0.50013" /><circle cx="279.23885" cy="73.4924" fill="black" r="0.50013" /><circle cx="595.5592" cy="44.74001" fill="black" r="0.50013" /><circle cx="475.10976" cy="55.7669" fill="black" r="0.50013" /><circle cx="185.1779" cy="81.51743" fill="black" r="0.50013" /><circle cx="45.13847" cy="94.28421" fill="black" r="0.50013" /><circle cx="187.1659" cy="81.66994" fill="black" r="0.50013" /><circle cx="748.03462" cy="31.19779" fill="black" r="0.50013" /><circle cx="87.52545" cy="89.86143" fill="black" r="0.50013" /><circle cx="726.54363" cy="33.76468" fill="black" r="0.50013" /><circle cx="523.78723" cy="51.77265" fill="black" r="0.50013" /><circle cx="325.87033" cy="68.69264" fill="black" r="0.50013" /><circle cx="144.36542" cy="85.14222" fill="black" r="0.50013" /><circle cx="542.33973" cy="49.46674" fill="black" r="0.50013" /><circle cx="854.80007" cy="21.71533" fill="black" r="0.50013" /><circle cx="405.53629" cy="61.61705" fill="black" r="0.50013" /><circle cx="964.88851" cy="12.59589" fill="black" r="0.50013" /><circle cx="649.48967" cy="40.60829" fill="black" r="0.50013" /><circle cx="284.07835" cy="72.40443" fill="black" r="0.50013" /><circle cx="341.60032" cy="67.95372" fill="black" r="0.50013" /><circle cx="691.55015" cy="36.2145" fill="black" r="0.50013" /><circle cx="145.01842" cy="85.08422" fill="black" r="0.50013" /><circle cx="884.89605" cy="19.70048" fill="black" r="0.50013" /><circle cx="742.86862" cy="32.31476" fill="black" r="0.50013" /><circle cx="871.18306" cy="20.91841" fill="black" r="0.50013" /><circle cx="600.1302" cy="44.33404" fill="black" r="0.50013" /><circle cx="91.79895" cy="89.81095" fill="black" r="0.50013" /><circle cx="355.90832" cy="66.02479" fill="black" r="0.50013" /><circle cx="214.88939" cy="78.87858" fill="black" r="0.50013" /><circle cx="565.90571" cy="48.03186" fill="black" r="0.50013" /><circle cx="463.32677" cy="56.48434" fill="black" r="0.50013" /><circle cx="309.54534" cy="70.14256" fill="black" r="0.50013" /><circle cx="323.91133" cy="68.86663" fill="black" r="0.50013" /><circle cx="51.61047" cy="93.05125" fill="black" r="0.50013" /><circle cx="413.69879" cy="60.89209" fill="black" r="0.50013" /><circle cx="978.57251" cy="11.05146" fill="black" r="0.50013" /><circle cx="584.5162" cy="46.37896" fill="black" r="0.50013" /><circle cx="808.82159" cy="26.4571" fill="black" r="0.50013" /><circle cx="603.72169" cy="44.01505" fill="black" r="0.50013" /><circle cx="103.85044" cy="88.41151" fill="black" r="0.50013" /><circle cx="333.76433" cy="68.64968" fill="black" r="0.50013" /><circle cx="899.85705" cy="17.71356" fill="black" r="0.50013" /><circle cx="296.21685" cy="71.98449" fill="black" r="0.50013" /><circle cx="327.56083" cy="69.20065" fill="black" r="0.50013" /><circle cx="693.89365" cy="36.66451" fill="black" r="0.50013" /><circle cx="456.52827" cy="57.74631" fill="black" r="0.50013" /><circle cx="919.50503" cy="16.62666" fill="black" r="0.50013" /><circle cx="307.97084" cy="70.94055" fill="black" r="0.50013" /><circle cx="461.36777" cy="56.65833" fill="black" r="0.50013" /><circle cx="334.41733" cy="68.59168" fill="black" r="0.50013" /><circle cx="266.14986" cy="74.32584" fill="black" r="0.50013" /><circle cx="33.38448" cy="95.32815" fill="black" r="0.50013" /><circle cx="876.40706" cy="20.45444" fill="black" r="0.50013" /><circle cx="406.51579" cy="61.53005" fill="black" r="0.50013" /><circle cx="204.44139" cy="79.80652" fill="black" r="0.50013" /><circle cx="433.31778" cy="59.47869" fill="black" r="0.50013" /><circle cx="635.09468" cy="41.55771" fill="black" r="0.50013" /><circle cx="524.76673" cy="51.68565" fill="black" r="0.50013" /><circle cx="106.49144" cy="88.50603" fill="black" r="0.50013" /><circle cx="716.36414" cy="34.01063" fill="black" r="0.50013" /><circle cx="789.8556" cy="27.8125" fill="black" r="0.50013" /><circle cx="903.50654" cy="18.04758" fill="black" r="0.50013" /><circle cx="724.22913" cy="33.64117" fill="black" r="0.50013" /><circle cx="340.62082" cy="68.04072" fill="black" r="0.50013" /><circle cx="443.76577" cy="58.55074" fill="black" r="0.50013" /><circle cx="527.70523" cy="51.42467" fill="black" r="0.50013" /><circle cx="927.28303" cy="15.2777" fill="black" r="0.50013" /><circle cx="761.47911" cy="30.66185" fill="black" r="0.50013" /><circle cx="777.4776" cy="29.24094" fill="black" r="0.50013" /><circle cx="81.64846" cy="90.3834" fill="black" r="0.50013" /><circle cx="647.53067" cy="40.78228" fill="black" r="0.50013" /><circle cx="927.99403" cy="15.8727" fill="black" r="0.50013" /><circle cx="934.52403" cy="15.29273" fill="black" r="0.50013" /><circle cx="349.70482" cy="66.57576" fill="black" r="0.50013" /><circle cx="683.11915" cy="37.62146" fill="black" r="0.50013" /><circle cx="375.17181" cy="64.31389" fill="black" r="0.50013" /><circle cx="838.80158" cy="23.13625" fill="black" r="0.50013" /><circle cx="594.2532" cy="44.85601" fill="black" r="0.50013" /><circle cx="984.805" cy="10.82699" fill="black" r="0.50013" /><circle cx="820.84409" cy="24.73116" fill="black" r="0.50013" /><circle cx="68.29096" cy="91.89883" fill="black" r="0.50013" /><circle cx="788.5206" cy="27.60199" fill="black" r="0.50013" /><circle cx="12.10399" cy="96.56005" fill="black" r="0.50013" /><circle cx="832.32958" cy="24.36921" fill="black" r="0.50013" /><circle cx="643.88117" cy="40.44826" fill="black" r="0.50013" /><circle cx="342.55082" cy="67.54023" fill="black" r="0.50013" /><circle cx="248.81637" cy="75.53625" fill="black" r="0.50013" /><circle cx="656.64367" cy="39.64382" fill="black" r="0.50013" /><circle cx="729.80863" cy="33.47469" fill="black" r="0.50013" /><circle cx="96.99395" cy="89.02048" fill="black" r="0.50013" /><circle cx="764.03311" cy="29.77687" fill="black" r="0.50013" /><circle cx="454.56927" cy="57.9203" fill="black" r="0.50013" /><circle cx="71.88246" cy="91.57985" fill="black" r="0.50013" /><circle cx="242.96837" cy="76.38472" fill="black" r="0.50013" /><circle cx="367.36481" cy="65.33635" fill="black" r="0.50013" /><circle cx="182.2394" cy="81.77841" fill="black" r="0.50013" /><circle cx="773.17511" cy="28.96491" fill="black" r="0.50013" /><circle cx="358.25181" cy="66.47481" fill="black" r="0.50013" /><circle cx="759.13562" cy="30.21184" fill="black" r="0.50013" /><circle cx="917.87253" cy="16.77165" fill="black" r="0.50013" /><circle cx="940.07452" cy="14.79976" fill="black" r="0.50013" /><circle cx="619.06719" cy="42.65213" fill="black" r="0.50013" /><circle cx="430.02378" cy="59.44217" fill="black" r="0.50013" /><circle cx="557.35872" cy="48.13282" fill="black" r="0.50013" /><circle cx="868.54206" cy="20.8239" fill="black" r="0.50013" /><circle cx="276.56886" cy="73.07139" fill="black" r="0.50013" /><circle cx="566.85621" cy="47.61837" fill="black" r="0.50013" /><circle cx="162.97591" cy="83.48931" fill="black" r="0.50013" /><circle cx="948.20802" cy="13.7483" fill="black" r="0.50013" /><circle cx="253.38737" cy="75.13027" fill="black" r="0.50013" /><circle cx="591.9967" cy="45.38549" fill="black" r="0.50013" /><circle cx="154.51592" cy="84.56977" fill="black" r="0.50013" /><circle cx="322.96083" cy="69.28013" fill="black" r="0.50013" /><circle cx="392.5343" cy="63.42998" fill="black" r="0.50013" /><circle cx="944.97202" cy="14.36479" fill="black" r="0.50013" /><circle cx="100.31694" cy="89.38349" fill="black" r="0.50013" /><circle cx="233.14438" cy="76.92817" fill="black" r="0.50013" /><circle cx="730.78813" cy="33.3877" fill="black" r="0.50013" /><circle cx="879.64306" cy="19.83796" fill="black" r="0.50013" /><circle cx="610.25169" cy="43.43509" fill="black" r="0.50013" /><circle cx="756.87912" cy="30.74133" fill="black" r="0.50013" /><circle cx="290.33985" cy="72.50646" fill="black" r="0.50013" /><circle cx="191.3814" cy="80.96646" fill="black" r="0.50013" /><circle cx="487.21925" cy="55.02046" fill="black" r="0.50013" /><circle cx="586.7437" cy="45.52297" fill="black" r="0.50013" /><circle cx="889.43805" cy="18.96801" fill="black" r="0.50013" /><circle cx="689.94665" cy="36.68599" fill="black" r="0.50013" /><circle cx="850.55557" cy="22.09231" fill="black" r="0.50013" /><circle cx="297.49385" cy="71.542" fill="black" r="0.50013" /><circle cx="687.36365" cy="37.24448" fill="black" r="0.50013" /><circle cx="274.93636" cy="73.21638" fill="black" r="0.50013" /><circle cx="499.59725" cy="53.59202" fill="black" r="0.50013" /><circle cx="348.07232" cy="66.72075" fill="black" r="0.50013" /><circle cx="607.04469" cy="44.37807" fill="black" r="0.50013" /><circle cx="692.88515" cy="36.42501" fill="black" r="0.50013" /><circle cx="781.0691" cy="28.92195" fill="black" r="0.50013" /><circle cx="460.41726" cy="57.07183" fill="black" r="0.50013" /><circle cx="671.98916" cy="38.2809" fill="black" r="0.50013" /><circle cx="952.45252" cy="13.37133" fill="black" r="0.50013" /><circle cx="580.9247" cy="46.69794" fill="black" r="0.50013" /><circle cx="667.44716" cy="39.01338" fill="black" r="0.50013" /><circle cx="491.10825" cy="54.34598" fill="black" r="0.50013" /><circle cx="913.62804" cy="17.14863" fill="black" r="0.50013" /><circle cx="665.75666" cy="38.50537" fill="black" r="0.50013" /><circle cx="578.3127" cy="46.92992" fill="black" r="0.50013" /><circle cx="115.27794" cy="87.39657" fill="black" r="0.50013" /><circle cx="891.69455" cy="18.43852" fill="black" r="0.50013" /><circle cx="860.35057" cy="21.22236" fill="black" r="0.50013" /><circle cx="700.69215" cy="35.40255" fill="black" r="0.50013" /><circle cx="655.30867" cy="39.43332" fill="black" r="0.50013" /><circle cx="741.86012" cy="32.07526" fill="black" r="0.50013" /><circle cx="207.70639" cy="79.51654" fill="black" r="0.50013" /><circle cx="516.57524" cy="52.08411" fill="black" r="0.50013" /><circle cx="968.12451" cy="11.97941" fill="black" r="0.50013" /><circle cx="465.01726" cy="56.99235" fill="black" r="0.50013" /><circle cx="232.81788" cy="76.95717" fill="black" r="0.50013" /><circle cx="625.59718" cy="42.07216" fill="black" r="0.50013" /><circle cx="535.54123" cy="50.72871" fill="black" r="0.50013" /><circle cx="823.48508" cy="24.82567" fill="black" r="0.50013" /><circle cx="344.15432" cy="67.06873" fill="black" r="0.50013" /><circle cx="384.6693" cy="63.79944" fill="black" r="0.50013" /><circle cx="590.0667" cy="45.88598" fill="black" r="0.50013" /><circle cx="435.57428" cy="58.9492" fill="black" r="0.50013" /><circle cx="754.56462" cy="30.61782" fill="black" r="0.50013" /><circle cx="700.06815" cy="35.78704" fill="black" r="0.50013" /><circle cx="66.36096" cy="92.39932" fill="black" r="0.50013" /><circle cx="407.49529" cy="61.44306" fill="black" r="0.50013" /><circle cx="20.94848" cy="96.10359" fill="black" r="0.50013" /><circle cx="166.92291" cy="83.46783" fill="black" r="0.50013" /><circle cx="508.38374" cy="52.48257" fill="black" r="0.50013" /><circle cx="219.13389" cy="78.5016" fill="black" r="0.50013" /><circle cx="345.81582" cy="67.25024" fill="black" r="0.50013" /><circle cx="872.78656" cy="20.44692" fill="black" r="0.50013" /><circle cx="39.58797" cy="94.77719" fill="black" r="0.50013" /><circle cx="209.63639" cy="79.01605" fill="black" r="0.50013" /><circle cx="118.24544" cy="87.46209" fill="black" r="0.50013" /><circle cx="64.37296" cy="92.24681" fill="black" r="0.50013" /><circle cx="389.5378" cy="63.03797" fill="black" r="0.50013" /><circle cx="874.12156" cy="20.65743" fill="black" r="0.50013" /><circle cx="441.50927" cy="59.08023" fill="black" r="0.50013" /><circle cx="97.97345" cy="88.93348" fill="black" r="0.50013" /><circle cx="166.24091" cy="83.19933" fill="black" r="0.50013" /><circle cx="865.63256" cy="21.41138" fill="black" r="0.50013" /><circle cx="394.4643" cy="62.92949" fill="black" r="0.50013" /><circle cx="253.77187" cy="75.75427" fill="black" r="0.50013" /><circle cx="241.00937" cy="76.55871" fill="black" r="0.50013" /><circle cx="16.37749" cy="96.50957" fill="black" r="0.50013" /><circle cx="902.49804" cy="17.80807" fill="black" r="0.50013" /><circle cx="921.46403" cy="16.45267" fill="black" r="0.50013" /><circle cx="125.75493" cy="86.79512" fill="black" r="0.50013" /><circle cx="734.05313" cy="33.09772" fill="black" r="0.50013" /><circle cx="804.51909" cy="26.18107" fill="black" r="0.50013" /><circle cx="102.89994" cy="88.82501" fill="black" r="0.50013" /><circle cx="783.0281" cy="28.74796" fill="black" r="0.50013" /><circle cx="836.54508" cy="23.66574" fill="black" r="0.50013" /><circle cx="373.27081" cy="65.14088" fill="black" r="0.50013" /><circle cx="30.74348" cy="95.23364" fill="black" r="0.50013" /><circle cx="882.93705" cy="19.87447" fill="black" r="0.50013" /><circle cx="270.74986" cy="74.24636" fill="black" r="0.50013" /><circle cx="364.07081" cy="65.29984" fill="black" r="0.50013" /><circle cx="62.74046" cy="92.3918" fill="black" r="0.50013" /><circle cx="577.3332" cy="47.01692" fill="black" r="0.50013" /><circle cx="150.21342" cy="84.29375" fill="black" r="0.50013" /><circle cx="600.84119" cy="44.92904" fill="black" r="0.50013" /><circle cx="132.61143" cy="86.18616" fill="black" r="0.50013" /><circle cx="304.35034" cy="70.93303" fill="black" r="0.50013" /><circle cx="543.64572" cy="49.35075" fill="black" r="0.50013" /><circle cx="23.23398" cy="95.9006" fill="black" r="0.50013" /><circle cx="237.09138" cy="76.90669" fill="black" r="0.50013" /><circle cx="531.23873" cy="50.45269" fill="black" r="0.50013" /><circle cx="226.61438" cy="77.50814" fill="black" r="0.50013" /><circle cx="438.18628" cy="58.71721" fill="black" r="0.50013" /><circle cx="230.85888" cy="77.13116" fill="black" r="0.50013" /><circle cx="645.51367" cy="40.30327" fill="black" r="0.50013" /><circle cx="96.01445" cy="89.10747" fill="black" r="0.50013" /><circle cx="263.24036" cy="74.91332" fill="black" r="0.50013" /><circle cx="158.40492" cy="83.89529" fill="black" r="0.50013" /><circle cx="156.14842" cy="84.42478" fill="black" r="0.50013" /><circle cx="280.51585" cy="73.04991" fill="black" r="0.50013" /><circle cx="318.36084" cy="69.3596" fill="black" r="0.50013" /><circle cx="217.14589" cy="78.34909" fill="black" r="0.50013" /><circle cx="799.3241" cy="26.97155" fill="black" r="0.50013" /><circle cx="140.41843" cy="85.1637" fill="black" r="0.50013" /><circle cx="270.06786" cy="73.97786" fill="black" r="0.50013" /><circle cx="722.95213" cy="34.08366" fill="black" r="0.50013" /><circle cx="115.66244" cy="88.02057" fill="black" r="0.50013" /><circle cx="666.40966" cy="38.44737" fill="black" r="0.50013" /><circle cx="12.81499" cy="97.15505" fill="black" r="0.50013" /><circle cx="587.7522" cy="45.76247" fill="black" r="0.50013" /><circle cx="825.47308" cy="24.97818" fill="black" r="0.50013" /></svg>