<?xml version="1.0" encoding="utf-8" ?>
<svg baseProfile="full" height="1000" version="1.1" width="1000" xmlns="http://www.w3.org/2000/svg" xmlns:ev="http://www.w3.org/2001/xml-events" xmlns:xlink="http://www.w3.org/1999/xlink"><defs /><line stroke="red" stroke-width="1.1" x1="10.0" x2="990.0" y1="990.0" y2="10.0" /><circle cx="328.28311" cy="671.71689" fill="black" r="0.5" /><circle cx="778.42788" cy="221.57212" fill="black" r="0.5" /><circle cx="869.08764" cy="130.91236" fill="black" r="0.5" /><circle cx="76.7765" cy="923.2235" fill="black" r="0.5" /><circle cx="710.93861" cy="289.06139" fill="black" r="0.5" /><circle cx="412.19386" cy="587.80614" fill="black" r="0.5" /><circle cx="374.28333" cy="625.71667" fill="black" r="0.5" /><circle cx="407.93976" cy="592.06024" fill="black" r="0.5" /><circle cx="22.80075" cy="977.19925" fill="black" r="0.5" /><circle cx="980.93903" cy="19.06097" fill="black" r="0.5" /><circle cx="990.0" cy="10.0" fill="black" r="0.5" /><circle cx="989.6376" cy="10.3624" fill="black" r="0.5" /><circle cx="471.0022" cy="528.9978" fill="black" r="0.5" /><circle cx="821.14204" cy="178.85796" fill="black" r="0.5" /><circle cx="638.75695" cy="361.24305" fill="black" r="0.5" /><circle cx="514.67935" cy="485.32065" fill="black" r="0.5" /><circle cx="479.35886" cy="520.64114" fill="black" r="0.5" /><circle cx="388.83198" cy="611.16802" fill="black" r="0.5" /><circle cx="719.97793" cy="280.02207" fill="black" r="0.5" /><circle cx="986.79448" cy="13.20552" fill="black" r="0.5" /><circle cx="753.6061" cy="246.3939" fill="black" r="0.5" /><circle cx="843.52804" cy="156.47196" fill="black" r="0.5" /><circle cx="576.40086" cy="423.59914" fill="black" r="0.5" /><circle cx="809.4694" cy="190.5306" fill="black" r="0.5" /><circle cx="595.01524" cy="404.98476" fill="black" r="0.5" /><circle cx="361.60585" cy="638.39415" fill="black" r="0.5" /><circle cx="565.40861" cy="434.59139" fill="black" r="0.5" /><circle cx="685.03142" cy="314.96858" fill="black" r="0.5" /><circle cx="310.93994" cy="689.06006" fill="black" r="0.5" /><circle cx="241.91" cy="758.09" fill="black" r="0.5" /><circle cx="266.20685" cy="733.79315" fill="black" r="0.5" /><circle cx="673.82062" cy="326.17938" fill="black" r="0.5" /><circle cx="717.39425" cy="282.60575" fill="black" r="0.5" /><circle cx="247.62174" cy="752.37826" fill="black" r="0.5" /><circle cx="674.00637" cy="325.99362" fill="black" r="0.5" /><circle cx="88.12082" cy="911.87918" fill="black" r="0.5" /><circle cx="680.61083" cy="319.38917" fill="black" r="0.5" /><circle cx="321.15544" cy="678.84456" fill="black" r="0.5" /><circle cx="80.08171" cy="919.91829" fill="black" r="0.5" /><circle cx="405.17372" cy="594.82627" fill="black" r="0.5" /><circle cx="729.68581" cy="270.31419" fill="black" r="0.5" /><circle cx="620.5577" cy="379.4423" fill="black" r="0.5" /><circle cx="20.28365" cy="979.71635" fill="black" r="0.5" /><circle cx="306.8235" cy="693.1765" fill="black" r="0.5" /><circle cx="931.63653" cy="68.36346" fill="black" r="0.5" /><circle cx="885.64022" cy="114.35978" fill="black" r="0.5" /><circle cx="596.04072" cy="403.95928" fill="black" r="0.5" /><circle cx="885.86487" cy="114.13513" fill="black" r="0.5" /><circle cx="424.9678" cy="575.03219" fill="black" r="0.5" /><circle cx="308.34951" cy="691.65049" fill="black" r="0.5" /><circle cx="831.17225" cy="168.82775" fill="black" r="0.5" /><circle cx="537.32137" cy="462.67863" fill="black" r="0.5" /><circle cx="535.14754" cy="464.85246" fill="black" r="0.5" /><circle cx="457.54849" cy="542.45151" fill="black" r="0.5" /><circle cx="197.39186" cy="802.60813" fill="black" r="0.5" /><circle cx="649.67329" cy="350.32671" fill="black" r="0.5" /><circle cx="915.95795" cy="84.04205" fill="black" r="0.5" /><circle cx="471.54891" cy="528.45109" fill="black" r="0.5" /><circle cx="599.49665" cy="400.50335" fill="black" r="0.5" /><circle cx="39.73387" cy="960.26613" fill="black" r="0.5" /><circle cx="558.82716" cy="441.17284" fill="black" r="0.5" /><circle cx="957.35884" cy="42.64116" fill="black" r="0.5" /><circle cx="763.15931" cy="236.84069" fill="black" r="0.5" /><circle cx="79.86659" cy="920.1334" fill="black" r="0.5" /><circle cx="651.36052" cy="348.63948" fill="black" r="0.5" /><circle cx="455.12311" cy="544.87689" fill="black" r="0.5" /><circle cx="45.13035" cy="954.86965" fill="black" r="0.5" /><circle cx="112.42197" cy="887.57803" fill="black" r="0.5" /><circle cx="360.94342" cy="639.05658" fill="black" r="0.5" /><circle cx="862.89289" cy="137.1071" fill="black" r="0.5" /><circle cx="424.49538" cy="575.50462" fill="black" r="0.5" /><circle cx="200.55059" cy="799.44941" fill="black" r="0.5" /><circle cx="840.26899" cy="159.73101" fill="black" r="0.5" /><circle cx="534.47998" cy="465.52001" fill="black" r="0.5" /><circle cx="804.10261" cy="195.89739" fill="black" r="0.5" /><circle cx="23.8599" cy="976.1401" fill="black" r="0.5" /><circle cx="71.08927" cy="928.91073" fill="black" r="0.5" /><circle cx="292.64583" cy="707.35417" fill="black" r="0.5" /><circle cx="778.21341" cy="221.78659" fill="black" r="0.5" /><circle cx="439.79208" cy="560.20792" fill="black" r="0.5" /><circle cx="918.05443" cy="81.94557" fill="black" r="0.5" /><circle cx="36.32202" cy="963.67798" fill="black" r="0.5" /><circle cx="130.09474" cy="869.90526" fill="black" r="0.5" /><circle cx="214.00507" cy="785.99493" fill="black" r="0.5" /><circle cx="620.24626" cy="379.75374" fill="black" r="0.5" /><circle cx="962.61168" cy="37.38832" fill="black" r="0.5" /><circle cx="711.30143" cy="288.69857" fill="black" r="0.5" /><circle cx="246.76548" cy="753.23452" fill="black" r="0.5" /><circle cx="374.52982" cy="625.47018" fill="black" r="0.5" /><circle cx="344.66358" cy="655.33642" fill="black" r="0.5" /><circle cx="11.53147" cy="988.46852" fill="black" r="0.5" /><circle cx="972.74932" cy="27.25068" fill="black" r="0.5" /><circle cx="358.54561" cy="641.45439" fill="black" r="0.5" /><circle cx="794.90431" cy="205.09569" fill="black" r="0.5" /><circle cx="984.09386" cy="15.90614" fill="black" r="0.5" /><circle cx="926.39597" cy="73.60403" fill="black" r="0.5" /><circle cx="520.64792" cy="479.35208" fill="black" r="0.5" /><circle cx="420.03351" cy="579.96649" fill="black" r="0.5" /><circle cx="205.24034" cy="794.75966" fill="black" r="0.5" /><circle cx="367.01258" cy="632.98742" fill="black" r="0.5" /><circle cx="665.17681" cy="334.82319" fill="black" r="0.5" /><circle cx="19.79605" cy="980.20395" fill="black" r="0.5" /><circle cx="484.22683" cy="515.77317" fill="black" r="0.5" /><circle cx="419.12366" cy="580.87634" fill="black" r="0.5" /><circle cx="790.36481" cy="209.63519" fill="black" r="0.5" /><circle cx="436.36334" cy="563.63666" fill="black" r="0.5" /><circle cx="171.70854" cy="828.29146" fill="black" r="0.5" /><circle cx="713.05954" cy="286.94045" fill="black" r="0.5" /><circle cx="378.76575" cy="621.23425" fill="black" r="0.5" /><circle cx="418.93806" cy="581.06193" fill="black" r="0.5" /><circle cx="120.26616" cy="879.73384" fill="black" r="0.5" /><circle cx="112.30381" cy="887.69619" fill="black" r="0.5" /><circle cx="894.17085" cy="105.82915" fill="black" r="0.5" /><circle cx="602.85775" cy="397.14225" fill="black" r="0.5" /><circle cx="908.0734" cy="91.9266" fill="black" r="0.5" /><circle cx="980.8713" cy="19.12869" fill="black" r="0.5" /><circle cx="709.99497" cy="290.00503" fill="black" r="0.5" /><circle cx="785.24774" cy="214.75226" fill="black" r="0.5" /><circle cx="664.12408" cy="335.87592" fill="black" r="0.5" /><circle cx="422.21753" cy="577.78247" fill="black" r="0.5" /><circle cx="443.3564" cy="556.6436" fill="black" r="0.5" /><circle cx="322.53451" cy="677.46549" fill="black" r="0.5" /><circle cx="414.59443" cy="585.40557" fill="black" r="0.5" /><circle cx="44.7822" cy="955.2178" fill="black" r="0.5" /><circle cx="123.93074" cy="876.06926" fill="black" r="0.5" /><circle cx="286.4888" cy="713.51119" fill="black" r="0.5" /><circle cx="934.70107" cy="65.29893" fill="black" r="0.5" /><circle cx="967.65477" cy="32.34523" fill="black" r="0.5" /><circle cx="165.71819" cy="834.28181" fill="black" r="0.5" /><circle cx="364.60456" cy="635.39543" fill="black" r="0.5" /><circle cx="715.41284" cy="284.58716" fill="black" r="0.5" /><circle cx="96.76666" cy="903.23334" fill="black" r="0.5" /><circle cx="668.88456" cy="331.11544" fill="black" r="0.5" /><circle cx="32.83292" cy="967.16708" fill="black" r="0.5" /><circle cx="170.67967" cy="829.32033" fill="black" r="0.5" /><circle cx="717.87283" cy="282.12717" fill="black" r="0.5" /><circle cx="699.71986" cy="300.28014" fill="black" r="0.5" /><circle cx="315.98923" cy="684.01077" fill="black" r="0.5" /><circle cx="928.43635" cy="71.56365" fill="black" r="0.5" /><circle cx="862.16809" cy="137.83191" fill="black" r="0.5" /><circle cx="787.32592" cy="212.67408" fill="black" r="0.5" /><circle cx="149.15796" cy="850.84204" fill="black" r="0.5" /><circle cx="464.95621" cy="535.04379" fill="black" r="0.5" /><circle cx="487.66772" cy="512.33228" fill="black" r="0.5" /><circle cx="503.65307" cy="496.34693" fill="black" r="0.5" /><circle cx="894.20881" cy="105.79119" fill="black" r="0.5" /><circle cx="139.71711" cy="860.28289" fill="black" r="0.5" /><circle cx="810.76292" cy="189.23708" fill="black" r="0.5" /><circle cx="765.05891" cy="234.94108" fill="black" r="0.5" /><circle cx="114.98527" cy="885.01473" fill="black" r="0.5" /><circle cx="472.47798" cy="527.52202" fill="black" r="0.5" /><circle cx="171.93194" cy="828.06806" fill="black" r="0.5" /><circle cx="412.90097" cy="587.09903" fill="black" r="0.5" /><circle cx="87.48811" cy="912.51189" fill="black" r="0.5" /><circle cx="464.88499" cy="535.11501" fill="black" r="0.5" /><circle cx="552.54428" cy="447.45572" fill="black" r="0.5" /><circle cx="953.12465" cy="46.87535" fill="black" r="0.5" /><circle cx="934.25736" cy="65.74264" fill="black" r="0.5" /><circle cx="836.85121" cy="163.14879" fill="black" r="0.5" /><circle cx="119.7859" cy="880.2141" fill="black" r="0.5" /><circle cx="342.99059" cy="657.00941" fill="black" r="0.5" /><circle cx="519.80585" cy="480.19415" fill="black" r="0.5" /><circle cx="125.98401" cy="874.01599" fill="black" r="0.5" /><circle cx="809.55776" cy="190.44223" fill="black" r="0.5" /><circle cx="394.04235" cy="605.95765" fill="black" r="0.5" /><circle cx="932.44484" cy="67.55516" fill="black" r="0.5" /><circle cx="60.34946" cy="939.65053" fill="black" r="0.5" /><circle cx="42.00069" cy="957.99931" fill="black" r="0.5" /><circle cx="610.8093" cy="389.19069" fill="black" r="0.5" /><circle cx="801.59607" cy="198.40393" fill="black" r="0.5" /><circle cx="832.01907" cy="167.98093" fill="black" r="0.5" /><circle cx="735.22015" cy="264.77985" fill="black" r="0.5" /><circle cx="414.12679" cy="585.87321" fill="black" r="0.5" /><circle cx="453.25071" cy="546.74928" fill="black" r="0.5" /><circle cx="265.73595" cy="734.26405" fill="black" r="0.5" /><circle cx="510.08289" cy="489.91711" fill="black" r="0.5" /><circle cx="498.75767" cy="501.24233" fill="black" r="0.5" /><circle cx="277.76882" cy="722.23118" fill="black" r="0.5" /><circle cx="910.84121" cy="89.15879" fill="black" r="0.5" /><circle cx="482.80614" cy="517.19386" fill="black" r="0.5" /><circle cx="583.40327" cy="416.59673" fill="black" r="0.5" /><circle cx="322.30843" cy="677.69157" fill="black" r="0.5" /><circle cx="640.54117" cy="359.45883" fill="black" r="0.5" /><circle cx="21.99086" cy="978.00914" fill="black" r="0.5" /><circle cx="537.01949" cy="462.98051" fill="black" r="0.5" /><circle cx="196.37229" cy="803.62771" fill="black" r="0.5" /><circle cx="927.10767" cy="72.89233" fill="black" r="0.5" /><circle cx="114.44245" cy="885.55754" fill="black" r="0.5" /><circle cx="717.07072" cy="282.92927" fill="black" r="0.5" /><circle cx="737.66059" cy="262.33941" fill="black" r="0.5" /><circle cx="827.12291" cy="172.87709" fill="black" r="0.5" /><circle cx="625.23233" cy="374.76767" fill="black" r="0.5" /><circle cx="160.63396" cy="839.36604" fill="black" r="0.5" /><circle cx="150.88482" cy="849.11518" fill="black" r="0.5" /><circle cx="758.17957" cy="241.82043" fill="black" r="0.5" /><circle cx="474.85077" cy="525.14923" fill="black" r="0.5" /><circle cx="766.70952" cy="233.29048" fill="black" r="0.5" /><circle cx="455.49364" cy="544.50636" fill="black" r="0.5" /><circle cx="104.76105" cy="895.23895" fill="black" r="0.5" /><circle cx="865.93764" cy="134.06236" fill="black" r="0.5" /><circle cx="516.72605" cy="483.27394" fill="black" r="0.5" /><circle cx="637.15829" cy="362.84171" fill="black" r="0.5" /><circle cx="468.39263" cy="531.60737" fill="black" r="0.5" /><circle cx="359.41726" cy="640.58274" fill="black" r="0.5" /><circle cx="971.04148" cy="28.95852" fill="black" r="0.5" /><circle cx="117.85896" cy="882.14104" fill="black" r="0.5" /><circle cx="513.10504" cy="486.89496" fill="black" r="0.5" /><circle cx="915.88858" cy="84.11142" fill="black" r="0.5" /><circle cx="362.40648" cy="637.59352" fill="black" r="0.5" /><circle cx="643.5547" cy="356.4453" fill="black" r="0.5" /><circle cx="47.61345" cy="952.38655" fill="black" r="0.5" /><circle cx="153.79969" cy="846.20031" fill="black" r="0.5" /><circle cx="203.82932" cy="796.17068" fill="black" r="0.5" /><circle cx="566.91789" cy="433.08211" fill="black" r="0.5" /><circle cx="555.15207" cy="444.84793" fill="black" r="0.5" /><circle cx="920.88107" cy="79.11893" fill="black" r="0.5" /><circle cx="944.31531" cy="55.68469" fill="black" r="0.5" /><circle cx="20.67854" cy="979.32146" fill="black" r="0.5" /><circle cx="225.89601" cy="774.10399" fill="black" r="0.5" /><circle cx="557.79529" cy="442.20471" fill="black" r="0.5" /><circle cx="225.5558" cy="774.4442" fill="black" r="0.5" /><circle cx="985.40838" cy="14.59161" fill="black" r="0.5" /><circle cx="47.39298" cy="952.60702" fill="black" r="0.5" /><circle cx="188.39077" cy="811.60923" fill="black" r="0.5" /><circle cx="411.64013" cy="588.35987" fill="black" r="0.5" /><circle cx="192.26048" cy="807.73952" fill="black" r="0.5" /><circle cx="984.57434" cy="15.42566" fill="black" r="0.5" /><circle cx="255.0087" cy="744.9913" fill="black" r="0.5" /><circle cx="584.85638" cy="415.14362" fill="black" r="0.5" /><circle cx="262.63665" cy="737.36335" fill="black" r="0.5" /><circle cx="763.76868" cy="236.23132" fill="black" r="0.5" /><circle cx="978.60049" cy="21.39951" fill="black" r="0.5" /><circle cx="952.71107" cy="47.28893" fill="black" r="0.5" /><circle cx="973.78259" cy="26.21741" fill="black" r="0.5" /><circle cx="194.39312" cy="805.60688" fill="black" r="0.5" /><circle cx="718.31221" cy="281.68779" fill="black" r="0.5" /><circle cx="739.97969" cy="260.02031" fill="black" r="0.5" /><circle cx="89.63674" cy="910.36326" fill="black" r="0.5" /><circle cx="773.54881" cy="226.45119" fill="black" r="0.5" /><circle cx="799.77686" cy="200.22314" fill="black" r="0.5" /><circle cx="223.596" cy="776.404" fill="black" r="0.5" /><circle cx="14.17308" cy="985.82692" fill="black" r="0.5" /><circle cx="108.11232" cy="891.88768" fill="black" r="0.5" /><circle cx="106.59602" cy="893.40398" fill="black" r="0.5" /><circle cx="923.56308" cy="76.43691" fill="black" r="0.5" /><circle cx="379.2233" cy="620.7767" fill="black" r="0.5" /><circle cx="608.35394" cy="391.64606" fill="black" r="0.5" /><circle cx="801.25765" cy="198.74235" fill="black" r="0.5" /><circle cx="392.57776" cy="607.42224" fill="black" r="0.5" /><circle cx="724.49684" cy="275.50316" fill="black" r="0.5" /><circle cx="705.08551" cy="294.91449" fill="black" r="0.5" /><circle cx="760.21008" cy="239.78992" fill="black" r="0.5" /><circle cx="353.39692" cy="646.60308" fill="black" r="0.5" /><circle cx="134.43261" cy="865.56739" fill="black" r="0.5" /><circle cx="757.25315" cy="242.74685" fill="black" r="0.5" /><circle cx="391.07219" cy="608.92781" fill="black" r="0.5" /><circle cx="115.22136" cy="884.77864" fill="black" r="0.5" /><circle cx="496.87788" cy="503.12212" fill="black" r="0.5" /><circle cx="112.31988" cy="887.68012" fill="black" r="0.5" /><circle cx="846.19863" cy="153.80137" fill="black" r="0.5" /><circle cx="668.24205" cy="331.75795" fill="black" r="0.5" /><circle cx="221.44142" cy="778.55857" fill="black" r="0.5" /><circle cx="983.53694" cy="16.46306" fill="black" r="0.5" /><circle cx="851.63485" cy="148.36515" fill="black" r="0.5" /><circle cx="709.54839" cy="290.45161" fill="black" r="0.5" /><circle cx="730.52368" cy="269.47632" fill="black" r="0.5" /><circle cx="288.21965" cy="711.78035" fill="black" r="0.5" /><circle cx="875.84335" cy="124.15665" fill="black" r="0.5" /><circle cx="918.77926" cy="81.22074" fill="black" r="0.5" /><circle cx="183.85072" cy="816.14928" fill="black" r="0.5" /><circle cx="976.70542" cy="23.29458" fill="black" r="0.5" /><circle cx="797.78267" cy="202.21733" fill="black" r="0.5" /><circle cx="40.37245" cy="959.62755" fill="black" r="0.5" /><circle cx="402.21777" cy="597.78223" fill="black" r="0.5" /><circle cx="316.99165" cy="683.00834" fill="black" r="0.5" /><circle cx="957.09297" cy="42.90703" fill="black" r="0.5" /><circle cx="15.08622" cy="984.91378" fill="black" r="0.5" /><circle cx="594.62005" cy="405.37995" fill="black" r="0.5" /><circle cx="208.21331" cy="791.78669" fill="black" r="0.5" /><circle cx="407.29107" cy="592.70893" fill="black" r="0.5" /><circle cx="233.93339" cy="766.0666" fill="black" r="0.5" /><circle cx="525.62254" cy="474.37746" fill="black" r="0.5" /><circle cx="210.4973" cy="789.5027" fill="black" r="0.5" /><circle cx="483.27691" cy="516.72308" fill="black" r="0.5" /><circle cx="152.30863" cy="847.69137" fill="black" r="0.5" /><circle cx="922.52155" cy="77.47845" fill="black" r="0.5" /><circle cx="504.33486" cy="495.66513" fill="black" r="0.5" /><circle cx="478.25477" cy="521.74523" fill="black" r="0.5" /><circle cx="435.94921" cy="564.05079" fill="black" r="0.5" /><circle cx="504.60354" cy="495.39646" fill="black" r="0.5" /><circle cx="152.78019" cy="847.21981" fill="black" r="0.5" /><circle cx="395.38108" cy="604.61892" fill="black" r="0.5" /><circle cx="638.709" cy="361.291" fill="black" r="0.5" /><circle cx="804.02155" cy="195.97844" fill="black" r="0.5" /><circle cx="560.61991" cy="439.38009" fill="black" r="0.5" /><circle cx="311.02666" cy="688.97334" fill="black" r="0.5" /><circle cx="464.89417" cy="535.10583" fill="black" r="0.5" /><circle cx="112.17899" cy="887.82101" fill="black" r="0.5" /><circle cx="374.21013" cy="625.78987" fill="black" r="0.5" /><circle cx="858.98581" cy="141.01419" fill="black" r="0.5" /><circle cx="973.91741" cy="26.08259" fill="black" r="0.5" /><circle cx="137.46906" cy="862.53094" fill="black" r="0.5" /><circle cx="965.29785" cy="34.70215" fill="black" r="0.5" /><circle cx="449.59954" cy="550.40045" fill="black" r="0.5" /><circle cx="182.86803" cy="817.13197" fill="black" r="0.5" /><circle cx="675.01355" cy="324.98645" fill="black" r="0.5" /><circle cx="127.30093" cy="872.69907" fill="black" r="0.5" /><circle cx="398.1507" cy="601.84929" fill="black" r="0.5" /><circle cx="678.74589" cy="321.25411" fill="black" r="0.5" /><circle cx="558.28038" cy="441.71962" fill="black" r="0.5" /><circle cx="120.82491" cy="879.17509" fill="black" r="0.5" /><circle cx="149.70531" cy="850.29469" fill="black" r="0.5" /><circle cx="664.02615" cy="335.97385" fill="black" r="0.5" /><circle cx="989.46772" cy="10.53228" fill="black" r="0.5" /><circle cx="107.23864" cy="892.76136" fill="black" r="0.5" /><circle cx="597.50141" cy="402.49859" fill="black" r="0.5" /><circle cx="664.00954" cy="335.99046" fill="black" r="0.5" /><circle cx="822.42955" cy="177.57045" fill="black" r="0.5" /><circle cx="160.56148" cy="839.43852" fill="black" r="0.5" /><circle cx="120.37702" cy="879.62298" fill="black" r="0.5" /><circle cx="659.58927" cy="340.41073" fill="black" r="0.5" /><circle cx="308.56421" cy="691.43579" fill="black" r="0.5" /><circle cx="508.15291" cy="491.84708" fill="black" r="0.5" /><circle cx="918.5781" cy="81.4219" fill="black" r="0.5" /><circle cx="43.6059" cy="956.3941" fill="black" r="0.5" /><circle cx="503.85756" cy="496.14244" fill="black" r="0.5" /><circle cx="187.64127" cy="812.35873" fill="black" r="0.5" /><circle cx="185.43755" cy="814.56245" fill="black" r="0.5" /><circle cx="143.00657" cy="856.99343" fill="black" r="0.5" /><circle cx="985.59944" cy="14.40056" fill="black" r="0.5" /><circle cx="495.43001" cy="504.56998" fill="black" r="0.5" /><circle cx="343.38829" cy="656.61171" fill="black" r="0.5" /><circle cx="955.90912" cy="44.09088" fill="black" r="0.5" /><circle cx="666.24376" cy="333.75624" fill="black" r="0.5" /><circle cx="561.74568" cy="438.25432" fill="black" r="0.5" /><circle cx="95.06914" cy="904.93086" fill="black" r="0.5" /><circle cx="153.55462" cy="846.44538" fill="black" r="0.5" /><circle cx="110.2063" cy="889.7937" fill="black" r="0.5" /><circle cx="672.58226" cy="327.41774" fill="black" r="0.5" /><circle cx="725.79271" cy="274.20729" fill="black" r="0.5" /><circle cx="161.7035" cy="838.2965" fill="black" r="0.5" /><circle cx="817.0757" cy="182.9243" fill="black" r="0.5" /><circle cx="242.87361" cy="757.12638" fill="black" r="0.5" /><circle cx="584.00301" cy="415.99699" fill="black" r="0.5" /><circle cx="602.58806" cy="397.41194" fill="black" r="0.5" /><circle cx="662.53775" cy="337.46224" fill="black" r="0.5" /><circle cx="619.80204" cy="380.19796" fill="black" r="0.5" /><circle cx="643.61383" cy="356.38617" fill="black" r="0.5" /><circle cx="550.20358" cy="449.79641" fill="black" r="0.5" /><circle cx="270.09432" cy="729.90568" fill="black" r="0.5" /><circle cx="176.15664" cy="823.84336" fill="black" r="0.5" /><circle cx="646.84061" cy="353.15939" fill="black" r="0.5" /><circle cx="545.9623" cy="454.0377" fill="black" r="0.5" /><circle cx="655.53784" cy="344.46216" fill="black" r="0.5" /><circle cx="526.16251" cy="473.83749" fill="black" r="0.5" /><circle cx="308.24546" cy="691.75454" fill="black" r="0.5" /><circle cx="803.98636" cy="196.01364" fill="black" r="0.5" /><circle cx="862.47639" cy="137.52361" fill="black" r="0.5" /><circle cx="318.27103" cy="681.72897" fill="black" r="0.5" /><circle cx="686.52217" cy="313.47783" fill="black" r="0.5" /><circle cx="55.67441" cy="944.32558" fill="black" r="0.5" /><circle cx="273.22101" cy="726.77899" fill="black" r="0.5" /><circle cx="682.93218" cy="317.06782" fill="black" r="0.5" /><circle cx="903.38465" cy="96.61535" fill="black" r="0.5" /><circle cx="409.17745" cy="590.82255" fill="black" r="0.5" /><circle cx="839.34364" cy="160.65636" fill="black" r="0.5" /><circle cx="808.51168" cy="191.48832" fill="black" r="0.5" /><circle cx="323.59613" cy="676.40386" fill="black" r="0.5" /><circle cx="516.14517" cy="483.85483" fill="black" r="0.5" /><circle cx="932.56997" cy="67.43003" fill="black" r="0.5" /><circle cx="645.88255" cy="354.11745" fill="black" r="0.5" /><circle cx="195.0639" cy="804.9361" fill="black" r="0.5" /><circle cx="555.90568" cy="444.09432" fill="black" r="0.5" /><circle cx="154.63953" cy="845.36047" fill="black" r="0.5" /><circle cx="882.1942" cy="117.8058" fill="black" r="0.5" /><circle cx="236.98364" cy="763.01636" fill="black" r="0.5" /><circle cx="194.86501" cy="805.13499" fill="black" r="0.5" /><circle cx="540.20717" cy="459.79283" fill="black" r="0.5" /><circle cx="293.11495" cy="706.88505" fill="black" r="0.5" /><circle cx="216.24964" cy="783.75036" fill="black" r="0.5" /><circle cx="796.6266" cy="203.3734" fill="black" r="0.5" /><circle cx="808.1746" cy="191.8254" fill="black" r="0.5" /><circle cx="548.31148" cy="451.68852" fill="black" r="0.5" /><circle cx="14.46203" cy="985.53797" fill="black" r="0.5" /><circle cx="758.2022" cy="241.7978" fill="black" r="0.5" /><circle cx="673.95996" cy="326.04003" fill="black" r="0.5" /><circle cx="645.61877" cy="354.38123" fill="black" r="0.5" /><circle cx="560.60763" cy="439.39237" fill="black" r="0.5" /><circle cx="981.06378" cy="18.93622" fill="black" r="0.5" /><circle cx="679.28415" cy="320.71585" fill="black" r="0.5" /><circle cx="88.78125" cy="911.21874" fill="black" r="0.5" /><circle cx="111.32241" cy="888.67759" fill="black" r="0.5" /><circle cx="775.91337" cy="224.08663" fill="black" r="0.5" /><circle cx="91.79423" cy="908.20577" fill="black" r="0.5" /><circle cx="564.83547" cy="435.16453" fill="black" r="0.5" /><circle cx="488.18696" cy="511.81304" fill="black" r="0.5" /><circle cx="662.41261" cy="337.58739" fill="black" r="0.5" /><circle cx="279.33363" cy="720.66637" fill="black" r="0.5" /><circle cx="957.18836" cy="42.81164" fill="black" r="0.5" /><circle cx="154.02239" cy="845.97761" fill="black" r="0.5" /><circle cx="507.69283" cy="492.30717" fill="black" r="0.5" /><circle cx="899.01571" cy="100.98429" fill="black" r="0.5" /><circle cx="254.57484" cy="745.42516" fill="black" r="0.5" /><circle cx="418.64105" cy="581.35895" fill="black" r="0.5" /><circle cx="280.15679" cy="719.84321" fill="black" r="0.5" /><circle cx="702.00802" cy="297.99198" fill="black" r="0.5" /><circle cx="404.54939" cy="595.45061" fill="black" r="0.5" /><circle cx="410.46769" cy="589.53231" fill="black" r="0.5" /><circle cx="643.94231" cy="356.05769" fill="black" r="0.5" /><circle cx="579.0519" cy="420.9481" fill="black" r="0.5" /><circle cx="324.39004" cy="675.60996" fill="black" r="0.5" /><circle cx="219.42179" cy="780.57821" fill="black" r="0.5" /><circle cx="349.82993" cy="650.17007" fill="black" r="0.5" /><circle cx="301.86032" cy="698.13967" fill="black" r="0.5" /><circle cx="732.66231" cy="267.33769" fill="black" r="0.5" /><circle cx="715.84902" cy="284.15098" fill="black" r="0.5" /><circle cx="875.47812" cy="124.52188" fill="black" r="0.5" /><circle cx="715.15246" cy="284.84754" fill="black" r="0.5" /><circle cx="478.1155" cy="521.8845" fill="black" r="0.5" /><circle cx="237.8127" cy="762.1873" fill="black" r="0.5" /><circle cx="532.05409" cy="467.94591" fill="black" r="0.5" /><circle cx="301.39864" cy="698.60136" fill="black" r="0.5" /><circle cx="173.95459" cy="826.04541" fill="black" r="0.5" /><circle cx="219.04845" cy="780.95155" fill="black" r="0.5" /><circle cx="126.22434" cy="873.77566" fill="black" r="0.5" /><circle cx="51.95787" cy="948.04213" fill="black" r="0.5" /><circle cx="343.92391" cy="656.07609" fill="black" r="0.5" /><circle cx="646.41263" cy="353.58736" fill="black" r="0.5" /><circle cx="865.61549" cy="134.38451" fill="black" r="0.5" /><circle cx="793.33269" cy="206.66731" fill="black" r="0.5" /><circle cx="831.23177" cy="168.76823" fill="black" r="0.5" /><circle cx="77.46607" cy="922.53393" fill="black" r="0.5" /><circle cx="467.05584" cy="532.94416" fill="black" r="0.5" /><circle cx="660.47108" cy="339.52892" fill="black" r="0.5" /><circle cx="157.06128" cy="842.93872" fill="black" r="0.5" /><circle cx="752.58881" cy="247.41119" fill="black" r="0.5" /><circle cx="580.81451" cy="419.18549" fill="black" r="0.5" /><circle cx="201.11693" cy="798.88307" fill="black" r="0.5" /><circle cx="760.08916" cy="239.91083" fill="black" r="0.5" /><circle cx="638.35426" cy="361.64574" fill="black" r="0.5" /><circle cx="220.97114" cy="779.02886" fill="black" r="0.5" /><circle cx="40.91294" cy="959.08706" fill="black" r="0.5" /><circle cx="490.3331" cy="509.6669" fill="black" r="0.5" /><circle cx="840.43765" cy="159.56235" fill="black" r="0.5" /><circle cx="434.37491" cy="565.62509" fill="black" r="0.5" /><circle cx="566.76911" cy="433.23089" fill="black" r="0.5" /><circle cx="707.03246" cy="292.96753" fill="black" r="0.5" /><circle cx="905.95165" cy="94.04835" fill="black" r="0.5" /><circle cx="380.29624" cy="619.70376" fill="black" r="0.5" /><circle cx="969.23319" cy="30.76681" fill="black" r="0.5" /><circle cx="483.42683" cy="516.57316" fill="black" r="0.5" /><circle cx="671.59588" cy="328.40412" fill="black" r="0.5" /><circle cx="123.27801" cy="876.72199" fill="black" r="0.5" /><circle cx="365.11017" cy="634.88983" fill="black" r="0.5" /><circle cx="602.04797" cy="397.95203" fill="black" r="0.5" /><circle cx="867.83537" cy="132.16463" fill="black" r="0.5" /><circle cx="148.89362" cy="851.10638" fill="black" r="0.5" /><circle cx="740.5998" cy="259.4002" fill="black" r="0.5" /><circle cx="22.12826" cy="977.87174" fill="black" r="0.5" /><circle cx="977.17444" cy="22.82556" fill="black" r="0.5" /><circle cx="434.64578" cy="565.35422" fill="black" r="0.5" /><circle cx="814.92752" cy="185.07248" fill="black" r="0.5" /><circle cx="887.62366" cy="112.37634" fill="black" r="0.5" /><circle cx="883.27669" cy="116.72331" fill="black" r="0.5" /><circle cx="575.20191" cy="424.79809" fill="black" r="0.5" /><circle cx="313.19358" cy="686.80642" fill="black" r="0.5" /><circle cx="554.10971" cy="445.89029" fill="black" r="0.5" /><circle cx="119.78722" cy="880.21278" fill="black" r="0.5" /><circle cx="68.11355" cy="931.88645" fill="black" r="0.5" /><circle cx="507.45246" cy="492.54754" fill="black" r="0.5" /><circle cx="699.78894" cy="300.21106" fill="black" r="0.5" /><circle cx="157.46371" cy="842.53629" fill="black" r="0.5" /><circle cx="209.49338" cy="790.50662" fill="black" r="0.5" /><circle cx="167.58482" cy="832.41518" fill="black" r="0.5" /><circle cx="341.954" cy="658.046" fill="black" r="0.5" /><circle cx="870.78872" cy="129.21128" fill="black" r="0.5" /><circle cx="724.20694" cy="275.79306" fill="black" r="0.5" /><circle cx="318.99662" cy="681.00337" fill="black" r="0.5" /><circle cx="115.87555" cy="884.12445" fill="black" r="0.5" /><circle cx="414.38394" cy="585.61606" fill="black" r="0.5" /><circle cx="338.91976" cy="661.08024" fill="black" r="0.5" /><circle cx="166.54229" cy="833.45771" fill="black" r="0.5" /><circle cx="232.70132" cy="767.29868" fill="black" r="0.5" /><circle cx="828.97524" cy="171.02476" fill="black" r="0.5" /><circle cx="39.01845" cy="960.98155" fill="black" r="0.5" /><circle cx="513.67768" cy="486.32232" fill="black" r="0.5" /><circle cx="570.38036" cy="429.61964" fill="black" r="0.5" /><circle cx="776.44253" cy="223.55747" fill="black" r="0.5" /><circle cx="580.18266" cy="419.81734" fill="black" r="0.5" /><circle cx="491.19702" cy="508.80298" fill="black" r="0.5" /><circle cx="55.78931" cy="944.21069" fill="black" r="0.5" /><circle cx="364.16332" cy="635.83668" fill="black" r="0.5" /><circle cx="832.17315" cy="167.82685" fill="black" r="0.5" /><circle cx="977.76081" cy="22.23919" fill="black" r="0.5" /><circle cx="717.58872" cy="282.41127" fill="black" r="0.5" /><circle cx="435.28461" cy="564.71539" fill="black" r="0.5" /><circle cx="745.18375" cy="254.81624" fill="black" r="0.5" /><circle cx="168.40095" cy="831.59905" fill="black" r="0.5" /><circle cx="755.7609" cy="244.2391" fill="black" r="0.5" /><circle cx="185.63273" cy="814.36727" fill="black" r="0.5" /></svg>