<?xml version="1.0" encoding="utf-8" ?>
<svg baseProfile="full" height="1000" version="1.1" width="1000" xmlns="http://www.w3.org/2000/svg" xmlns:ev="http://www.w3.org/2001/xml-events" xmlns:xlink="http://www.w3.org/1999/xlink"><defs /><line stroke="red" stroke-width="1.61643" x1="28.46154" x2="990.0" y1="990.0" y2="28.46154" /><circle cx="20.76923" cy="11.53846" fill="black" r="0.73474" /><circle cx="36.15385" cy="37.69231" fill="black" r="0.73474" /><circle cx="33.84615" cy="13.07692" fill="black" r="0.73474" /><circle cx="40.76923" cy="13.84615" fill="black" r="0.73474" /><circle cx="15.38462" cy="30.0" fill="black" r="0.73474" /><circle cx="46.92308" cy="16.15385" fill="black" r="0.73474" /><circle cx="16.15385" cy="14.61538" fill="black" r="0.73474" /><circle cx="35.38462" cy="19.23077" fill="black" r="0.73474" /><circle cx="42.30769" cy="39.23077" fill="black" r="0.73474" /><circle cx="30.76923" cy="47.69231" fill="black" r="0.73474" /><circle cx="13.07692" cy="26.92308" fill="black" r="0.73474" /><circle cx="29.23077" cy="25.38462" fill="black" r="0.73474" /><circle cx="43.07692" cy="26.15385" fill="black" r="0.73474" /><circle cx="13.84615" cy="23.07692" fill="black" r="0.73474" /><circle cx="10.76923" cy="40.0" fill="black" r="0.73474" /><circle cx="12.30769" cy="41.53846" fill="black" r="0.73474" /><circle cx="24.61538" cy="43.84615" fill="black" r="0.73474" /><circle cx="23.84615" cy="27.69231" fill="black" r="0.73474" /><circle cx="26.92308" cy="12.30769" fill="black" r="0.73474" /><circle cx="34.61538" cy="21.53846" fill="black" r="0.73474" /><circle cx="47.69231" cy="33.84615" fill="black" r="0.73474" /><circle cx="45.38462" cy="10.76923" fill="black" r="0.73474" /><circle cx="46.15385" cy="30.76923" fill="black" r="0.73474" /><circle cx="36.92308" cy="31.53846" fill="black" r="0.73474" /><circle cx="16.92308" cy="29.23077" fill="black" r="0.73474" /><circle cx="38.46154" cy="16.92308" fill="black" r="0.73474" /><circle cx="44.61538" cy="34.61538" fill="black" r="0.73474" /><circle cx="26.15385" cy="20.0" fill="black" r="0.73474" /><circle cx="14.61538" cy="18.46154" fill="black" r="0.73474" /><circle cx="20.0" cy="17.69231" fill="black" r="0.73474" /><circle cx="27.69231" cy="10.0" fill="black" r="0.73474" /><circle cx="28.46154" cy="43.07692" fill="black" r="0.73474" /><circle cx="22.30769" cy="40.76923" fill="black" r="0.73474" /><circle cx="31.53846" cy="36.15385" fill="black" r="0.73474" /><circle cx="19.23077" cy="46.92308" fill="black" r="0.73474" /><circle cx="33.07692" cy="44.61538" fill="black" r="0.73474" /><circle cx="10.0" cy="42.30769" fill="black" r="0.73474" /><circle cx="21.53846" cy="36.92308" fill="black" r="0.73474" /><circle cx="37.69231" cy="24.61538" fill="black" r="0.73474" /><circle cx="30.0" cy="46.15385" fill="black" r="0.73474" /><circle cx="39.23077" cy="38.46154" fill="black" r="0.73474" /><circle cx="18.46154" cy="23.84615" fill="black" r="0.73474" /><circle cx="17.69231" cy="28.46154" fill="black" r="0.73474" /><circle cx="11.53846" cy="32.30769" fill="black" r="0.73474" /><circle cx="40.0" cy="33.07692" fill="black" r="0.73474" /><circle cx="23.07692" cy="15.38462" fill="black" r="0.73474" /><circle cx="43.84615" cy="22.30769" fill="black" r="0.73474" /><circle cx="32.30769" cy="45.38462" fill="black" r="0.73474" /><circle cx="41.53846" cy="35.38462" fill="black" r="0.73474" /><circle cx="25.38462" cy="20.76923" fill="black" r="0.73474" /></svg>