<?xml version="1.0" encoding="utf-8" ?>
<svg baseProfile="full" height="1000" version="1.1" width="1000" xmlns="http://www.w3.org/2000/svg" xmlns:ev="http://www.w3.org/2001/xml-events" xmlns:xlink="http://www.w3.org/1999/xlink"><defs /><line stroke="red" stroke-width="1.1062" x1="11.94828" x2="990.0" y1="990.0" y2="11.94828" /><circle cx="10.92328" cy="12.44904" fill="black" r="0.50282" /><circle cx="10.27385" cy="13.77137" fill="black" r="0.50282" /><circle cx="11.44752" cy="11.19714" fill="black" r="0.50282" /><circle cx="10.89981" cy="10.79809" fill="black" r="0.50282" /><circle cx="11.2832" cy="11.9874" fill="black" r="0.50282" /><circle cx="13.38015" cy="12.51946" fill="black" r="0.50282" /><circle cx="10.89198" cy="11.93263" fill="black" r="0.50282" /><circle cx="10.66508" cy="11.36145" fill="black" r="0.50282" /><circle cx="11.04065" cy="12.62118" fill="black" r="0.50282" /><circle cx="13.00457" cy="13.60705" fill="black" r="0.50282" /><circle cx="13.57576" cy="10.49294" fill="black" r="0.50282" /><circle cx="10.6103" cy="10.97805" fill="black" r="0.50282" /><circle cx="11.51011" cy="10.88416" fill="black" r="0.50282" /><circle cx="13.49751" cy="12.14389" fill="black" r="0.50282" /><circle cx="12.35515" cy="10.14866" fill="black" r="0.50282" /><circle cx="10.3834" cy="11.51794" fill="black" r="0.50282" /><circle cx="12.44904" cy="11.76832" fill="black" r="0.50282" /><circle cx="13.48969" cy="10.3521" fill="black" r="0.50282" /><circle cx="10.0313" cy="10.31298" fill="black" r="0.50282" /><circle cx="12.06565" cy="12.25343" fill="black" r="0.50282" /><circle cx="12.94198" cy="12.64465" fill="black" r="0.50282" /><circle cx="12.24561" cy="12.81679" fill="black" r="0.50282" /><circle cx="12.7229" cy="11.3771" fill="black" r="0.50282" /><circle cx="11.45534" cy="13.3332" fill="black" r="0.50282" /><circle cx="13.44274" cy="11.0563" fill="black" r="0.50282" /><circle cx="13.0124" cy="12.22213" fill="black" r="0.50282" /><circle cx="12.36297" cy="10.72767" fill="black" r="0.50282" /><circle cx="13.11412" cy="10.6729" fill="black" r="0.50282" /><circle cx="10.02347" cy="10.00782" fill="black" r="0.50282" /><circle cx="12.04217" cy="10.78244" fill="black" r="0.50282" /><circle cx="13.69312" cy="13.84961" fill="black" r="0.50282" /><circle cx="12.08129" cy="12.26126" fill="black" r="0.50282" /><circle cx="12.55076" cy="10.84504" fill="black" r="0.50282" /><circle cx="13.29408" cy="13.81049" fill="black" r="0.50282" /><circle cx="12.83244" cy="13.48186" fill="black" r="0.50282" /><circle cx="13.07499" cy="10.82939" fill="black" r="0.50282" /><circle cx="12.03435" cy="11.25973" fill="black" r="0.50282" /><circle cx="12.81679" cy="12.45687" fill="black" r="0.50282" /><circle cx="10.50076" cy="12.37862" fill="black" r="0.50282" /><circle cx="13.09847" cy="11.18931" fill="black" r="0.50282" /><circle cx="10.52424" cy="11.23626" fill="black" r="0.50282" /><circle cx="12.9811" cy="11.9561" fill="black" r="0.50282" /><circle cx="11.91698" cy="12.15954" fill="black" r="0.50282" /><circle cx="11.77614" cy="11.92481" fill="black" r="0.50282" /><circle cx="10.50859" cy="10.07824" fill="black" r="0.50282" /><circle cx="10.9624" cy="11.61965" fill="black" r="0.50282" /><circle cx="12.50381" cy="10.34427" fill="black" r="0.50282" /><circle cx="11.01717" cy="10.43034" fill="black" r="0.50282" /><circle cx="12.58206" cy="13.50534" fill="black" r="0.50282" /><circle cx="13.31755" cy="10.58683" fill="black" r="0.50282" /><circle cx="11.73702" cy="10.60248" fill="black" r="0.50282" /><circle cx="10.72767" cy="12.57423" fill="black" r="0.50282" /><circle cx="12.85591" cy="12.29255" fill="black" r="0.50282" /><circle cx="12.69942" cy="11.10324" fill="black" r="0.50282" /><circle cx="13.34885" cy="12.48034" fill="black" r="0.50282" /><circle cx="11.93263" cy="12.20648" fill="black" r="0.50282" /><circle cx="13.66965" cy="13.10629" fill="black" r="0.50282" /><circle cx="11.604" cy="10.77462" fill="black" r="0.50282" /><circle cx="12.28473" cy="13.24713" fill="black" r="0.50282" /><circle cx="12.42557" cy="11.09542" fill="black" r="0.50282" /><circle cx="10.21126" cy="12.60553" fill="black" r="0.50282" /><circle cx="11.04847" cy="13.79484" fill="black" r="0.50282" /><circle cx="11.15801" cy="11.87003" fill="black" r="0.50282" /><circle cx="12.26908" cy="11.59618" fill="black" r="0.50282" /><circle cx="10.37557" cy="13.25496" fill="black" r="0.50282" /><circle cx="13.37232" cy="13.12977" fill="black" r="0.50282" /><circle cx="10.05477" cy="10.40687" fill="black" r="0.50282" /><circle cx="13.77137" cy="13.56793" fill="black" r="0.50282" /><circle cx="13.20019" cy="12.28473" fill="black" r="0.50282" /><circle cx="13.63835" cy="10.51641" fill="black" r="0.50282" /><circle cx="10.19561" cy="10.89981" fill="black" r="0.50282" /><circle cx="12.21431" cy="12.80114" fill="black" r="0.50282" /><circle cx="11.65878" cy="12.47251" fill="black" r="0.50282" /><circle cx="10.58683" cy="12.76984" fill="black" r="0.50282" /><circle cx="11.78397" cy="11.57271" fill="black" r="0.50282" /><circle cx="12.65248" cy="11.03282" fill="black" r="0.50282" /><circle cx="11.72137" cy="12.3708" fill="black" r="0.50282" /><circle cx="10.10954" cy="12.03435" fill="black" r="0.50282" /><circle cx="13.51316" cy="12.92633" fill="black" r="0.50282" /><circle cx="10.84504" cy="11.11889" fill="black" r="0.50282" /><circle cx="13.50534" cy="13.53664" fill="black" r="0.50282" /><circle cx="10.62595" cy="13.45839" fill="black" r="0.50282" /><circle cx="12.91068" cy="12.97328" fill="black" r="0.50282" /><circle cx="12.05782" cy="11.22843" fill="black" r="0.50282" /><circle cx="12.80114" cy="11.77614" fill="black" r="0.50282" /><circle cx="12.10477" cy="13.23148" fill="black" r="0.50282" /><circle cx="12.78549" cy="13.75572" fill="black" r="0.50282" /><circle cx="12.54293" cy="12.85591" fill="black" r="0.50282" /><circle cx="13.70877" cy="10.74332" fill="black" r="0.50282" /><circle cx="11.90916" cy="10.10172" fill="black" r="0.50282" /><circle cx="12.15171" cy="10.83721" fill="black" r="0.50282" /><circle cx="11.54141" cy="13.31755" fill="black" r="0.50282" /><circle cx="13.59923" cy="13.20019" fill="black" r="0.50282" /><circle cx="11.42404" cy="12.51164" fill="black" r="0.50282" /><circle cx="12.95763" cy="11.43969" fill="black" r="0.50282" /><circle cx="10.40687" cy="13.52099" fill="black" r="0.50282" /><circle cx="10.7042" cy="12.48816" fill="black" r="0.50282" /><circle cx="12.30038" cy="13.15324" fill="black" r="0.50282" /><circle cx="10.87633" cy="10.61813" fill="black" r="0.50282" /><circle cx="11.03282" cy="10.63378" fill="black" r="0.50282" /><circle cx="11.84656" cy="10.27385" fill="black" r="0.50282" /><circle cx="12.90286" cy="12.66813" fill="black" r="0.50282" /><circle cx="12.86374" cy="13.43492" fill="black" r="0.50282" /><circle cx="10.2895" cy="11.70572" fill="black" r="0.50282" /><circle cx="11.33797" cy="13.19236" fill="black" r="0.50282" /><circle cx="11.55706" cy="11.97175" fill="black" r="0.50282" /><circle cx="10.46164" cy="12.3395" fill="black" r="0.50282" /><circle cx="10.44599" cy="10.65725" fill="black" r="0.50282" /><circle cx="12.9498" cy="11.50229" fill="black" r="0.50282" /><circle cx="13.09064" cy="12.87938" fill="black" r="0.50282" /><circle cx="11.89351" cy="11.51011" fill="black" r="0.50282" /><circle cx="10.98588" cy="10.01565" fill="black" r="0.50282" /><circle cx="11.92481" cy="12.49599" fill="black" r="0.50282" /><circle cx="10.08607" cy="10.44599" fill="black" r="0.50282" /><circle cx="13.16106" cy="10.97023" fill="black" r="0.50282" /><circle cx="13.74789" cy="12.75419" fill="black" r="0.50282" /><circle cx="11.43187" cy="10.87633" fill="black" r="0.50282" /><circle cx="12.93416" cy="12.18301" fill="black" r="0.50282" /><circle cx="12.51164" cy="10.76679" fill="black" r="0.50282" /><circle cx="12.67595" cy="11.83091" fill="black" r="0.50282" /><circle cx="10.26603" cy="10.46946" fill="black" r="0.50282" /><circle cx="13.47404" cy="12.06565" fill="black" r="0.50282" /><circle cx="13.3019" cy="11.16584" fill="black" r="0.50282" /><circle cx="10.68072" cy="10.2895" fill="black" r="0.50282" /><circle cx="11.51794" cy="12.9811" fill="black" r="0.50282" /><circle cx="12.73072" cy="11.15019" fill="black" r="0.50282" /><circle cx="13.84179" cy="12.82461" fill="black" r="0.50282" /><circle cx="12.08912" cy="12.32385" fill="black" r="0.50282" /><circle cx="13.54446" cy="11.36927" fill="black" r="0.50282" /><circle cx="10.95458" cy="12.99675" fill="black" r="0.50282" /><circle cx="13.15324" cy="10.93893" fill="black" r="0.50282" /><circle cx="11.97958" cy="13.26278" fill="black" r="0.50282" /><circle cx="11.54923" cy="12.78549" fill="black" r="0.50282" /><circle cx="12.48816" cy="12.23778" fill="black" r="0.50282" /><circle cx="11.69007" cy="13.76354" fill="black" r="0.50282" /><circle cx="13.23931" cy="11.604" fill="black" r="0.50282" /><circle cx="13.27843" cy="12.2769" fill="black" r="0.50282" /><circle cx="13.3958" cy="12.79332" fill="black" r="0.50282" /><circle cx="13.2706" cy="13.51316" fill="black" r="0.50282" /><circle cx="12.52729" cy="10.59466" fill="black" r="0.50282" /><circle cx="10.94675" cy="10.14084" fill="black" r="0.50282" /><circle cx="11.62748" cy="12.22996" fill="black" r="0.50282" /><circle cx="10.11737" cy="12.08129" fill="black" r="0.50282" /><circle cx="13.22366" cy="13.05152" fill="black" r="0.50282" /><circle cx="10.57118" cy="10.66508" fill="black" r="0.50282" /><circle cx="12.6916" cy="12.13606" fill="black" r="0.50282" /><circle cx="10.51641" cy="12.55076" fill="black" r="0.50282" /><circle cx="12.2769" cy="11.21278" fill="black" r="0.50282" /><circle cx="10.14866" cy="13.57576" fill="black" r="0.50282" /><circle cx="10.65725" cy="10.46164" fill="black" r="0.50282" /><circle cx="12.14389" cy="13.61488" fill="black" r="0.50282" /><circle cx="12.01087" cy="12.16736" fill="black" r="0.50282" /><circle cx="11.50229" cy="11.78397" fill="black" r="0.50282" /><circle cx="11.58053" cy="11.89351" fill="black" r="0.50282" /><circle cx="11.79179" cy="13.37232" fill="black" r="0.50282" /><circle cx="13.03587" cy="13.03587" fill="black" r="0.50282" /><circle cx="11.80744" cy="13.28625" fill="black" r="0.50282" /><circle cx="13.05935" cy="10.86069" fill="black" r="0.50282" /><circle cx="11.61965" cy="12.65248" fill="black" r="0.50282" /><circle cx="13.32538" cy="11.45534" fill="black" r="0.50282" /><circle cx="10.00782" cy="10.39122" fill="black" r="0.50282" /><circle cx="11.70572" cy="11.47881" fill="black" r="0.50282" /><circle cx="10.77462" cy="10.54771" fill="black" r="0.50282" /><circle cx="11.75267" cy="13.59141" fill="black" r="0.50282" /><circle cx="10.43817" cy="13.87308" fill="black" r="0.50282" /><circle cx="12.98893" cy="10.69637" fill="black" r="0.50282" /><circle cx="12.22996" cy="12.73854" fill="black" r="0.50282" /><circle cx="13.6853" cy="12.0187" fill="black" r="0.50282" /><circle cx="10.07824" cy="12.95763" fill="black" r="0.50282" /><circle cx="12.89503" cy="10.52424" fill="black" r="0.50282" /><circle cx="11.86221" cy="13.64618" fill="black" r="0.50282" /><circle cx="11.6353" cy="12.38645" fill="black" r="0.50282" /><circle cx="12.99675" cy="12.3082" fill="black" r="0.50282" /><circle cx="13.55228" cy="10.82156" fill="black" r="0.50282" /><circle cx="10.22691" cy="12.00305" fill="black" r="0.50282" /><circle cx="12.19084" cy="10.37557" fill="black" r="0.50282" /><circle cx="13.89656" cy="12.94198" fill="black" r="0.50282" /><circle cx="12.71507" cy="12.80896" fill="black" r="0.50282" /><circle cx="12.92633" cy="11.76049" fill="black" r="0.50282" /><circle cx="12.82461" cy="11.6353" fill="black" r="0.50282" /><circle cx="13.76354" cy="12.33168" fill="black" r="0.50282" /><circle cx="12.87938" cy="11.55706" fill="black" r="0.50282" /><circle cx="10.30515" cy="10.24256" fill="black" r="0.50282" /><circle cx="10.49294" cy="12.93416" fill="black" r="0.50282" /><circle cx="10.57901" cy="11.91698" fill="black" r="0.50282" /><circle cx="13.654" cy="11.40839" fill="black" r="0.50282" /><circle cx="10.3521" cy="11.94045" fill="black" r="0.50282" /><circle cx="11.94045" cy="13.67747" fill="black" r="0.50282" /><circle cx="10.61813" cy="12.4021" fill="black" r="0.50282" /><circle cx="11.22061" cy="12.55858" fill="black" r="0.50282" /><circle cx="11.32233" cy="10.75114" fill="black" r="0.50282" /><circle cx="13.78702" cy="11.33797" fill="black" r="0.50282" /><circle cx="13.84961" cy="10.7042" fill="black" r="0.50282" /><circle cx="12.629" cy="11.01717" fill="black" r="0.50282" /><circle cx="11.83091" cy="11.99523" fill="black" r="0.50282" /><circle cx="10.01565" cy="13.55228" fill="black" r="0.50282" /><circle cx="12.59771" cy="10.10954" fill="black" r="0.50282" /><circle cx="11.40839" cy="10.19561" fill="black" r="0.50282" /><circle cx="13.26278" cy="13.58358" fill="black" r="0.50282" /><circle cx="13.73225" cy="11.48664" fill="black" r="0.50282" /><circle cx="12.79332" cy="13.70095" fill="black" r="0.50282" /><circle cx="13.45839" cy="13.6227" fill="black" r="0.50282" /><circle cx="11.11889" cy="10.53206" fill="black" r="0.50282" /><circle cx="13.43492" cy="10.12519" fill="black" r="0.50282" /><circle cx="11.71355" cy="11.73702" fill="black" r="0.50282" /><circle cx="13.40362" cy="10.08607" fill="black" r="0.50282" /><circle cx="12.20648" cy="11.85439" fill="black" r="0.50282" /><circle cx="11.47881" cy="13.02022" fill="black" r="0.50282" /><circle cx="10.82156" cy="13.6853" fill="black" r="0.50282" /><circle cx="13.34102" cy="13.69312" fill="black" r="0.50282" /><circle cx="12.41774" cy="10.94675" fill="black" r="0.50282" /><circle cx="12.68377" cy="13.7166" fill="black" r="0.50282" /><circle cx="13.85744" cy="11.30668" fill="black" r="0.50282" /><circle cx="11.18931" cy="13.49751" fill="black" r="0.50282" /><circle cx="11.06412" cy="11.00152" fill="black" r="0.50282" /><circle cx="11.25973" cy="10.05477" fill="black" r="0.50282" /><circle cx="10.60248" cy="13.38797" fill="black" r="0.50282" /><circle cx="12.12824" cy="11.62748" fill="black" r="0.50282" /><circle cx="11.58836" cy="12.53511" fill="black" r="0.50282" /><circle cx="11.82309" cy="11.3458" fill="black" r="0.50282" /><circle cx="11.87786" cy="12.35515" fill="black" r="0.50282" /><circle cx="12.6603" cy="10.03912" fill="black" r="0.50282" /><circle cx="12.76984" cy="10.9624" fill="black" r="0.50282" /><circle cx="11.48664" cy="12.10477" fill="black" r="0.50282" /><circle cx="10.0626" cy="10.21126" fill="black" r="0.50282" /><circle cx="13.7166" cy="11.64313" fill="black" r="0.50282" /><circle cx="10.13302" cy="11.61183" fill="black" r="0.50282" /><circle cx="11.85439" cy="10.45382" fill="black" r="0.50282" /><circle cx="11.81526" cy="10.25821" fill="black" r="0.50282" /><circle cx="13.52881" cy="13.46622" fill="black" r="0.50282" /><circle cx="10.56336" cy="11.6666" fill="black" r="0.50282" /><circle cx="13.61488" cy="10.26603" fill="black" r="0.50282" /><circle cx="10.0" cy="12.96545" fill="black" r="0.50282" /><circle cx="12.45687" cy="10.42252" fill="black" r="0.50282" /><circle cx="10.47729" cy="10.47729" fill="black" r="0.50282" /><circle cx="12.05" cy="13.77919" fill="black" r="0.50282" /><circle cx="12.48034" cy="11.32233" fill="black" r="0.50282" /><circle cx="13.19236" cy="13.654" fill="black" r="0.50282" /><circle cx="10.28168" cy="11.54923" fill="black" r="0.50282" /><circle cx="11.21278" cy="10.20343" fill="black" r="0.50282" /><circle cx="13.81831" cy="11.20496" fill="black" r="0.50282" /><circle cx="12.55858" cy="10.50076" fill="black" r="0.50282" /><circle cx="13.88873" cy="10.32863" fill="black" r="0.50282" /><circle cx="10.75897" cy="12.6603" fill="black" r="0.50282" /><circle cx="13.87308" cy="12.71507" fill="black" r="0.50282" /><circle cx="11.27538" cy="10.22691" fill="black" r="0.50282" /><circle cx="13.86526" cy="11.94828" fill="black" r="0.50282" /><circle cx="11.36145" cy="12.91851" fill="black" r="0.50282" /><circle cx="12.77767" cy="12.07347" fill="black" r="0.50282" /><circle cx="11.29103" cy="13.09847" fill="black" r="0.50282" /><circle cx="10.39905" cy="10.57901" fill="black" r="0.50282" /><circle cx="10.35992" cy="13.14541" fill="black" r="0.50282" /><circle cx="10.17996" cy="12.41774" fill="black" r="0.50282" /><circle cx="13.77919" cy="12.17519" fill="black" r="0.50282" /><circle cx="10.10172" cy="11.79962" fill="black" r="0.50282" /><circle cx="11.56488" cy="10.71985" fill="black" r="0.50282" /><circle cx="13.46622" cy="10.75897" fill="black" r="0.50282" /><circle cx="12.3708" cy="11.29885" fill="black" r="0.50282" /><circle cx="11.36927" cy="12.15171" fill="black" r="0.50282" /><circle cx="11.23626" cy="11.3145" fill="black" r="0.50282" /><circle cx="10.68855" cy="10.25038" fill="black" r="0.50282" /><circle cx="13.3332" cy="12.68377" fill="black" r="0.50282" /><circle cx="13.02022" cy="11.2832" fill="black" r="0.50282" /><circle cx="12.91851" cy="12.36297" fill="black" r="0.50282" /><circle cx="13.63053" cy="13.16106" fill="black" r="0.50282" /><circle cx="12.11259" cy="13.52881" fill="black" r="0.50282" /><circle cx="10.07042" cy="11.25191" fill="black" r="0.50282" /><circle cx="12.07347" cy="13.84179" fill="black" r="0.50282" /><circle cx="10.78244" cy="13.41927" fill="black" r="0.50282" /><circle cx="12.56641" cy="10.29733" fill="black" r="0.50282" /><circle cx="12.46469" cy="13.27843" fill="black" r="0.50282" /><circle cx="12.47251" cy="10.79027" fill="black" r="0.50282" /><circle cx="10.86069" cy="10.33645" fill="black" r="0.50282" /><circle cx="11.22843" cy="13.73225" fill="black" r="0.50282" /><circle cx="11.41622" cy="12.67595" fill="black" r="0.50282" /><circle cx="12.76202" cy="11.44752" fill="black" r="0.50282" /><circle cx="10.6729" cy="13.17671" fill="black" r="0.50282" /><circle cx="13.45057" cy="10.9937" fill="black" r="0.50282" /><circle cx="13.14541" cy="12.84809" fill="black" r="0.50282" /><circle cx="12.19866" cy="13.44274" fill="black" r="0.50282" /><circle cx="11.35362" cy="11.53359" fill="black" r="0.50282" /><circle cx="12.33168" cy="13.00457" fill="black" r="0.50282" /><circle cx="10.12519" cy="11.08759" fill="black" r="0.50282" /><circle cx="12.37862" cy="13.06717" fill="black" r="0.50282" /><circle cx="11.9874" cy="13.13759" fill="black" r="0.50282" /><circle cx="11.52576" cy="11.56488" fill="black" r="0.50282" /><circle cx="11.07977" cy="10.17996" fill="black" r="0.50282" /><circle cx="10.63378" cy="12.58206" fill="black" r="0.50282" /><circle cx="11.64313" cy="11.6979" fill="black" r="0.50282" /><circle cx="10.09389" cy="10.68855" fill="black" r="0.50282" /><circle cx="11.29885" cy="13.05935" fill="black" r="0.50282" /><circle cx="11.40057" cy="11.12672" fill="black" r="0.50282" /><circle cx="11.88568" cy="13.47404" fill="black" r="0.50282" /><circle cx="12.00305" cy="13.21583" fill="black" r="0.50282" /><circle cx="13.02805" cy="10.90763" fill="black" r="0.50282" /><circle cx="11.20496" cy="12.89503" fill="black" r="0.50282" /><circle cx="12.63683" cy="13.34885" fill="black" r="0.50282" /><circle cx="12.16736" cy="11.17366" fill="black" r="0.50282" /><circle cx="11.96393" cy="12.87156" fill="black" r="0.50282" /><circle cx="13.48186" cy="13.07499" fill="black" r="0.50282" /><circle cx="13.08282" cy="12.43339" fill="black" r="0.50282" /><circle cx="11.18149" cy="10.16431" fill="black" r="0.50282" /><circle cx="11.3145" cy="10.41469" fill="black" r="0.50282" /><circle cx="13.6227" cy="13.66183" fill="black" r="0.50282" /><circle cx="11.14236" cy="12.19084" fill="black" r="0.50282" /><circle cx="11.83874" cy="11.71355" fill="black" r="0.50282" /><circle cx="10.97023" cy="12.31603" fill="black" r="0.50282" /><circle cx="12.26126" cy="11.14236" fill="black" r="0.50282" /><circle cx="10.17214" cy="12.08912" fill="black" r="0.50282" /><circle cx="13.16889" cy="11.29103" fill="black" r="0.50282" /><circle cx="11.76049" cy="13.11412" fill="black" r="0.50282" /><circle cx="10.76679" cy="10.07042" fill="black" r="0.50282" /><circle cx="10.93893" cy="13.40362" fill="black" r="0.50282" /><circle cx="11.97175" cy="13.56011" fill="black" r="0.50282" /><circle cx="13.21583" cy="13.70877" fill="black" r="0.50282" /><circle cx="10.34427" cy="11.42404" fill="black" r="0.50282" /><circle cx="10.9937" cy="11.07977" fill="black" r="0.50282" /><circle cx="10.91546" cy="12.01087" fill="black" r="0.50282" /><circle cx="12.61335" cy="13.74789" fill="black" r="0.50282" /><circle cx="12.23778" cy="11.58053" fill="black" r="0.50282" /><circle cx="13.28625" cy="11.07194" fill="black" r="0.50282" /><circle cx="10.36775" cy="13.12194" fill="black" r="0.50282" /><circle cx="10.24256" cy="12.88721" fill="black" r="0.50282" /><circle cx="12.75419" cy="12.6916" fill="black" r="0.50282" /><circle cx="13.83396" cy="10.02347" fill="black" r="0.50282" /><circle cx="11.025" cy="12.02652" fill="black" r="0.50282" /><circle cx="12.18301" cy="10.3834" fill="black" r="0.50282" /><circle cx="11.12672" cy="13.78702" fill="black" r="0.50282" /><circle cx="11.76832" cy="12.05782" fill="black" r="0.50282" /><circle cx="11.30668" cy="13.82614" fill="black" r="0.50282" /><circle cx="13.72442" cy="10.56336" fill="black" r="0.50282" /><circle cx="11.94828" cy="13.32538" fill="black" r="0.50282" /><circle cx="12.17519" cy="10.35992" fill="black" r="0.50282" /><circle cx="12.09694" cy="11.35362" fill="black" r="0.50282" /><circle cx="13.25496" cy="10.23473" fill="black" r="0.50282" /><circle cx="13.82614" cy="13.38015" fill="black" r="0.50282" /><circle cx="12.39427" cy="12.12824" fill="black" r="0.50282" /><circle cx="12.64465" cy="10.3208" fill="black" r="0.50282" /><circle cx="10.71202" cy="11.24408" fill="black" r="0.50282" /><circle cx="13.70095" cy="10.85286" fill="black" r="0.50282" /><circle cx="10.6416" cy="10.39905" fill="black" r="0.50282" /><circle cx="11.3458" cy="13.3019" fill="black" r="0.50282" /><circle cx="13.38797" cy="10.81374" fill="black" r="0.50282" /><circle cx="12.74637" cy="11.40057" fill="black" r="0.50282" /><circle cx="11.99523" cy="13.08282" fill="black" r="0.50282" /><circle cx="13.90438" cy="11.87786" fill="black" r="0.50282" /><circle cx="12.84026" cy="12.70725" fill="black" r="0.50282" /><circle cx="11.68225" cy="11.90916" fill="black" r="0.50282" /><circle cx="11.0563" cy="10.86851" fill="black" r="0.50282" /><circle cx="11.87003" cy="13.22366" fill="black" r="0.50282" /><circle cx="10.75114" cy="13.0437" fill="black" r="0.50282" /><circle cx="12.02652" cy="12.59771" fill="black" r="0.50282" /><circle cx="10.25821" cy="11.18149" fill="black" r="0.50282" /><circle cx="10.79027" cy="10.36775" fill="black" r="0.50282" /><circle cx="12.40992" cy="11.06412" fill="black" r="0.50282" /><circle cx="10.93111" cy="11.52576" fill="black" r="0.50282" /><circle cx="10.33645" cy="12.98893" fill="black" r="0.50282" /><circle cx="12.31603" cy="10.64943" fill="black" r="0.50282" /><circle cx="13.81049" cy="11.39275" fill="black" r="0.50282" /><circle cx="11.9561" cy="11.79179" fill="black" r="0.50282" /><circle cx="12.70725" cy="13.42709" fill="black" r="0.50282" /><circle cx="11.3771" cy="10.30515" fill="black" r="0.50282" /><circle cx="11.19714" cy="11.69007" fill="black" r="0.50282" /><circle cx="11.6979" cy="10.0313" fill="black" r="0.50282" /><circle cx="10.20343" cy="13.02805" fill="black" r="0.50282" /><circle cx="13.12977" cy="12.50381" fill="black" r="0.50282" /><circle cx="12.62118" cy="12.73072" fill="black" r="0.50282" /><circle cx="11.25191" cy="13.90438" fill="black" r="0.50282" /><circle cx="12.57423" cy="13.74007" fill="black" r="0.50282" /><circle cx="12.29255" cy="11.86221" fill="black" r="0.50282" /><circle cx="13.12194" cy="11.38492" fill="black" r="0.50282" /><circle cx="13.3645" cy="12.77767" fill="black" r="0.50282" /><circle cx="13.80267" cy="11.81526" fill="black" r="0.50282" /><circle cx="11.38492" cy="13.85744" fill="black" r="0.50282" /><circle cx="10.23473" cy="13.83396" fill="black" r="0.50282" /><circle cx="12.53511" cy="11.7292" fill="black" r="0.50282" /><circle cx="12.12042" cy="12.84026" fill="black" r="0.50282" /><circle cx="13.18454" cy="11.13454" fill="black" r="0.50282" /><circle cx="10.25038" cy="12.69942" fill="black" r="0.50282" /><circle cx="10.69637" cy="10.57118" fill="black" r="0.50282" /><circle cx="13.75572" cy="13.81831" fill="black" r="0.50282" /><circle cx="11.90133" cy="10.6103" fill="black" r="0.50282" /><circle cx="13.88091" cy="13.88091" fill="black" r="0.50282" /><circle cx="10.53988" cy="12.52729" fill="black" r="0.50282" /><circle cx="12.97328" cy="10.15649" fill="black" r="0.50282" /><circle cx="12.87156" cy="12.61335" fill="black" r="0.50282" /><circle cx="10.46946" cy="12.09694" fill="black" r="0.50282" /><circle cx="11.46317" cy="10.04695" fill="black" r="0.50282" /><circle cx="12.15954" cy="11.41622" fill="black" r="0.50282" /><circle cx="10.48511" cy="12.34732" fill="black" r="0.50282" /><circle cx="10.85286" cy="13.18454" fill="black" r="0.50282" /><circle cx="13.58358" cy="11.72137" fill="black" r="0.50282" /><circle cx="12.25343" cy="11.90133" fill="black" r="0.50282" /><circle cx="10.55553" cy="11.47099" fill="black" r="0.50282" /><circle cx="10.16431" cy="12.86374" fill="black" r="0.50282" /><circle cx="13.35667" cy="12.44122" fill="black" r="0.50282" /><circle cx="13.41927" cy="10.95458" fill="black" r="0.50282" /><circle cx="10.90763" cy="12.54293" fill="black" r="0.50282" /><circle cx="10.45382" cy="11.26756" fill="black" r="0.50282" /><circle cx="10.42252" cy="13.34102" fill="black" r="0.50282" /><circle cx="10.81374" cy="10.09389" fill="black" r="0.50282" /><circle cx="13.30973" cy="13.3958" fill="black" r="0.50282" /><circle cx="10.74332" cy="10.98588" fill="black" r="0.50282" /><circle cx="12.51946" cy="10.0" fill="black" r="0.50282" /><circle cx="12.32385" cy="11.27538" fill="black" r="0.50282" /><circle cx="11.26756" cy="12.04217" fill="black" r="0.50282" /><circle cx="13.23148" cy="13.63053" fill="black" r="0.50282" /><circle cx="12.34732" cy="11.025" fill="black" r="0.50282" /><circle cx="13.05152" cy="10.92328" fill="black" r="0.50282" /><circle cx="10.04695" cy="11.43187" fill="black" r="0.50282" /><circle cx="13.60705" cy="12.42557" fill="black" r="0.50282" /><circle cx="11.43969" cy="13.3645" fill="black" r="0.50282" /><circle cx="11.67442" cy="13.2706" fill="black" r="0.50282" /><circle cx="11.47099" cy="11.00935" fill="black" r="0.50282" /><circle cx="11.49446" cy="10.68072" fill="black" r="0.50282" /><circle cx="11.15019" cy="12.39427" fill="black" r="0.50282" /><circle cx="10.15649" cy="11.22061" fill="black" r="0.50282" /><circle cx="10.82939" cy="13.29408" fill="black" r="0.50282" /><circle cx="11.74484" cy="10.17214" fill="black" r="0.50282" /><circle cx="13.67747" cy="13.30973" fill="black" r="0.50282" /><circle cx="10.64943" cy="10.11737" fill="black" r="0.50282" /><circle cx="11.10324" cy="12.46469" fill="black" r="0.50282" /><circle cx="11.53359" cy="13.16889" fill="black" r="0.50282" /><circle cx="10.21908" cy="12.63683" fill="black" r="0.50282" /><circle cx="13.66183" cy="13.09064" fill="black" r="0.50282" /><circle cx="13.74007" cy="12.74637" fill="black" r="0.50282" /><circle cx="13.10629" cy="10.28168" fill="black" r="0.50282" /><circle cx="11.08759" cy="11.46317" fill="black" r="0.50282" /><circle cx="11.79962" cy="12.83244" fill="black" r="0.50282" /><circle cx="12.60553" cy="11.15801" fill="black" r="0.50282" /><circle cx="11.57271" cy="10.48511" fill="black" r="0.50282" /><circle cx="13.59141" cy="11.74484" fill="black" r="0.50282" /><circle cx="11.13454" cy="13.89656" fill="black" r="0.50282" /><circle cx="13.24713" cy="13.66965" fill="black" r="0.50282" /><circle cx="11.6666" cy="12.11259" fill="black" r="0.50282" /><circle cx="10.31298" cy="12.40992" fill="black" r="0.50282" /><circle cx="12.96545" cy="13.48969" fill="black" r="0.50282" /><circle cx="12.13606" cy="10.62595" fill="black" r="0.50282" /><circle cx="10.83721" cy="11.04847" fill="black" r="0.50282" /><circle cx="13.13759" cy="12.7229" fill="black" r="0.50282" /><circle cx="12.73854" cy="10.91546" fill="black" r="0.50282" /><circle cx="12.84809" cy="11.11107" fill="black" r="0.50282" /><circle cx="13.42709" cy="10.93111" fill="black" r="0.50282" /><circle cx="10.73549" cy="13.86526" fill="black" r="0.50282" /><circle cx="12.22213" cy="11.54141" fill="black" r="0.50282" /><circle cx="10.54771" cy="10.18779" fill="black" r="0.50282" /><circle cx="10.43034" cy="12.12042" fill="black" r="0.50282" /><circle cx="11.65095" cy="10.53988" fill="black" r="0.50282" /><circle cx="10.3208" cy="11.68225" fill="black" r="0.50282" /><circle cx="11.39275" cy="13.88873" fill="black" r="0.50282" /><circle cx="13.20801" cy="10.71202" fill="black" r="0.50282" /><circle cx="13.53664" cy="10.80591" fill="black" r="0.50282" /><circle cx="12.58988" cy="10.0626" fill="black" r="0.50282" /><circle cx="11.07194" cy="11.65095" fill="black" r="0.50282" /><circle cx="12.3395" cy="11.75267" fill="black" r="0.50282" /><circle cx="12.80896" cy="13.59923" fill="black" r="0.50282" /><circle cx="13.52099" cy="10.50859" fill="black" r="0.50282" /><circle cx="12.4021" cy="13.23931" fill="black" r="0.50282" /><circle cx="13.06717" cy="12.26908" fill="black" r="0.50282" /><circle cx="10.79809" cy="13.45057" fill="black" r="0.50282" /><circle cx="11.00152" cy="11.84656" fill="black" r="0.50282" /><circle cx="12.88721" cy="10.21908" fill="black" r="0.50282" /><circle cx="10.29733" cy="13.35667" fill="black" r="0.50282" /><circle cx="10.53206" cy="11.97958" fill="black" r="0.50282" /><circle cx="11.59618" cy="11.49446" fill="black" r="0.50282" /><circle cx="10.86851" cy="12.30038" fill="black" r="0.50282" /><circle cx="10.14084" cy="11.04065" fill="black" r="0.50282" /><circle cx="10.88416" cy="11.96393" fill="black" r="0.50282" /><circle cx="10.32863" cy="12.90286" fill="black" r="0.50282" /><circle cx="11.00935" cy="11.58836" fill="black" r="0.50282" /><circle cx="13.41144" cy="10.89198" fill="black" r="0.50282" /><circle cx="10.03912" cy="12.05" fill="black" r="0.50282" /><circle cx="11.11107" cy="13.80267" fill="black" r="0.50282" /><circle cx="10.71985" cy="10.13302" fill="black" r="0.50282" /><circle cx="13.0437" cy="12.19866" fill="black" r="0.50282" /><circle cx="13.56011" cy="13.72442" fill="black" r="0.50282" /><circle cx="11.16584" cy="11.82309" fill="black" r="0.50282" /><circle cx="12.49599" cy="13.54446" fill="black" r="0.50282" /><circle cx="12.66813" cy="12.91068" fill="black" r="0.50282" /><circle cx="13.17671" cy="10.55553" fill="black" r="0.50282" /><circle cx="12.3082" cy="13.63835" fill="black" r="0.50282" /><circle cx="13.64618" cy="11.67442" fill="black" r="0.50282" /><circle cx="10.59466" cy="10.73549" fill="black" r="0.50282" /><circle cx="11.7292" cy="12.629" fill="black" r="0.50282" /><circle cx="11.24408" cy="12.56641" fill="black" r="0.50282" /><circle cx="13.79484" cy="10.43817" fill="black" r="0.50282" /><circle cx="10.39122" cy="12.58988" fill="black" r="0.50282" /><circle cx="10.80591" cy="12.24561" fill="black" r="0.50282" /><circle cx="11.09542" cy="11.65878" fill="black" r="0.50282" /><circle cx="10.97805" cy="13.0124" fill="black" r="0.50282" /><circle cx="12.44122" cy="11.80744" fill="black" r="0.50282" /><circle cx="10.41469" cy="11.88568" fill="black" r="0.50282" /><circle cx="12.0187" cy="11.83874" fill="black" r="0.50282" /><circle cx="11.61183" cy="12.76202" fill="black" r="0.50282" /><circle cx="10.18779" cy="13.41144" fill="black" r="0.50282" /><circle cx="11.17366" cy="10.6416" fill="black" r="0.50282" /><circle cx="12.38645" cy="11.33015" fill="black" r="0.50282" /><circle cx="13.56793" cy="12.9498" fill="black" r="0.50282" /><circle cx="11.33015" cy="12.21431" fill="black" r="0.50282" /><circle cx="12.43339" cy="13.20801" fill="black" r="0.50282" /></svg>